<?xml version="1.0" encoding="UTF-8" standalone="no"?>
<!DOCTYPE svg PUBLIC "-//W3C//DTD SVG 1.1//EN"
 "http://www.w3.org/Graphics/SVG/1.1/DTD/svg11.dtd">
<!-- Generated by graphviz version 2.40.1 (20161225.0304)
 -->
<!-- Title: cards Pages: 1 -->
<svg width="662pt" height="554pt"
 viewBox="0.00 0.00 662.00 554.00" xmlns="http://www.w3.org/2000/svg" xmlns:xlink="http://www.w3.org/1999/xlink">
<g id="graph0" class="graph" transform="scale(1 1) rotate(0) translate(4 550)">
<title>cards</title>
<polygon fill="#ffffff" stroke="transparent" points="-4,4 -4,-550 658,-550 658,4 -4,4"/>
<!-- cards -->
<g id="node1" class="node">
<title>cards</title>
<polygon fill="#efefef" stroke="transparent" points="46,-454 46,-500 414,-500 414,-454 46,-454"/>
<polygon fill="none" stroke="#000000" points="46,-454 46,-500 414,-500 414,-454 46,-454"/>
<text text-anchor="start" x="144.2137" y="-477.8" font-family="Arial Bold" font-size="18.00" fill="#000000">cards</text>
<text text-anchor="start" x="188.2183" y="-477.8" font-family="Arial" font-size="14.00" fill="#000000">    </text>
<text text-anchor="start" x="222.4231" y="-477.8" font-family="Arial" font-size="14.00" fill="#666666">[BASE TABLE]</text>
<text text-anchor="start" x="169.4661" y="-463.4" font-family="Arial" font-size="14.00" fill="#333333">デモ用のサンプル</text>
<polygon fill="none" stroke="#000000" points="46,-424 46,-454 414,-454 414,-424 46,-424"/>
<text text-anchor="start" x="53" y="-435.4" font-family="Arial" font-size="14.00" fill="#000000">id </text>
<text text-anchor="start" x="67.7798" y="-435.4" font-family="Arial" font-size="14.00" fill="#666666">[int(11) unsigned]</text>
<text text-anchor="start" x="175.92" y="-435.4" font-family="Arial" font-size="14.00" fill="#000000"> 識別子</text>
<polygon fill="none" stroke="#000000" points="46,-394 46,-424 414,-424 414,-394 46,-394"/>
<text text-anchor="start" x="52.6578" y="-405.4" font-family="Arial" font-size="14.00" fill="#000000">user_id </text>
<text text-anchor="start" x="102.446" y="-405.4" font-family="Arial" font-size="14.00" fill="#666666">[int(11) unsigned]</text>
<text text-anchor="start" x="210.5862" y="-405.4" font-family="Arial" font-size="14.00" fill="#000000"> カードユーザーの識別子</text>
<polygon fill="none" stroke="#000000" points="46,-364 46,-394 414,-394 414,-364 46,-364"/>
<text text-anchor="start" x="53" y="-375.4" font-family="Arial" font-size="14.00" fill="#000000">created_at </text>
<text text-anchor="start" x="123.028" y="-375.4" font-family="Arial" font-size="14.00" fill="#666666">[datetime(6)]</text>
<text text-anchor="start" x="201.5918" y="-375.4" font-family="Arial" font-size="14.00" fill="#000000"> レコード作成日時</text>
<polygon fill="none" stroke="#000000" points="46,-334 46,-364 414,-364 414,-334 46,-334"/>
<text text-anchor="start" x="53" y="-345.4" font-family="Arial" font-size="14.00" fill="#000000">modified_at </text>
<text text-anchor="start" x="129.2412" y="-345.4" font-family="Arial" font-size="14.00" fill="#666666">[datetime(6)]</text>
<text text-anchor="start" x="207.805" y="-345.4" font-family="Arial" font-size="14.00" fill="#000000"> レコード修正日時</text>
<polygon fill="none" stroke="#000000" stroke-width="3" points="44.5,-332.5 44.5,-501.5 415.5,-501.5 415.5,-332.5 44.5,-332.5"/>
</g>
<!-- users -->
<g id="node2" class="node">
<title>users</title>
<polygon fill="#efefef" stroke="transparent" points="64,-163 64,-209 396,-209 396,-163 64,-163"/>
<polygon fill="none" stroke="#000000" points="64,-163 64,-209 396,-209 396,-163 64,-163"/>
<text text-anchor="start" x="144.2137" y="-186.8" font-family="Arial Bold" font-size="18.00" fill="#000000">users</text>
<text text-anchor="start" x="188.2183" y="-186.8" font-family="Arial" font-size="14.00" fill="#000000">    </text>
<text text-anchor="start" x="222.4231" y="-186.8" font-family="Arial" font-size="14.00" fill="#666666">[BASE TABLE]</text>
<text text-anchor="start" x="136.5458" y="-172.4" font-family="Arial" font-size="14.00" fill="#333333">デモ用のサンプルテーブル</text>
<polygon fill="none" stroke="#000000" points="64,-133 64,-163 396,-163 396,-133 64,-133"/>
<text text-anchor="start" x="71" y="-144.4" font-family="Arial" font-size="14.00" fill="#000000">id    </text>
<text text-anchor="start" x="116.094" y="-144.4" font-family="Arial" font-size="14.00" fill="#666666">[int(11) unsigned]</text>
<text text-anchor="start" x="224.2342" y="-144.4" font-family="Arial" font-size="14.00" fill="#000000"> 識別子</text>
<polygon fill="none" stroke="#000000" points="64,-103 64,-133 396,-133 396,-103 64,-103"/>
<text text-anchor="start" x="71" y="-114.4" font-family="Arial" font-size="14.00" fill="#000000">name    </text>
<text text-anchor="start" x="140.2132" y="-114.4" font-family="Arial" font-size="14.00" fill="#666666">[varchar(12)]</text>
<text text-anchor="start" x="219.5498" y="-114.4" font-family="Arial" font-size="14.00" fill="#000000"> 名前</text>
<polygon fill="none" stroke="#000000" points="64,-73 64,-103 396,-103 396,-73 64,-73"/>
<text text-anchor="start" x="71" y="-84.4" font-family="Arial" font-size="14.00" fill="#000000">created_at    </text>
<text text-anchor="start" x="171.3422" y="-84.4" font-family="Arial" font-size="14.00" fill="#666666">[datetime(6)]</text>
<text text-anchor="start" x="249.906" y="-84.4" font-family="Arial" font-size="14.00" fill="#000000"> レコード作成日時3</text>
<polygon fill="none" stroke="#000000" points="64,-43 64,-73 396,-73 396,-43 64,-43"/>
<text text-anchor="start" x="70.6835" y="-54.4" font-family="Arial" font-size="14.00" fill="#000000">modified_at    </text>
<text text-anchor="start" x="177.2389" y="-54.4" font-family="Arial" font-size="14.00" fill="#666666">[datetime(6)]</text>
<text text-anchor="start" x="255.8027" y="-54.4" font-family="Arial" font-size="14.00" fill="#000000"> レコード修正日時</text>
</g>
<!-- cards&#45;&gt;users -->
<g id="edge1" class="edge">
<title>cards:user_id&#45;&gt;users:id</title>
<path fill="none" stroke="#000000" d="M423.7308,-406.2454C469.8109,-378.3513 450.6177,-148 396,-148"/>
<polygon fill="#000000" stroke="#000000" points="423.6219,-406.2762 412.7743,-404.6701 418.811,-407.6381 414,-409 414,-409 414,-409 418.811,-407.6381 415.2257,-413.3299 423.6219,-406.2762 423.6219,-406.2762"/>
<text text-anchor="start" x="420.945" y="-419" font-family="Arial" font-size="10.00" fill="#000000">FOREIGN KEY (user_id) REFERENCES users (id)</text>
</g>
</g>
</svg>
