<?xml version="1.0" encoding="UTF-8" standalone="no"?>
<!DOCTYPE svg PUBLIC "-//W3C//DTD SVG 1.1//EN"
 "http://www.w3.org/Graphics/SVG/1.1/DTD/svg11.dtd">
<!-- Generated by graphviz version 2.40.1 (20161225.0304)
 -->
<!-- Title: public.users Pages: 1 -->
<svg width="388pt" height="345pt"
 viewBox="0.00 0.00 388.00 345.00" xmlns="http://www.w3.org/2000/svg" xmlns:xlink="http://www.w3.org/1999/xlink">
<g id="graph0" class="graph" transform="scale(1 1) rotate(0) translate(4 341)">
<title>public.users</title>
<polygon fill="#ffffff" stroke="transparent" points="-4,4 -4,-341 384,-341 384,4 -4,4"/>
<!-- public.users -->
<g id="node1" class="node">
<title>public.users</title>
<polygon fill="#efefef" stroke="transparent" points="46,-255.5 46,-290.5 334,-290.5 334,-255.5 46,-255.5"/>
<polygon fill="none" stroke="#000000" points="46,-255.5 46,-290.5 334,-290.5 334,-255.5 46,-255.5"/>
<text text-anchor="start" x="78.2091" y="-268.3" font-family="Arial Bold" font-size="18.00" fill="#000000">public.users</text>
<text text-anchor="start" x="174.2229" y="-268.3" font-family="Arial" font-size="14.00" fill="#000000">    </text>
<text text-anchor="start" x="208.4277" y="-268.3" font-family="Arial" font-size="14.00" fill="#666666">[BASE TABLE]</text>
<polygon fill="none" stroke="#000000" points="46,-225.5 46,-255.5 334,-255.5 334,-225.5 46,-225.5"/>
<text text-anchor="start" x="53" y="-236.9" font-family="Arial" font-size="14.00" fill="#000000">id </text>
<text text-anchor="start" x="67.7798" y="-236.9" font-family="Arial" font-size="14.00" fill="#666666">[integer]</text>
<polygon fill="none" stroke="#000000" points="46,-195.5 46,-225.5 334,-225.5 334,-195.5 46,-195.5"/>
<text text-anchor="start" x="53" y="-206.9" font-family="Arial" font-size="14.00" fill="#000000">user_name </text>
<text text-anchor="start" x="126.9074" y="-206.9" font-family="Arial" font-size="14.00" fill="#666666">[varchar(255)]</text>
<polygon fill="none" stroke="#000000" points="46,-165.5 46,-195.5 334,-195.5 334,-165.5 46,-165.5"/>
<text text-anchor="start" x="53" y="-176.9" font-family="Arial" font-size="14.00" fill="#000000">hashed_password </text>
<text text-anchor="start" x="170.4838" y="-176.9" font-family="Arial" font-size="14.00" fill="#666666">[varchar(255)]</text>
<polygon fill="none" stroke="#000000" points="46,-135.5 46,-165.5 334,-165.5 334,-135.5 46,-135.5"/>
<text text-anchor="start" x="53" y="-146.9" font-family="Arial" font-size="14.00" fill="#000000">status </text>
<text text-anchor="start" x="94.237" y="-146.9" font-family="Arial" font-size="14.00" fill="#666666">[integer]</text>
<polygon fill="none" stroke="#000000" points="46,-105.5 46,-135.5 334,-135.5 334,-105.5 46,-105.5"/>
<text text-anchor="start" x="53" y="-116.9" font-family="Arial" font-size="14.00" fill="#000000">email </text>
<text text-anchor="start" x="90.3296" y="-116.9" font-family="Arial" font-size="14.00" fill="#666666">[varchar(255)]</text>
<polygon fill="none" stroke="#000000" points="46,-75.5 46,-105.5 334,-105.5 334,-75.5 46,-75.5"/>
<text text-anchor="start" x="53" y="-86.9" font-family="Arial" font-size="14.00" fill="#000000">created_date </text>
<text text-anchor="start" x="138.5932" y="-86.9" font-family="Arial" font-size="14.00" fill="#666666">[timestamp without time zone]</text>
<polygon fill="none" stroke="#000000" points="46,-45.5 46,-75.5 334,-75.5 334,-45.5 46,-45.5"/>
<text text-anchor="start" x="52.681" y="-56.9" font-family="Arial" font-size="14.00" fill="#000000">updated_date </text>
<text text-anchor="start" x="142.1788" y="-56.9" font-family="Arial" font-size="14.00" fill="#666666">[timestamp without time zone]</text>
<polygon fill="none" stroke="#000000" stroke-width="3" points="44.5,-44.5 44.5,-292.5 335.5,-292.5 335.5,-44.5 44.5,-44.5"/>
</g>
</g>
</svg>
