<?xml version="1.0" encoding="UTF-8" standalone="no"?>
<!DOCTYPE svg PUBLIC "-//W3C//DTD SVG 1.1//EN"
 "http://www.w3.org/Graphics/SVG/1.1/DTD/svg11.dtd">
<!-- Generated by graphviz version 2.40.1 (20161225.0304)
 -->
<!-- Title: public.users_details Pages: 1 -->
<svg width="2040pt" height="952pt"
 viewBox="0.00 0.00 2040.00 952.00" xmlns="http://www.w3.org/2000/svg" xmlns:xlink="http://www.w3.org/1999/xlink">
<g id="graph0" class="graph" transform="scale(1 1) rotate(0) translate(4 948)">
<title>public.users_details</title>
<polygon fill="#ffffff" stroke="transparent" points="-4,4 -4,-948 2036,-948 2036,4 -4,4"/>
<!-- public.users_details -->
<g id="node1" class="node">
<title>public.users_details</title>
<polygon fill="#efefef" stroke="transparent" points="46.5,-862.5 46.5,-897.5 345.5,-897.5 345.5,-862.5 46.5,-862.5"/>
<polygon fill="none" stroke="#000000" points="46.5,-862.5 46.5,-897.5 345.5,-897.5 345.5,-862.5 46.5,-862.5"/>
<text text-anchor="start" x="53.2014" y="-875.3" font-family="Arial Bold" font-size="18.00" fill="#000000">public.users_details</text>
<text text-anchor="start" x="211.2306" y="-875.3" font-family="Arial" font-size="14.00" fill="#000000">    </text>
<text text-anchor="start" x="245.4354" y="-875.3" font-family="Arial" font-size="14.00" fill="#666666">[BASE TABLE]</text>
<polygon fill="none" stroke="#000000" points="46.5,-832.5 46.5,-862.5 345.5,-862.5 345.5,-832.5 46.5,-832.5"/>
<text text-anchor="start" x="53.5" y="-843.9" font-family="Arial" font-size="14.00" fill="#000000">id </text>
<text text-anchor="start" x="68.2798" y="-843.9" font-family="Arial" font-size="14.00" fill="#666666">[integer]</text>
<polygon fill="none" stroke="#000000" points="46.5,-802.5 46.5,-832.5 345.5,-832.5 345.5,-802.5 46.5,-802.5"/>
<text text-anchor="start" x="53.5" y="-813.9" font-family="Arial" font-size="14.00" fill="#000000">user_id </text>
<text text-anchor="start" x="103.2882" y="-813.9" font-family="Arial" font-size="14.00" fill="#666666">[integer]</text>
<polygon fill="none" stroke="#000000" points="46.5,-772.5 46.5,-802.5 345.5,-802.5 345.5,-772.5 46.5,-772.5"/>
<text text-anchor="start" x="53.5" y="-783.9" font-family="Arial" font-size="14.00" fill="#000000">name </text>
<text text-anchor="start" x="92.399" y="-783.9" font-family="Arial" font-size="14.00" fill="#666666">[varchar(255)]</text>
<polygon fill="none" stroke="#000000" points="46.5,-742.5 46.5,-772.5 345.5,-772.5 345.5,-742.5 46.5,-742.5"/>
<text text-anchor="start" x="53.5" y="-753.9" font-family="Arial" font-size="14.00" fill="#000000">age </text>
<text text-anchor="start" x="80.7384" y="-753.9" font-family="Arial" font-size="14.00" fill="#666666">[integer]</text>
<polygon fill="none" stroke="#000000" points="46.5,-712.5 46.5,-742.5 345.5,-742.5 345.5,-712.5 46.5,-712.5"/>
<text text-anchor="start" x="53.5" y="-723.9" font-family="Arial" font-size="14.00" fill="#000000">gender </text>
<text text-anchor="start" x="100.9642" y="-723.9" font-family="Arial" font-size="14.00" fill="#666666">[varchar(255)]</text>
<polygon fill="none" stroke="#000000" points="46.5,-682.5 46.5,-712.5 345.5,-712.5 345.5,-682.5 46.5,-682.5"/>
<text text-anchor="start" x="53.5" y="-693.9" font-family="Arial" font-size="14.00" fill="#000000">height </text>
<text text-anchor="start" x="95.5182" y="-693.9" font-family="Arial" font-size="14.00" fill="#666666">[integer]</text>
<polygon fill="none" stroke="#000000" points="46.5,-652.5 46.5,-682.5 345.5,-682.5 345.5,-652.5 46.5,-652.5"/>
<text text-anchor="start" x="53.5" y="-663.9" font-family="Arial" font-size="14.00" fill="#000000">location </text>
<text text-anchor="start" x="105.6248" y="-663.9" font-family="Arial" font-size="14.00" fill="#666666">[varchar(255)]</text>
<polygon fill="none" stroke="#000000" points="46.5,-622.5 46.5,-652.5 345.5,-652.5 345.5,-622.5 46.5,-622.5"/>
<text text-anchor="start" x="53.5" y="-633.9" font-family="Arial" font-size="14.00" fill="#000000">work </text>
<text text-anchor="start" x="86.9404" y="-633.9" font-family="Arial" font-size="14.00" fill="#666666">[varchar(255)]</text>
<polygon fill="none" stroke="#000000" points="46.5,-592.5 46.5,-622.5 345.5,-622.5 345.5,-592.5 46.5,-592.5"/>
<text text-anchor="start" x="53.5" y="-603.9" font-family="Arial" font-size="14.00" fill="#000000">graduation </text>
<text text-anchor="start" x="123.5266" y="-603.9" font-family="Arial" font-size="14.00" fill="#666666">[varchar(255)]</text>
<polygon fill="none" stroke="#000000" points="46.5,-562.5 46.5,-592.5 345.5,-592.5 345.5,-562.5 46.5,-562.5"/>
<text text-anchor="start" x="53.5" y="-573.9" font-family="Arial" font-size="14.00" fill="#000000">hobby </text>
<text text-anchor="start" x="95.521" y="-573.9" font-family="Arial" font-size="14.00" fill="#666666">[varchar(255)]</text>
<polygon fill="none" stroke="#000000" points="46.5,-532.5 46.5,-562.5 345.5,-562.5 345.5,-532.5 46.5,-532.5"/>
<text text-anchor="start" x="53.5" y="-543.9" font-family="Arial" font-size="14.00" fill="#000000">passion </text>
<text text-anchor="start" x="105.6276" y="-543.9" font-family="Arial" font-size="14.00" fill="#666666">[varchar(255)]</text>
<polygon fill="none" stroke="#000000" points="46.5,-502.5 46.5,-532.5 345.5,-532.5 345.5,-502.5 46.5,-502.5"/>
<text text-anchor="start" x="53.5" y="-513.9" font-family="Arial" font-size="14.00" fill="#000000">tweet </text>
<text text-anchor="start" x="90.8436" y="-513.9" font-family="Arial" font-size="14.00" fill="#666666">[varchar]</text>
<polygon fill="none" stroke="#000000" points="46.5,-472.5 46.5,-502.5 345.5,-502.5 345.5,-472.5 46.5,-472.5"/>
<text text-anchor="start" x="53.5" y="-483.9" font-family="Arial" font-size="14.00" fill="#000000">introduction </text>
<text text-anchor="start" x="129.7412" y="-483.9" font-family="Arial" font-size="14.00" fill="#666666">[varchar]</text>
<polygon fill="none" stroke="#000000" points="46.5,-442.5 46.5,-472.5 345.5,-472.5 345.5,-442.5 46.5,-442.5"/>
<text text-anchor="start" x="53.5" y="-453.9" font-family="Arial" font-size="14.00" fill="#000000">created_date </text>
<text text-anchor="start" x="139.0932" y="-453.9" font-family="Arial" font-size="14.00" fill="#666666">[timestamp without time zone]</text>
<polygon fill="none" stroke="#000000" points="46.5,-412.5 46.5,-442.5 345.5,-442.5 345.5,-412.5 46.5,-412.5"/>
<text text-anchor="start" x="53.5" y="-423.9" font-family="Arial" font-size="14.00" fill="#000000">updated_date </text>
<text text-anchor="start" x="142.9978" y="-423.9" font-family="Arial" font-size="14.00" fill="#666666">[timestamp without time zone]</text>
<polygon fill="none" stroke="#000000" stroke-width="3" points="44.5,-411.5 44.5,-899.5 346.5,-899.5 346.5,-411.5 44.5,-411.5"/>
</g>
<!-- public.users -->
<g id="node2" class="node">
<title>public.users</title>
<polygon fill="#efefef" stroke="transparent" points="841.5,-252.5 841.5,-287.5 1159.5,-287.5 1159.5,-252.5 841.5,-252.5"/>
<polygon fill="none" stroke="#000000" points="841.5,-252.5 841.5,-287.5 1159.5,-287.5 1159.5,-252.5 841.5,-252.5"/>
<text text-anchor="start" x="888.7091" y="-265.3" font-family="Arial Bold" font-size="18.00" fill="#000000">public.users</text>
<text text-anchor="start" x="984.7229" y="-265.3" font-family="Arial" font-size="14.00" fill="#000000">    </text>
<text text-anchor="start" x="1018.9277" y="-265.3" font-family="Arial" font-size="14.00" fill="#666666">[BASE TABLE]</text>
<polygon fill="none" stroke="#000000" points="841.5,-222.5 841.5,-252.5 1159.5,-252.5 1159.5,-222.5 841.5,-222.5"/>
<text text-anchor="start" x="848.5" y="-233.9" font-family="Arial" font-size="14.00" fill="#000000">id    </text>
<text text-anchor="start" x="893.594" y="-233.9" font-family="Arial" font-size="14.00" fill="#666666">[integer]</text>
<polygon fill="none" stroke="#000000" points="841.5,-192.5 841.5,-222.5 1159.5,-222.5 1159.5,-192.5 841.5,-192.5"/>
<text text-anchor="start" x="848.5" y="-203.9" font-family="Arial" font-size="14.00" fill="#000000">user_name    </text>
<text text-anchor="start" x="952.7216" y="-203.9" font-family="Arial" font-size="14.00" fill="#666666">[varchar(255)]</text>
<polygon fill="none" stroke="#000000" points="841.5,-162.5 841.5,-192.5 1159.5,-192.5 1159.5,-162.5 841.5,-162.5"/>
<text text-anchor="start" x="848.5" y="-173.9" font-family="Arial" font-size="14.00" fill="#000000">hashed_password    </text>
<text text-anchor="start" x="996.298" y="-173.9" font-family="Arial" font-size="14.00" fill="#666666">[varchar(255)]</text>
<polygon fill="none" stroke="#000000" points="841.5,-132.5 841.5,-162.5 1159.5,-162.5 1159.5,-132.5 841.5,-132.5"/>
<text text-anchor="start" x="848.5" y="-143.9" font-family="Arial" font-size="14.00" fill="#000000">status    </text>
<text text-anchor="start" x="920.0512" y="-143.9" font-family="Arial" font-size="14.00" fill="#666666">[integer]</text>
<polygon fill="none" stroke="#000000" points="841.5,-102.5 841.5,-132.5 1159.5,-132.5 1159.5,-102.5 841.5,-102.5"/>
<text text-anchor="start" x="848.5" y="-113.9" font-family="Arial" font-size="14.00" fill="#000000">email    </text>
<text text-anchor="start" x="916.1438" y="-113.9" font-family="Arial" font-size="14.00" fill="#666666">[varchar(255)]</text>
<polygon fill="none" stroke="#000000" points="841.5,-72.5 841.5,-102.5 1159.5,-102.5 1159.5,-72.5 841.5,-72.5"/>
<text text-anchor="start" x="848.5" y="-83.9" font-family="Arial" font-size="14.00" fill="#000000">created_date    </text>
<text text-anchor="start" x="964.4074" y="-83.9" font-family="Arial" font-size="14.00" fill="#666666">[timestamp without time zone]</text>
<polygon fill="none" stroke="#000000" points="841.5,-42.5 841.5,-72.5 1159.5,-72.5 1159.5,-42.5 841.5,-42.5"/>
<text text-anchor="start" x="848.0239" y="-53.9" font-family="Arial" font-size="14.00" fill="#000000">updated_date    </text>
<text text-anchor="start" x="967.8359" y="-53.9" font-family="Arial" font-size="14.00" fill="#666666">[timestamp without time zone]</text>
</g>
<!-- public.users_details&#45;&gt;public.users -->
<g id="edge1" class="edge">
<title>public.users_details:user_id&#45;&gt;public.users:id</title>
<path fill="none" stroke="#000000" d="M355.6145,-816.0685C438.4668,-790.8925 336.7032,-441.1715 399.5,-367 465.6352,-288.8854 739.1488,-237.5 841.5,-237.5"/>
<polygon fill="#000000" stroke="#000000" points="355.4013,-816.0986 344.8694,-813.0444 350.4507,-816.7993 345.5,-817.5 345.5,-817.5 345.5,-817.5 350.4507,-816.7993 346.1306,-821.9556 355.4013,-816.0986 355.4013,-816.0986"/>
<text text-anchor="start" x="352.8345" y="-827.5" font-family="Arial" font-size="10.00" fill="#000000">FOREIGN KEY (user_id) REFERENCES users(id)</text>
</g>
<!-- public.likes -->
<g id="node3" class="node">
<title>public.likes</title>
<polygon fill="#efefef" stroke="transparent" points="452.5,-712.5 452.5,-747.5 749.5,-747.5 749.5,-712.5 452.5,-712.5"/>
<polygon fill="none" stroke="#000000" points="452.5,-712.5 452.5,-747.5 749.5,-747.5 749.5,-712.5 452.5,-712.5"/>
<text text-anchor="start" x="493.2141" y="-725.3" font-family="Arial Bold" font-size="18.00" fill="#000000">public.likes</text>
<text text-anchor="start" x="581.2179" y="-725.3" font-family="Arial" font-size="14.00" fill="#000000">    </text>
<text text-anchor="start" x="615.4227" y="-725.3" font-family="Arial" font-size="14.00" fill="#666666">[BASE TABLE]</text>
<polygon fill="none" stroke="#000000" points="452.5,-682.5 452.5,-712.5 749.5,-712.5 749.5,-682.5 452.5,-682.5"/>
<text text-anchor="start" x="459.5" y="-693.9" font-family="Arial" font-size="14.00" fill="#000000">user_id    </text>
<text text-anchor="start" x="539.6024" y="-693.9" font-family="Arial" font-size="14.00" fill="#666666">[integer]</text>
<polygon fill="none" stroke="#000000" points="452.5,-652.5 452.5,-682.5 749.5,-682.5 749.5,-652.5 452.5,-652.5"/>
<text text-anchor="start" x="459.5" y="-663.9" font-family="Arial" font-size="14.00" fill="#000000">liked_user_id    </text>
<text text-anchor="start" x="576.1634" y="-663.9" font-family="Arial" font-size="14.00" fill="#666666">[integer]</text>
<polygon fill="none" stroke="#000000" points="452.5,-622.5 452.5,-652.5 749.5,-652.5 749.5,-622.5 452.5,-622.5"/>
<text text-anchor="start" x="459.4278" y="-633.9" font-family="Arial" font-size="14.00" fill="#000000">liked_date    </text>
<text text-anchor="start" x="557.432" y="-633.9" font-family="Arial" font-size="14.00" fill="#666666">[timestamp without time zone]</text>
<polygon fill="none" stroke="#000000" points="452.5,-592.5 452.5,-622.5 749.5,-622.5 749.5,-592.5 452.5,-592.5"/>
<text text-anchor="start" x="459.5" y="-603.9" font-family="Arial" font-size="14.00" fill="#000000">status    </text>
<text text-anchor="start" x="531.0512" y="-603.9" font-family="Arial" font-size="14.00" fill="#666666">[integer]</text>
<polygon fill="none" stroke="#000000" points="452.5,-562.5 452.5,-592.5 749.5,-592.5 749.5,-562.5 452.5,-562.5"/>
<text text-anchor="start" x="459.5" y="-573.9" font-family="Arial" font-size="14.00" fill="#000000">message_body    </text>
<text text-anchor="start" x="588.6262" y="-573.9" font-family="Arial" font-size="14.00" fill="#666666">[varchar(255)]</text>
</g>
<!-- public.likes&#45;&gt;public.users -->
<g id="edge2" class="edge">
<title>public.likes:liked_user_id&#45;&gt;public.users:id</title>
<path fill="none" stroke="#000000" d="M759.5683,-665.7675C839.8183,-636.1781 747.4081,-237.5 841.5,-237.5"/>
<polygon fill="#000000" stroke="#000000" points="759.3552,-665.8041 748.7368,-663.0652 754.4276,-666.652 749.5,-667.5 749.5,-667.5 749.5,-667.5 754.4276,-666.652 750.2632,-671.9348 759.3552,-665.8041 759.3552,-665.8041"/>
<text text-anchor="start" x="756.777" y="-677.5" font-family="Arial" font-size="10.00" fill="#000000">FOREIGN KEY (liked_user_id) REFERENCES users(id)</text>
</g>
<!-- public.likes&#45;&gt;public.users -->
<g id="edge3" class="edge">
<title>public.likes:user_id&#45;&gt;public.users:id</title>
<path fill="none" stroke="#000000" d="M759.4333,-695.9245C846.0411,-666.5921 740.8165,-237.5 841.5,-237.5"/>
<polygon fill="#000000" stroke="#000000" points="759.3766,-695.9335 748.7951,-693.0556 754.4383,-696.7167 749.5,-697.5 749.5,-697.5 749.5,-697.5 754.4383,-696.7167 750.2049,-701.9444 759.3766,-695.9335 759.3766,-695.9335"/>
<text text-anchor="start" x="756.8345" y="-707.5" font-family="Arial" font-size="10.00" fill="#000000">FOREIGN KEY (user_id) REFERENCES users(id)</text>
</g>
<!-- public.messages -->
<g id="node4" class="node">
<title>public.messages</title>
<polygon fill="#efefef" stroke="transparent" points="853.5,-727.5 853.5,-762.5 1147.5,-762.5 1147.5,-727.5 853.5,-727.5"/>
<polygon fill="none" stroke="#000000" points="853.5,-727.5 853.5,-762.5 1147.5,-762.5 1147.5,-727.5 853.5,-727.5"/>
<text text-anchor="start" x="869.7029" y="-740.3" font-family="Arial Bold" font-size="18.00" fill="#000000">public.messages</text>
<text text-anchor="start" x="1003.7291" y="-740.3" font-family="Arial" font-size="14.00" fill="#000000">    </text>
<text text-anchor="start" x="1037.9339" y="-740.3" font-family="Arial" font-size="14.00" fill="#666666">[BASE TABLE]</text>
<polygon fill="none" stroke="#000000" points="853.5,-697.5 853.5,-727.5 1147.5,-727.5 1147.5,-697.5 853.5,-697.5"/>
<text text-anchor="start" x="860.5" y="-708.9" font-family="Arial" font-size="14.00" fill="#000000">id    </text>
<text text-anchor="start" x="905.594" y="-708.9" font-family="Arial" font-size="14.00" fill="#666666">[integer]</text>
<polygon fill="none" stroke="#000000" points="853.5,-667.5 853.5,-697.5 1147.5,-697.5 1147.5,-667.5 853.5,-667.5"/>
<text text-anchor="start" x="860.5" y="-678.9" font-family="Arial" font-size="14.00" fill="#000000">sender_user_id    </text>
<text text-anchor="start" x="991.176" y="-678.9" font-family="Arial" font-size="14.00" fill="#666666">[integer]</text>
<polygon fill="none" stroke="#000000" points="853.5,-637.5 853.5,-667.5 1147.5,-667.5 1147.5,-637.5 853.5,-637.5"/>
<text text-anchor="start" x="860.5" y="-648.9" font-family="Arial" font-size="14.00" fill="#000000">receiver_user_id    </text>
<text text-anchor="start" x="998.1606" y="-648.9" font-family="Arial" font-size="14.00" fill="#666666">[integer]</text>
<polygon fill="none" stroke="#000000" points="853.5,-607.5 853.5,-637.5 1147.5,-637.5 1147.5,-607.5 853.5,-607.5"/>
<text text-anchor="start" x="860.5" y="-618.9" font-family="Arial" font-size="14.00" fill="#000000">message_body    </text>
<text text-anchor="start" x="989.6262" y="-618.9" font-family="Arial" font-size="14.00" fill="#666666">[varchar(255)]</text>
<polygon fill="none" stroke="#000000" points="853.5,-577.5 853.5,-607.5 1147.5,-607.5 1147.5,-577.5 853.5,-577.5"/>
<text text-anchor="start" x="860.5" y="-588.9" font-family="Arial" font-size="14.00" fill="#000000">status    </text>
<text text-anchor="start" x="932.0512" y="-588.9" font-family="Arial" font-size="14.00" fill="#666666">[integer]</text>
<polygon fill="none" stroke="#000000" points="853.5,-547.5 853.5,-577.5 1147.5,-577.5 1147.5,-547.5 853.5,-547.5"/>
<text text-anchor="start" x="860.0891" y="-558.9" font-family="Arial" font-size="14.00" fill="#000000">sent_date    </text>
<text text-anchor="start" x="955.7707" y="-558.9" font-family="Arial" font-size="14.00" fill="#666666">[timestamp without time zone]</text>
</g>
<!-- public.messages&#45;&gt;public.users -->
<g id="edge4" class="edge">
<title>public.messages:receiver_user_id&#45;&gt;public.users:id</title>
<path fill="none" stroke="#000000" d="M1156.2315,-647.2529C1194.9678,-599.2129 1202.567,-237.5 1159.5,-237.5"/>
<polygon fill="#000000" stroke="#000000" points="1156.0714,-647.349 1145.1821,-648.6429 1151.7857,-649.9245 1147.5,-652.5 1147.5,-652.5 1147.5,-652.5 1151.7857,-649.9245 1149.8179,-656.3571 1156.0714,-647.349 1156.0714,-647.349"/>
<text text-anchor="start" x="1154.278" y="-662.5" font-family="Arial" font-size="10.00" fill="#000000">FOREIGN KEY (receiver_user_id) REFERENCES users(id)</text>
</g>
<!-- public.messages&#45;&gt;public.users -->
<g id="edge5" class="edge">
<title>public.messages:sender_user_id&#45;&gt;public.users:id</title>
<path fill="none" stroke="#000000" d="M1156.3293,-677.5024C1198.2223,-628.6133 1205.871,-237.5 1159.5,-237.5"/>
<polygon fill="#000000" stroke="#000000" points="1156.2027,-677.5741 1145.2833,-678.5838 1151.8513,-680.037 1147.5,-682.5 1147.5,-682.5 1147.5,-682.5 1151.8513,-680.037 1149.7167,-686.4162 1156.2027,-677.5741 1156.2027,-677.5741"/>
<text text-anchor="start" x="1154.7725" y="-692.5" font-family="Arial" font-size="10.00" fill="#000000">FOREIGN KEY (sender_user_id) REFERENCES users(id)</text>
</g>
<!-- public.boards -->
<g id="node5" class="node">
<title>public.boards</title>
<polygon fill="#efefef" stroke="transparent" points="1251.5,-712.5 1251.5,-747.5 1569.5,-747.5 1569.5,-712.5 1251.5,-712.5"/>
<polygon fill="none" stroke="#000000" points="1251.5,-712.5 1251.5,-747.5 1569.5,-747.5 1569.5,-712.5 1251.5,-712.5"/>
<text text-anchor="start" x="1293.2029" y="-725.3" font-family="Arial Bold" font-size="18.00" fill="#000000">public.boards</text>
<text text-anchor="start" x="1400.2291" y="-725.3" font-family="Arial" font-size="14.00" fill="#000000">    </text>
<text text-anchor="start" x="1434.4339" y="-725.3" font-family="Arial" font-size="14.00" fill="#666666">[BASE TABLE]</text>
<polygon fill="none" stroke="#000000" points="1251.5,-682.5 1251.5,-712.5 1569.5,-712.5 1569.5,-682.5 1251.5,-682.5"/>
<text text-anchor="start" x="1258.5" y="-693.9" font-family="Arial" font-size="14.00" fill="#000000">id    </text>
<text text-anchor="start" x="1303.594" y="-693.9" font-family="Arial" font-size="14.00" fill="#666666">[integer]</text>
<polygon fill="none" stroke="#000000" points="1251.5,-652.5 1251.5,-682.5 1569.5,-682.5 1569.5,-652.5 1251.5,-652.5"/>
<text text-anchor="start" x="1258.5" y="-663.9" font-family="Arial" font-size="14.00" fill="#000000">user_id    </text>
<text text-anchor="start" x="1338.6024" y="-663.9" font-family="Arial" font-size="14.00" fill="#666666">[integer]</text>
<polygon fill="none" stroke="#000000" points="1251.5,-622.5 1251.5,-652.5 1569.5,-652.5 1569.5,-622.5 1251.5,-622.5"/>
<text text-anchor="start" x="1258.5" y="-633.9" font-family="Arial" font-size="14.00" fill="#000000">body    </text>
<text text-anchor="start" x="1323.0526" y="-633.9" font-family="Arial" font-size="14.00" fill="#666666">[varchar(255)]</text>
<polygon fill="none" stroke="#000000" points="1251.5,-592.5 1251.5,-622.5 1569.5,-622.5 1569.5,-592.5 1251.5,-592.5"/>
<text text-anchor="start" x="1258.5" y="-603.9" font-family="Arial" font-size="14.00" fill="#000000">created_date    </text>
<text text-anchor="start" x="1374.4074" y="-603.9" font-family="Arial" font-size="14.00" fill="#666666">[timestamp without time zone]</text>
<polygon fill="none" stroke="#000000" points="1251.5,-562.5 1251.5,-592.5 1569.5,-592.5 1569.5,-562.5 1251.5,-562.5"/>
<text text-anchor="start" x="1258.0239" y="-573.9" font-family="Arial" font-size="14.00" fill="#000000">updated_date    </text>
<text text-anchor="start" x="1377.8359" y="-573.9" font-family="Arial" font-size="14.00" fill="#666666">[timestamp without time zone]</text>
</g>
<!-- public.boards&#45;&gt;public.users -->
<g id="edge6" class="edge">
<title>public.boards:user_id&#45;&gt;public.users:id</title>
<path fill="none" stroke="#000000" d="M1241.4317,-665.7675C1161.1817,-636.1781 1253.5919,-237.5 1159.5,-237.5"/>
<polygon fill="#000000" stroke="#000000" points="1241.6448,-665.8041 1250.7368,-671.9348 1246.5724,-666.652 1251.5,-667.5 1251.5,-667.5 1251.5,-667.5 1246.5724,-666.652 1252.2632,-663.0652 1241.6448,-665.8041 1241.6448,-665.8041"/>
<text text-anchor="start" x="1081.0845" y="-651.5" font-family="Arial" font-size="10.00" fill="#000000">FOREIGN KEY (user_id) REFERENCES users(id)</text>
</g>
<!-- public.sessions -->
<g id="node6" class="node">
<title>public.sessions</title>
<polygon fill="#efefef" stroke="transparent" points="1674.5,-757.5 1674.5,-792.5 1989.5,-792.5 1989.5,-757.5 1674.5,-757.5"/>
<polygon fill="none" stroke="#000000" points="1674.5,-757.5 1674.5,-792.5 1989.5,-792.5 1989.5,-757.5 1674.5,-757.5"/>
<text text-anchor="start" x="1707.205" y="-770.3" font-family="Arial Bold" font-size="18.00" fill="#000000">public.sessions</text>
<text text-anchor="start" x="1829.227" y="-770.3" font-family="Arial" font-size="14.00" fill="#000000">    </text>
<text text-anchor="start" x="1863.4318" y="-770.3" font-family="Arial" font-size="14.00" fill="#666666">[BASE TABLE]</text>
<polygon fill="none" stroke="#000000" points="1674.5,-727.5 1674.5,-757.5 1989.5,-757.5 1989.5,-727.5 1674.5,-727.5"/>
<text text-anchor="start" x="1681.5" y="-738.9" font-family="Arial" font-size="14.00" fill="#000000">id    </text>
<text text-anchor="start" x="1726.594" y="-738.9" font-family="Arial" font-size="14.00" fill="#666666">[uuid]</text>
<polygon fill="none" stroke="#000000" points="1674.5,-697.5 1674.5,-727.5 1989.5,-727.5 1989.5,-697.5 1674.5,-697.5"/>
<text text-anchor="start" x="1681.5" y="-708.9" font-family="Arial" font-size="14.00" fill="#000000">user_name    </text>
<text text-anchor="start" x="1785.7216" y="-708.9" font-family="Arial" font-size="14.00" fill="#666666">[varchar(255)]</text>
<polygon fill="none" stroke="#000000" points="1674.5,-667.5 1674.5,-697.5 1989.5,-697.5 1989.5,-667.5 1674.5,-667.5"/>
<text text-anchor="start" x="1681.5" y="-678.9" font-family="Arial" font-size="14.00" fill="#000000">refresh_token    </text>
<text text-anchor="start" x="1801.2854" y="-678.9" font-family="Arial" font-size="14.00" fill="#666666">[varchar]</text>
<polygon fill="none" stroke="#000000" points="1674.5,-637.5 1674.5,-667.5 1989.5,-667.5 1989.5,-637.5 1674.5,-637.5"/>
<text text-anchor="start" x="1681.5" y="-648.9" font-family="Arial" font-size="14.00" fill="#000000">user_agent    </text>
<text text-anchor="start" x="1785.7342" y="-648.9" font-family="Arial" font-size="14.00" fill="#666666">[varchar]</text>
<polygon fill="none" stroke="#000000" points="1674.5,-607.5 1674.5,-637.5 1989.5,-637.5 1989.5,-607.5 1674.5,-607.5"/>
<text text-anchor="start" x="1681.5" y="-618.9" font-family="Arial" font-size="14.00" fill="#000000">client_ip    </text>
<text text-anchor="start" x="1767.0456" y="-618.9" font-family="Arial" font-size="14.00" fill="#666666">[varchar]</text>
<polygon fill="none" stroke="#000000" points="1674.5,-577.5 1674.5,-607.5 1989.5,-607.5 1989.5,-577.5 1674.5,-577.5"/>
<text text-anchor="start" x="1681.5" y="-588.9" font-family="Arial" font-size="14.00" fill="#000000">is_blocked    </text>
<text text-anchor="start" x="1781.831" y="-588.9" font-family="Arial" font-size="14.00" fill="#666666">[boolean]</text>
<polygon fill="none" stroke="#000000" points="1674.5,-547.5 1674.5,-577.5 1989.5,-577.5 1989.5,-547.5 1674.5,-547.5"/>
<text text-anchor="start" x="1681.5" y="-558.9" font-family="Arial" font-size="14.00" fill="#000000">expires_date    </text>
<text text-anchor="start" x="1795.8408" y="-558.9" font-family="Arial" font-size="14.00" fill="#666666">[timestamp without time zone]</text>
<polygon fill="none" stroke="#000000" points="1674.5,-517.5 1674.5,-547.5 1989.5,-547.5 1989.5,-517.5 1674.5,-517.5"/>
<text text-anchor="start" x="1681.4762" y="-528.9" font-family="Arial" font-size="14.00" fill="#000000">created_date    </text>
<text text-anchor="start" x="1797.3836" y="-528.9" font-family="Arial" font-size="14.00" fill="#666666">[timestamp without time zone]</text>
</g>
<!-- public.sessions&#45;&gt;public.users -->
<g id="edge7" class="edge">
<title>public.sessions:user_name&#45;&gt;public.users:user_name</title>
<path fill="none" stroke="#000000" d="M1664.5511,-710.6684C1603.5296,-686.1981 1668.9274,-423.8489 1621.5,-367 1551.9215,-283.5998 1268.1129,-207.5 1159.5,-207.5"/>
<polygon fill="#000000" stroke="#000000" points="1664.6653,-710.6894 1673.6852,-716.9256 1669.5826,-711.5947 1674.5,-712.5 1674.5,-712.5 1674.5,-712.5 1669.5826,-711.5947 1675.3148,-708.0744 1664.6653,-710.6894 1664.6653,-710.6894"/>
<text text-anchor="start" x="1681.1035" y="-722.5" font-family="Arial" font-size="10.00" fill="#000000">FOREIGN KEY (user_name) REFERENCES users(user_name)</text>
</g>
</g>
</svg>
