<?xml version="1.0" encoding="UTF-8" standalone="no"?>
<!DOCTYPE svg PUBLIC "-//W3C//DTD SVG 1.1//EN"
 "http://www.w3.org/Graphics/SVG/1.1/DTD/svg11.dtd">
<!-- Generated by graphviz version 2.40.1 (20161225.0304)
 -->
<!-- Title: public.messages Pages: 1 -->
<svg width="2041pt" height="946pt"
 viewBox="0.00 0.00 2041.00 946.00" xmlns="http://www.w3.org/2000/svg" xmlns:xlink="http://www.w3.org/1999/xlink">
<g id="graph0" class="graph" transform="scale(1 1) rotate(0) translate(4 942)">
<title>public.messages</title>
<polygon fill="#ffffff" stroke="transparent" points="-4,4 -4,-942 2037,-942 2037,4 -4,4"/>
<!-- public.messages -->
<g id="node1" class="node">
<title>public.messages</title>
<polygon fill="#efefef" stroke="transparent" points="46.5,-724.5 46.5,-759.5 321.5,-759.5 321.5,-724.5 46.5,-724.5"/>
<polygon fill="none" stroke="#000000" points="46.5,-724.5 46.5,-759.5 321.5,-759.5 321.5,-724.5 46.5,-724.5"/>
<text text-anchor="start" x="53.2029" y="-737.3" font-family="Arial Bold" font-size="18.00" fill="#000000">public.messages</text>
<text text-anchor="start" x="187.2291" y="-737.3" font-family="Arial" font-size="14.00" fill="#000000">    </text>
<text text-anchor="start" x="221.4339" y="-737.3" font-family="Arial" font-size="14.00" fill="#666666">[BASE TABLE]</text>
<polygon fill="none" stroke="#000000" points="46.5,-694.5 46.5,-724.5 321.5,-724.5 321.5,-694.5 46.5,-694.5"/>
<text text-anchor="start" x="53.5" y="-705.9" font-family="Arial" font-size="14.00" fill="#000000">id </text>
<text text-anchor="start" x="68.2798" y="-705.9" font-family="Arial" font-size="14.00" fill="#666666">[integer]</text>
<polygon fill="none" stroke="#000000" points="46.5,-664.5 46.5,-694.5 321.5,-694.5 321.5,-664.5 46.5,-664.5"/>
<text text-anchor="start" x="53.5" y="-675.9" font-family="Arial" font-size="14.00" fill="#000000">sender_user_id </text>
<text text-anchor="start" x="153.8618" y="-675.9" font-family="Arial" font-size="14.00" fill="#666666">[integer]</text>
<polygon fill="none" stroke="#000000" points="46.5,-634.5 46.5,-664.5 321.5,-664.5 321.5,-634.5 46.5,-634.5"/>
<text text-anchor="start" x="53.5" y="-645.9" font-family="Arial" font-size="14.00" fill="#000000">receiver_user_id </text>
<text text-anchor="start" x="160.8464" y="-645.9" font-family="Arial" font-size="14.00" fill="#666666">[integer]</text>
<polygon fill="none" stroke="#000000" points="46.5,-604.5 46.5,-634.5 321.5,-634.5 321.5,-604.5 46.5,-604.5"/>
<text text-anchor="start" x="53.5" y="-615.9" font-family="Arial" font-size="14.00" fill="#000000">message_body </text>
<text text-anchor="start" x="152.312" y="-615.9" font-family="Arial" font-size="14.00" fill="#666666">[varchar(255)]</text>
<polygon fill="none" stroke="#000000" points="46.5,-574.5 46.5,-604.5 321.5,-604.5 321.5,-574.5 46.5,-574.5"/>
<text text-anchor="start" x="53.5" y="-585.9" font-family="Arial" font-size="14.00" fill="#000000">status </text>
<text text-anchor="start" x="94.737" y="-585.9" font-family="Arial" font-size="14.00" fill="#666666">[integer]</text>
<polygon fill="none" stroke="#000000" points="46.5,-544.5 46.5,-574.5 321.5,-574.5 321.5,-544.5 46.5,-544.5"/>
<text text-anchor="start" x="53.5" y="-555.9" font-family="Arial" font-size="14.00" fill="#000000">sent_date </text>
<text text-anchor="start" x="118.8674" y="-555.9" font-family="Arial" font-size="14.00" fill="#666666">[timestamp without time zone]</text>
<polygon fill="none" stroke="#000000" stroke-width="3" points="44.5,-543.5 44.5,-761.5 322.5,-761.5 322.5,-543.5 44.5,-543.5"/>
</g>
<!-- public.users -->
<g id="node2" class="node">
<title>public.users</title>
<polygon fill="#efefef" stroke="transparent" points="841.5,-252.5 841.5,-287.5 1159.5,-287.5 1159.5,-252.5 841.5,-252.5"/>
<polygon fill="none" stroke="#000000" points="841.5,-252.5 841.5,-287.5 1159.5,-287.5 1159.5,-252.5 841.5,-252.5"/>
<text text-anchor="start" x="888.7091" y="-265.3" font-family="Arial Bold" font-size="18.00" fill="#000000">public.users</text>
<text text-anchor="start" x="984.7229" y="-265.3" font-family="Arial" font-size="14.00" fill="#000000">    </text>
<text text-anchor="start" x="1018.9277" y="-265.3" font-family="Arial" font-size="14.00" fill="#666666">[BASE TABLE]</text>
<polygon fill="none" stroke="#000000" points="841.5,-222.5 841.5,-252.5 1159.5,-252.5 1159.5,-222.5 841.5,-222.5"/>
<text text-anchor="start" x="848.5" y="-233.9" font-family="Arial" font-size="14.00" fill="#000000">id    </text>
<text text-anchor="start" x="893.594" y="-233.9" font-family="Arial" font-size="14.00" fill="#666666">[integer]</text>
<polygon fill="none" stroke="#000000" points="841.5,-192.5 841.5,-222.5 1159.5,-222.5 1159.5,-192.5 841.5,-192.5"/>
<text text-anchor="start" x="848.5" y="-203.9" font-family="Arial" font-size="14.00" fill="#000000">user_name    </text>
<text text-anchor="start" x="952.7216" y="-203.9" font-family="Arial" font-size="14.00" fill="#666666">[varchar(255)]</text>
<polygon fill="none" stroke="#000000" points="841.5,-162.5 841.5,-192.5 1159.5,-192.5 1159.5,-162.5 841.5,-162.5"/>
<text text-anchor="start" x="848.5" y="-173.9" font-family="Arial" font-size="14.00" fill="#000000">hashed_password    </text>
<text text-anchor="start" x="996.298" y="-173.9" font-family="Arial" font-size="14.00" fill="#666666">[varchar(255)]</text>
<polygon fill="none" stroke="#000000" points="841.5,-132.5 841.5,-162.5 1159.5,-162.5 1159.5,-132.5 841.5,-132.5"/>
<text text-anchor="start" x="848.5" y="-143.9" font-family="Arial" font-size="14.00" fill="#000000">status    </text>
<text text-anchor="start" x="920.0512" y="-143.9" font-family="Arial" font-size="14.00" fill="#666666">[integer]</text>
<polygon fill="none" stroke="#000000" points="841.5,-102.5 841.5,-132.5 1159.5,-132.5 1159.5,-102.5 841.5,-102.5"/>
<text text-anchor="start" x="848.5" y="-113.9" font-family="Arial" font-size="14.00" fill="#000000">email    </text>
<text text-anchor="start" x="916.1438" y="-113.9" font-family="Arial" font-size="14.00" fill="#666666">[varchar(255)]</text>
<polygon fill="none" stroke="#000000" points="841.5,-72.5 841.5,-102.5 1159.5,-102.5 1159.5,-72.5 841.5,-72.5"/>
<text text-anchor="start" x="848.5" y="-83.9" font-family="Arial" font-size="14.00" fill="#000000">created_date    </text>
<text text-anchor="start" x="964.4074" y="-83.9" font-family="Arial" font-size="14.00" fill="#666666">[timestamp without time zone]</text>
<polygon fill="none" stroke="#000000" points="841.5,-42.5 841.5,-72.5 1159.5,-72.5 1159.5,-42.5 841.5,-42.5"/>
<text text-anchor="start" x="848.0239" y="-53.9" font-family="Arial" font-size="14.00" fill="#000000">updated_date    </text>
<text text-anchor="start" x="967.8359" y="-53.9" font-family="Arial" font-size="14.00" fill="#666666">[timestamp without time zone]</text>
</g>
<!-- public.messages&#45;&gt;public.users -->
<g id="edge1" class="edge">
<title>public.messages:sender_user_id&#45;&gt;public.users:id</title>
<path fill="none" stroke="#000000" d="M331.578,-677.3973C385.686,-652.6279 331.625,-416.4732 376.5,-367 448.5662,-287.5494 734.2343,-237.5 841.5,-237.5"/>
<polygon fill="#000000" stroke="#000000" points="331.2892,-677.4575 320.5809,-675.0949 326.3946,-678.4787 321.5,-679.5 321.5,-679.5 321.5,-679.5 326.3946,-678.4787 322.4191,-683.9051 331.2892,-677.4575 331.2892,-677.4575"/>
<text text-anchor="start" x="328.7725" y="-689.5" font-family="Arial" font-size="10.00" fill="#000000">FOREIGN KEY (sender_user_id) REFERENCES users(id)</text>
</g>
<!-- public.messages&#45;&gt;public.users -->
<g id="edge5" class="edge">
<title>public.messages:receiver_user_id&#45;&gt;public.users:id</title>
<path fill="none" stroke="#000000" d="M331.6877,-649.0528C440.565,-638.897 292.1675,-458.3025 376.5,-367 449.281,-288.2037 734.2343,-237.5 841.5,-237.5"/>
<polygon fill="#000000" stroke="#000000" points="331.4904,-649.0614 321.3026,-645.0043 326.4952,-649.2807 321.5,-649.5 321.5,-649.5 321.5,-649.5 326.4952,-649.2807 321.6974,-653.9957 331.4904,-649.0614 331.4904,-649.0614"/>
<text text-anchor="start" x="328.278" y="-659.5" font-family="Arial" font-size="10.00" fill="#000000">FOREIGN KEY (receiver_user_id) REFERENCES users(id)</text>
</g>
<!-- public.users_details -->
<g id="node3" class="node">
<title>public.users_details</title>
<polygon fill="#efefef" stroke="transparent" points="428.5,-859.5 428.5,-894.5 746.5,-894.5 746.5,-859.5 428.5,-859.5"/>
<polygon fill="none" stroke="#000000" points="428.5,-859.5 428.5,-894.5 746.5,-894.5 746.5,-859.5 428.5,-859.5"/>
<text text-anchor="start" x="444.7014" y="-872.3" font-family="Arial Bold" font-size="18.00" fill="#000000">public.users_details</text>
<text text-anchor="start" x="602.7306" y="-872.3" font-family="Arial" font-size="14.00" fill="#000000">    </text>
<text text-anchor="start" x="636.9354" y="-872.3" font-family="Arial" font-size="14.00" fill="#666666">[BASE TABLE]</text>
<polygon fill="none" stroke="#000000" points="428.5,-829.5 428.5,-859.5 746.5,-859.5 746.5,-829.5 428.5,-829.5"/>
<text text-anchor="start" x="435.5" y="-840.9" font-family="Arial" font-size="14.00" fill="#000000">id    </text>
<text text-anchor="start" x="480.594" y="-840.9" font-family="Arial" font-size="14.00" fill="#666666">[integer]</text>
<polygon fill="none" stroke="#000000" points="428.5,-799.5 428.5,-829.5 746.5,-829.5 746.5,-799.5 428.5,-799.5"/>
<text text-anchor="start" x="435.5" y="-810.9" font-family="Arial" font-size="14.00" fill="#000000">user_id    </text>
<text text-anchor="start" x="515.6024" y="-810.9" font-family="Arial" font-size="14.00" fill="#666666">[integer]</text>
<polygon fill="none" stroke="#000000" points="428.5,-769.5 428.5,-799.5 746.5,-799.5 746.5,-769.5 428.5,-769.5"/>
<text text-anchor="start" x="435.5" y="-780.9" font-family="Arial" font-size="14.00" fill="#000000">name    </text>
<text text-anchor="start" x="504.7132" y="-780.9" font-family="Arial" font-size="14.00" fill="#666666">[varchar(255)]</text>
<polygon fill="none" stroke="#000000" points="428.5,-739.5 428.5,-769.5 746.5,-769.5 746.5,-739.5 428.5,-739.5"/>
<text text-anchor="start" x="435.5" y="-750.9" font-family="Arial" font-size="14.00" fill="#000000">age    </text>
<text text-anchor="start" x="493.0526" y="-750.9" font-family="Arial" font-size="14.00" fill="#666666">[integer]</text>
<polygon fill="none" stroke="#000000" points="428.5,-709.5 428.5,-739.5 746.5,-739.5 746.5,-709.5 428.5,-709.5"/>
<text text-anchor="start" x="435.5" y="-720.9" font-family="Arial" font-size="14.00" fill="#000000">gender    </text>
<text text-anchor="start" x="513.2784" y="-720.9" font-family="Arial" font-size="14.00" fill="#666666">[varchar(255)]</text>
<polygon fill="none" stroke="#000000" points="428.5,-679.5 428.5,-709.5 746.5,-709.5 746.5,-679.5 428.5,-679.5"/>
<text text-anchor="start" x="435.5" y="-690.9" font-family="Arial" font-size="14.00" fill="#000000">height    </text>
<text text-anchor="start" x="507.8324" y="-690.9" font-family="Arial" font-size="14.00" fill="#666666">[integer]</text>
<polygon fill="none" stroke="#000000" points="428.5,-649.5 428.5,-679.5 746.5,-679.5 746.5,-649.5 428.5,-649.5"/>
<text text-anchor="start" x="435.5" y="-660.9" font-family="Arial" font-size="14.00" fill="#000000">location    </text>
<text text-anchor="start" x="517.939" y="-660.9" font-family="Arial" font-size="14.00" fill="#666666">[varchar(255)]</text>
<polygon fill="none" stroke="#000000" points="428.5,-619.5 428.5,-649.5 746.5,-649.5 746.5,-619.5 428.5,-619.5"/>
<text text-anchor="start" x="435.5" y="-630.9" font-family="Arial" font-size="14.00" fill="#000000">work    </text>
<text text-anchor="start" x="499.2546" y="-630.9" font-family="Arial" font-size="14.00" fill="#666666">[varchar(255)]</text>
<polygon fill="none" stroke="#000000" points="428.5,-589.5 428.5,-619.5 746.5,-619.5 746.5,-589.5 428.5,-589.5"/>
<text text-anchor="start" x="435.5" y="-600.9" font-family="Arial" font-size="14.00" fill="#000000">graduation    </text>
<text text-anchor="start" x="535.8408" y="-600.9" font-family="Arial" font-size="14.00" fill="#666666">[varchar(255)]</text>
<polygon fill="none" stroke="#000000" points="428.5,-559.5 428.5,-589.5 746.5,-589.5 746.5,-559.5 428.5,-559.5"/>
<text text-anchor="start" x="435.5" y="-570.9" font-family="Arial" font-size="14.00" fill="#000000">hobby    </text>
<text text-anchor="start" x="507.8352" y="-570.9" font-family="Arial" font-size="14.00" fill="#666666">[varchar(255)]</text>
<polygon fill="none" stroke="#000000" points="428.5,-529.5 428.5,-559.5 746.5,-559.5 746.5,-529.5 428.5,-529.5"/>
<text text-anchor="start" x="435.5" y="-540.9" font-family="Arial" font-size="14.00" fill="#000000">passion    </text>
<text text-anchor="start" x="517.9418" y="-540.9" font-family="Arial" font-size="14.00" fill="#666666">[varchar(255)]</text>
<polygon fill="none" stroke="#000000" points="428.5,-499.5 428.5,-529.5 746.5,-529.5 746.5,-499.5 428.5,-499.5"/>
<text text-anchor="start" x="435.5" y="-510.9" font-family="Arial" font-size="14.00" fill="#000000">tweet    </text>
<text text-anchor="start" x="503.1578" y="-510.9" font-family="Arial" font-size="14.00" fill="#666666">[varchar]</text>
<polygon fill="none" stroke="#000000" points="428.5,-469.5 428.5,-499.5 746.5,-499.5 746.5,-469.5 428.5,-469.5"/>
<text text-anchor="start" x="435.5" y="-480.9" font-family="Arial" font-size="14.00" fill="#000000">introduction    </text>
<text text-anchor="start" x="542.0554" y="-480.9" font-family="Arial" font-size="14.00" fill="#666666">[varchar]</text>
<polygon fill="none" stroke="#000000" points="428.5,-439.5 428.5,-469.5 746.5,-469.5 746.5,-439.5 428.5,-439.5"/>
<text text-anchor="start" x="435.5" y="-450.9" font-family="Arial" font-size="14.00" fill="#000000">created_date    </text>
<text text-anchor="start" x="551.4074" y="-450.9" font-family="Arial" font-size="14.00" fill="#666666">[timestamp without time zone]</text>
<polygon fill="none" stroke="#000000" points="428.5,-409.5 428.5,-439.5 746.5,-439.5 746.5,-409.5 428.5,-409.5"/>
<text text-anchor="start" x="435.0239" y="-420.9" font-family="Arial" font-size="14.00" fill="#000000">updated_date    </text>
<text text-anchor="start" x="554.8359" y="-420.9" font-family="Arial" font-size="14.00" fill="#666666">[timestamp without time zone]</text>
</g>
<!-- public.users_details&#45;&gt;public.users -->
<g id="edge2" class="edge">
<title>public.users_details:user_id&#45;&gt;public.users:id</title>
<path fill="none" stroke="#000000" d="M755.4654,-809.7324C795.4928,-764.5671 788.3654,-412.7207 798.5,-367 811.6244,-307.7917 780.8545,-237.5 841.5,-237.5"/>
<polygon fill="#000000" stroke="#000000" points="755.3292,-809.8048 744.3871,-810.5268 750.9146,-812.1524 746.5,-814.5 746.5,-814.5 746.5,-814.5 750.9146,-812.1524 748.6129,-818.4732 755.3292,-809.8048 755.3292,-809.8048"/>
<text text-anchor="start" x="753.8345" y="-824.5" font-family="Arial" font-size="10.00" fill="#000000">FOREIGN KEY (user_id) REFERENCES users(id)</text>
</g>
<!-- public.likes -->
<g id="node4" class="node">
<title>public.likes</title>
<polygon fill="#efefef" stroke="transparent" points="851.5,-709.5 851.5,-744.5 1148.5,-744.5 1148.5,-709.5 851.5,-709.5"/>
<polygon fill="none" stroke="#000000" points="851.5,-709.5 851.5,-744.5 1148.5,-744.5 1148.5,-709.5 851.5,-709.5"/>
<text text-anchor="start" x="892.2141" y="-722.3" font-family="Arial Bold" font-size="18.00" fill="#000000">public.likes</text>
<text text-anchor="start" x="980.2179" y="-722.3" font-family="Arial" font-size="14.00" fill="#000000">    </text>
<text text-anchor="start" x="1014.4227" y="-722.3" font-family="Arial" font-size="14.00" fill="#666666">[BASE TABLE]</text>
<polygon fill="none" stroke="#000000" points="851.5,-679.5 851.5,-709.5 1148.5,-709.5 1148.5,-679.5 851.5,-679.5"/>
<text text-anchor="start" x="858.5" y="-690.9" font-family="Arial" font-size="14.00" fill="#000000">user_id    </text>
<text text-anchor="start" x="938.6024" y="-690.9" font-family="Arial" font-size="14.00" fill="#666666">[integer]</text>
<polygon fill="none" stroke="#000000" points="851.5,-649.5 851.5,-679.5 1148.5,-679.5 1148.5,-649.5 851.5,-649.5"/>
<text text-anchor="start" x="858.5" y="-660.9" font-family="Arial" font-size="14.00" fill="#000000">liked_user_id    </text>
<text text-anchor="start" x="975.1634" y="-660.9" font-family="Arial" font-size="14.00" fill="#666666">[integer]</text>
<polygon fill="none" stroke="#000000" points="851.5,-619.5 851.5,-649.5 1148.5,-649.5 1148.5,-619.5 851.5,-619.5"/>
<text text-anchor="start" x="858.4278" y="-630.9" font-family="Arial" font-size="14.00" fill="#000000">liked_date    </text>
<text text-anchor="start" x="956.432" y="-630.9" font-family="Arial" font-size="14.00" fill="#666666">[timestamp without time zone]</text>
<polygon fill="none" stroke="#000000" points="851.5,-589.5 851.5,-619.5 1148.5,-619.5 1148.5,-589.5 851.5,-589.5"/>
<text text-anchor="start" x="858.5" y="-600.9" font-family="Arial" font-size="14.00" fill="#000000">status    </text>
<text text-anchor="start" x="930.0512" y="-600.9" font-family="Arial" font-size="14.00" fill="#666666">[integer]</text>
<polygon fill="none" stroke="#000000" points="851.5,-559.5 851.5,-589.5 1148.5,-589.5 1148.5,-559.5 851.5,-559.5"/>
<text text-anchor="start" x="858.5" y="-570.9" font-family="Arial" font-size="14.00" fill="#000000">message_body    </text>
<text text-anchor="start" x="987.6262" y="-570.9" font-family="Arial" font-size="14.00" fill="#666666">[varchar(255)]</text>
</g>
<!-- public.likes&#45;&gt;public.users -->
<g id="edge3" class="edge">
<title>public.likes:liked_user_id&#45;&gt;public.users:id</title>
<path fill="none" stroke="#000000" d="M1158.7053,-663.6526C1210.2782,-654.3679 1178.8539,-570.8807 1148.5,-517 1070.1968,-378.0055 919.8032,-469.9945 841.5,-331 821.1034,-294.7944 799.9444,-237.5 841.5,-237.5"/>
<polygon fill="#000000" stroke="#000000" points="1158.4657,-663.6724 1148.1276,-660.0154 1153.4829,-664.0862 1148.5,-664.5 1148.5,-664.5 1148.5,-664.5 1153.4829,-664.0862 1148.8724,-668.9846 1158.4657,-663.6724 1158.4657,-663.6724"/>
<text text-anchor="start" x="1155.777" y="-674.5" font-family="Arial" font-size="10.00" fill="#000000">FOREIGN KEY (liked_user_id) REFERENCES users(id)</text>
</g>
<!-- public.likes&#45;&gt;public.users -->
<g id="edge4" class="edge">
<title>public.likes:user_id&#45;&gt;public.users:id</title>
<path fill="none" stroke="#000000" d="M1158.8214,-693.7984C1223.6263,-684.391 1185.4057,-582.5107 1148.5,-517 1070.1968,-378.0055 919.8032,-469.9945 841.5,-331 821.1034,-294.7944 799.9444,-237.5 841.5,-237.5"/>
<polygon fill="#000000" stroke="#000000" points="1158.477,-693.8217 1148.1948,-690.0104 1153.4885,-694.1608 1148.5,-694.5 1148.5,-694.5 1148.5,-694.5 1153.4885,-694.1608 1148.8052,-698.9896 1158.477,-693.8217 1158.477,-693.8217"/>
<text text-anchor="start" x="1155.8345" y="-704.5" font-family="Arial" font-size="10.00" fill="#000000">FOREIGN KEY (user_id) REFERENCES users(id)</text>
</g>
<!-- public.boards -->
<g id="node5" class="node">
<title>public.boards</title>
<polygon fill="#efefef" stroke="transparent" points="1252.5,-709.5 1252.5,-744.5 1570.5,-744.5 1570.5,-709.5 1252.5,-709.5"/>
<polygon fill="none" stroke="#000000" points="1252.5,-709.5 1252.5,-744.5 1570.5,-744.5 1570.5,-709.5 1252.5,-709.5"/>
<text text-anchor="start" x="1294.2029" y="-722.3" font-family="Arial Bold" font-size="18.00" fill="#000000">public.boards</text>
<text text-anchor="start" x="1401.2291" y="-722.3" font-family="Arial" font-size="14.00" fill="#000000">    </text>
<text text-anchor="start" x="1435.4339" y="-722.3" font-family="Arial" font-size="14.00" fill="#666666">[BASE TABLE]</text>
<polygon fill="none" stroke="#000000" points="1252.5,-679.5 1252.5,-709.5 1570.5,-709.5 1570.5,-679.5 1252.5,-679.5"/>
<text text-anchor="start" x="1259.5" y="-690.9" font-family="Arial" font-size="14.00" fill="#000000">id    </text>
<text text-anchor="start" x="1304.594" y="-690.9" font-family="Arial" font-size="14.00" fill="#666666">[integer]</text>
<polygon fill="none" stroke="#000000" points="1252.5,-649.5 1252.5,-679.5 1570.5,-679.5 1570.5,-649.5 1252.5,-649.5"/>
<text text-anchor="start" x="1259.5" y="-660.9" font-family="Arial" font-size="14.00" fill="#000000">user_id    </text>
<text text-anchor="start" x="1339.6024" y="-660.9" font-family="Arial" font-size="14.00" fill="#666666">[integer]</text>
<polygon fill="none" stroke="#000000" points="1252.5,-619.5 1252.5,-649.5 1570.5,-649.5 1570.5,-619.5 1252.5,-619.5"/>
<text text-anchor="start" x="1259.5" y="-630.9" font-family="Arial" font-size="14.00" fill="#000000">body    </text>
<text text-anchor="start" x="1324.0526" y="-630.9" font-family="Arial" font-size="14.00" fill="#666666">[varchar(255)]</text>
<polygon fill="none" stroke="#000000" points="1252.5,-589.5 1252.5,-619.5 1570.5,-619.5 1570.5,-589.5 1252.5,-589.5"/>
<text text-anchor="start" x="1259.5" y="-600.9" font-family="Arial" font-size="14.00" fill="#000000">created_date    </text>
<text text-anchor="start" x="1375.4074" y="-600.9" font-family="Arial" font-size="14.00" fill="#666666">[timestamp without time zone]</text>
<polygon fill="none" stroke="#000000" points="1252.5,-559.5 1252.5,-589.5 1570.5,-589.5 1570.5,-559.5 1252.5,-559.5"/>
<text text-anchor="start" x="1259.0239" y="-570.9" font-family="Arial" font-size="14.00" fill="#000000">updated_date    </text>
<text text-anchor="start" x="1378.8359" y="-570.9" font-family="Arial" font-size="14.00" fill="#666666">[timestamp without time zone]</text>
</g>
<!-- public.boards&#45;&gt;public.users -->
<g id="edge6" class="edge">
<title>public.boards:user_id&#45;&gt;public.users:id</title>
<path fill="none" stroke="#000000" d="M1242.4877,-662.7796C1162.6264,-633.3966 1253.0096,-237.5 1159.5,-237.5"/>
<polygon fill="#000000" stroke="#000000" points="1242.6444,-662.8064 1251.7379,-668.935 1247.5722,-663.6532 1252.5,-664.5 1252.5,-664.5 1252.5,-664.5 1247.5722,-663.6532 1253.2621,-660.065 1242.6444,-662.8064 1242.6444,-662.8064"/>
<text text-anchor="start" x="1200.5845" y="-648.5" font-family="Arial" font-size="10.00" fill="#000000">FOREIGN KEY (user_id) REFERENCES users(id)</text>
</g>
<!-- public.sessions -->
<g id="node6" class="node">
<title>public.sessions</title>
<polygon fill="#efefef" stroke="transparent" points="1675.5,-754.5 1675.5,-789.5 1990.5,-789.5 1990.5,-754.5 1675.5,-754.5"/>
<polygon fill="none" stroke="#000000" points="1675.5,-754.5 1675.5,-789.5 1990.5,-789.5 1990.5,-754.5 1675.5,-754.5"/>
<text text-anchor="start" x="1708.205" y="-767.3" font-family="Arial Bold" font-size="18.00" fill="#000000">public.sessions</text>
<text text-anchor="start" x="1830.227" y="-767.3" font-family="Arial" font-size="14.00" fill="#000000">    </text>
<text text-anchor="start" x="1864.4318" y="-767.3" font-family="Arial" font-size="14.00" fill="#666666">[BASE TABLE]</text>
<polygon fill="none" stroke="#000000" points="1675.5,-724.5 1675.5,-754.5 1990.5,-754.5 1990.5,-724.5 1675.5,-724.5"/>
<text text-anchor="start" x="1682.5" y="-735.9" font-family="Arial" font-size="14.00" fill="#000000">id    </text>
<text text-anchor="start" x="1727.594" y="-735.9" font-family="Arial" font-size="14.00" fill="#666666">[uuid]</text>
<polygon fill="none" stroke="#000000" points="1675.5,-694.5 1675.5,-724.5 1990.5,-724.5 1990.5,-694.5 1675.5,-694.5"/>
<text text-anchor="start" x="1682.5" y="-705.9" font-family="Arial" font-size="14.00" fill="#000000">user_name    </text>
<text text-anchor="start" x="1786.7216" y="-705.9" font-family="Arial" font-size="14.00" fill="#666666">[varchar(255)]</text>
<polygon fill="none" stroke="#000000" points="1675.5,-664.5 1675.5,-694.5 1990.5,-694.5 1990.5,-664.5 1675.5,-664.5"/>
<text text-anchor="start" x="1682.5" y="-675.9" font-family="Arial" font-size="14.00" fill="#000000">refresh_token    </text>
<text text-anchor="start" x="1802.2854" y="-675.9" font-family="Arial" font-size="14.00" fill="#666666">[varchar]</text>
<polygon fill="none" stroke="#000000" points="1675.5,-634.5 1675.5,-664.5 1990.5,-664.5 1990.5,-634.5 1675.5,-634.5"/>
<text text-anchor="start" x="1682.5" y="-645.9" font-family="Arial" font-size="14.00" fill="#000000">user_agent    </text>
<text text-anchor="start" x="1786.7342" y="-645.9" font-family="Arial" font-size="14.00" fill="#666666">[varchar]</text>
<polygon fill="none" stroke="#000000" points="1675.5,-604.5 1675.5,-634.5 1990.5,-634.5 1990.5,-604.5 1675.5,-604.5"/>
<text text-anchor="start" x="1682.5" y="-615.9" font-family="Arial" font-size="14.00" fill="#000000">client_ip    </text>
<text text-anchor="start" x="1768.0456" y="-615.9" font-family="Arial" font-size="14.00" fill="#666666">[varchar]</text>
<polygon fill="none" stroke="#000000" points="1675.5,-574.5 1675.5,-604.5 1990.5,-604.5 1990.5,-574.5 1675.5,-574.5"/>
<text text-anchor="start" x="1682.5" y="-585.9" font-family="Arial" font-size="14.00" fill="#000000">is_blocked    </text>
<text text-anchor="start" x="1782.831" y="-585.9" font-family="Arial" font-size="14.00" fill="#666666">[boolean]</text>
<polygon fill="none" stroke="#000000" points="1675.5,-544.5 1675.5,-574.5 1990.5,-574.5 1990.5,-544.5 1675.5,-544.5"/>
<text text-anchor="start" x="1682.5" y="-555.9" font-family="Arial" font-size="14.00" fill="#000000">expires_date    </text>
<text text-anchor="start" x="1796.8408" y="-555.9" font-family="Arial" font-size="14.00" fill="#666666">[timestamp without time zone]</text>
<polygon fill="none" stroke="#000000" points="1675.5,-514.5 1675.5,-544.5 1990.5,-544.5 1990.5,-514.5 1675.5,-514.5"/>
<text text-anchor="start" x="1682.4762" y="-525.9" font-family="Arial" font-size="14.00" fill="#000000">created_date    </text>
<text text-anchor="start" x="1798.3836" y="-525.9" font-family="Arial" font-size="14.00" fill="#666666">[timestamp without time zone]</text>
</g>
<!-- public.sessions&#45;&gt;public.users -->
<g id="edge7" class="edge">
<title>public.sessions:user_name&#45;&gt;public.users:user_name</title>
<path fill="none" stroke="#000000" d="M1665.6329,-707.6841C1605.0957,-683.4232 1669.5809,-423.3201 1622.5,-367 1552.7043,-283.5075 1268.3229,-207.5 1159.5,-207.5"/>
<polygon fill="#000000" stroke="#000000" points="1665.6652,-707.69 1674.6855,-713.9257 1670.5826,-708.595 1675.5,-709.5 1675.5,-709.5 1675.5,-709.5 1670.5826,-708.595 1676.3145,-705.0743 1665.6652,-707.69 1665.6652,-707.69"/>
<text text-anchor="start" x="1682.1035" y="-719.5" font-family="Arial" font-size="10.00" fill="#000000">FOREIGN KEY (user_name) REFERENCES users(user_name)</text>
</g>
</g>
</svg>
