<?xml version="1.0" encoding="UTF-8" standalone="no"?>
<!DOCTYPE svg PUBLIC "-//W3C//DTD SVG 1.1//EN"
 "http://www.w3.org/Graphics/SVG/1.1/DTD/svg11.dtd">
<!-- Generated by graphviz version 2.40.1 (20161225.0304)
 -->
<!-- Title: public.sessions Pages: 1 -->
<svg width="2028pt" height="946pt"
 viewBox="0.00 0.00 2028.00 946.00" xmlns="http://www.w3.org/2000/svg" xmlns:xlink="http://www.w3.org/1999/xlink">
<g id="graph0" class="graph" transform="scale(1 1) rotate(0) translate(4 942)">
<title>public.sessions</title>
<polygon fill="#ffffff" stroke="transparent" points="-4,4 -4,-942 2024,-942 2024,4 -4,4"/>
<!-- public.sessions -->
<g id="node1" class="node">
<title>public.sessions</title>
<polygon fill="#efefef" stroke="transparent" points="46,-754.5 46,-789.5 330,-789.5 330,-754.5 46,-754.5"/>
<polygon fill="none" stroke="#000000" points="46,-754.5 46,-789.5 330,-789.5 330,-754.5 46,-754.5"/>
<text text-anchor="start" x="63.205" y="-767.3" font-family="Arial Bold" font-size="18.00" fill="#000000">public.sessions</text>
<text text-anchor="start" x="185.227" y="-767.3" font-family="Arial" font-size="14.00" fill="#000000">    </text>
<text text-anchor="start" x="219.4318" y="-767.3" font-family="Arial" font-size="14.00" fill="#666666">[BASE TABLE]</text>
<polygon fill="none" stroke="#000000" points="46,-724.5 46,-754.5 330,-754.5 330,-724.5 46,-724.5"/>
<text text-anchor="start" x="53" y="-735.9" font-family="Arial" font-size="14.00" fill="#000000">id </text>
<text text-anchor="start" x="67.7798" y="-735.9" font-family="Arial" font-size="14.00" fill="#666666">[uuid]</text>
<polygon fill="none" stroke="#000000" points="46,-694.5 46,-724.5 330,-724.5 330,-694.5 46,-694.5"/>
<text text-anchor="start" x="53" y="-705.9" font-family="Arial" font-size="14.00" fill="#000000">user_name </text>
<text text-anchor="start" x="126.9074" y="-705.9" font-family="Arial" font-size="14.00" fill="#666666">[varchar(255)]</text>
<polygon fill="none" stroke="#000000" points="46,-664.5 46,-694.5 330,-694.5 330,-664.5 46,-664.5"/>
<text text-anchor="start" x="53" y="-675.9" font-family="Arial" font-size="14.00" fill="#000000">refresh_token </text>
<text text-anchor="start" x="142.4712" y="-675.9" font-family="Arial" font-size="14.00" fill="#666666">[varchar]</text>
<polygon fill="none" stroke="#000000" points="46,-634.5 46,-664.5 330,-664.5 330,-634.5 46,-634.5"/>
<text text-anchor="start" x="53" y="-645.9" font-family="Arial" font-size="14.00" fill="#000000">user_agent </text>
<text text-anchor="start" x="126.92" y="-645.9" font-family="Arial" font-size="14.00" fill="#666666">[varchar]</text>
<polygon fill="none" stroke="#000000" points="46,-604.5 46,-634.5 330,-634.5 330,-604.5 46,-604.5"/>
<text text-anchor="start" x="53" y="-615.9" font-family="Arial" font-size="14.00" fill="#000000">client_ip </text>
<text text-anchor="start" x="108.2314" y="-615.9" font-family="Arial" font-size="14.00" fill="#666666">[varchar]</text>
<polygon fill="none" stroke="#000000" points="46,-574.5 46,-604.5 330,-604.5 330,-574.5 46,-574.5"/>
<text text-anchor="start" x="53" y="-585.9" font-family="Arial" font-size="14.00" fill="#000000">is_blocked </text>
<text text-anchor="start" x="123.0168" y="-585.9" font-family="Arial" font-size="14.00" fill="#666666">[boolean]</text>
<polygon fill="none" stroke="#000000" points="46,-544.5 46,-574.5 330,-574.5 330,-544.5 46,-544.5"/>
<text text-anchor="start" x="53" y="-555.9" font-family="Arial" font-size="14.00" fill="#000000">expires_date </text>
<text text-anchor="start" x="137.0266" y="-555.9" font-family="Arial" font-size="14.00" fill="#666666">[timestamp without time zone]</text>
<polygon fill="none" stroke="#000000" points="46,-514.5 46,-544.5 330,-544.5 330,-514.5 46,-514.5"/>
<text text-anchor="start" x="52.6333" y="-525.9" font-family="Arial" font-size="14.00" fill="#000000">created_date </text>
<text text-anchor="start" x="138.2265" y="-525.9" font-family="Arial" font-size="14.00" fill="#666666">[timestamp without time zone]</text>
<polygon fill="none" stroke="#000000" stroke-width="3" points="44.5,-513.5 44.5,-791.5 331.5,-791.5 331.5,-513.5 44.5,-513.5"/>
</g>
<!-- public.users -->
<g id="node2" class="node">
<title>public.users</title>
<polygon fill="#efefef" stroke="transparent" points="850,-252.5 850,-287.5 1168,-287.5 1168,-252.5 850,-252.5"/>
<polygon fill="none" stroke="#000000" points="850,-252.5 850,-287.5 1168,-287.5 1168,-252.5 850,-252.5"/>
<text text-anchor="start" x="897.2091" y="-265.3" font-family="Arial Bold" font-size="18.00" fill="#000000">public.users</text>
<text text-anchor="start" x="993.2229" y="-265.3" font-family="Arial" font-size="14.00" fill="#000000">    </text>
<text text-anchor="start" x="1027.4277" y="-265.3" font-family="Arial" font-size="14.00" fill="#666666">[BASE TABLE]</text>
<polygon fill="none" stroke="#000000" points="850,-222.5 850,-252.5 1168,-252.5 1168,-222.5 850,-222.5"/>
<text text-anchor="start" x="857" y="-233.9" font-family="Arial" font-size="14.00" fill="#000000">id    </text>
<text text-anchor="start" x="902.094" y="-233.9" font-family="Arial" font-size="14.00" fill="#666666">[integer]</text>
<polygon fill="none" stroke="#000000" points="850,-192.5 850,-222.5 1168,-222.5 1168,-192.5 850,-192.5"/>
<text text-anchor="start" x="857" y="-203.9" font-family="Arial" font-size="14.00" fill="#000000">user_name    </text>
<text text-anchor="start" x="961.2216" y="-203.9" font-family="Arial" font-size="14.00" fill="#666666">[varchar(255)]</text>
<polygon fill="none" stroke="#000000" points="850,-162.5 850,-192.5 1168,-192.5 1168,-162.5 850,-162.5"/>
<text text-anchor="start" x="857" y="-173.9" font-family="Arial" font-size="14.00" fill="#000000">hashed_password    </text>
<text text-anchor="start" x="1004.798" y="-173.9" font-family="Arial" font-size="14.00" fill="#666666">[varchar(255)]</text>
<polygon fill="none" stroke="#000000" points="850,-132.5 850,-162.5 1168,-162.5 1168,-132.5 850,-132.5"/>
<text text-anchor="start" x="857" y="-143.9" font-family="Arial" font-size="14.00" fill="#000000">status    </text>
<text text-anchor="start" x="928.5512" y="-143.9" font-family="Arial" font-size="14.00" fill="#666666">[integer]</text>
<polygon fill="none" stroke="#000000" points="850,-102.5 850,-132.5 1168,-132.5 1168,-102.5 850,-102.5"/>
<text text-anchor="start" x="857" y="-113.9" font-family="Arial" font-size="14.00" fill="#000000">email    </text>
<text text-anchor="start" x="924.6438" y="-113.9" font-family="Arial" font-size="14.00" fill="#666666">[varchar(255)]</text>
<polygon fill="none" stroke="#000000" points="850,-72.5 850,-102.5 1168,-102.5 1168,-72.5 850,-72.5"/>
<text text-anchor="start" x="857" y="-83.9" font-family="Arial" font-size="14.00" fill="#000000">created_date    </text>
<text text-anchor="start" x="972.9074" y="-83.9" font-family="Arial" font-size="14.00" fill="#666666">[timestamp without time zone]</text>
<polygon fill="none" stroke="#000000" points="850,-42.5 850,-72.5 1168,-72.5 1168,-42.5 850,-42.5"/>
<text text-anchor="start" x="856.5239" y="-53.9" font-family="Arial" font-size="14.00" fill="#000000">updated_date    </text>
<text text-anchor="start" x="976.3359" y="-53.9" font-family="Arial" font-size="14.00" fill="#666666">[timestamp without time zone]</text>
</g>
<!-- public.sessions&#45;&gt;public.users -->
<g id="edge1" class="edge">
<title>public.sessions:user_name&#45;&gt;public.users:user_name</title>
<path fill="none" stroke="#000000" d="M339.8871,-707.6834C400.6278,-683.4124 337.6792,-423.2049 385,-367 455.3591,-283.4316 740.7568,-207.5 850,-207.5"/>
<polygon fill="#000000" stroke="#000000" points="339.8354,-707.6928 329.1867,-705.0741 334.9177,-708.5964 330,-709.5 330,-709.5 330,-709.5 334.9177,-708.5964 330.8133,-713.9259 339.8354,-707.6928 339.8354,-707.6928"/>
<text text-anchor="start" x="188.6035" y="-693.5" font-family="Arial" font-size="10.00" fill="#000000">FOREIGN KEY (user_name) REFERENCES users(user_name)</text>
</g>
<!-- public.users_details -->
<g id="node3" class="node">
<title>public.users_details</title>
<polygon fill="#efefef" stroke="transparent" points="437,-859.5 437,-894.5 755,-894.5 755,-859.5 437,-859.5"/>
<polygon fill="none" stroke="#000000" points="437,-859.5 437,-894.5 755,-894.5 755,-859.5 437,-859.5"/>
<text text-anchor="start" x="453.2014" y="-872.3" font-family="Arial Bold" font-size="18.00" fill="#000000">public.users_details</text>
<text text-anchor="start" x="611.2306" y="-872.3" font-family="Arial" font-size="14.00" fill="#000000">    </text>
<text text-anchor="start" x="645.4354" y="-872.3" font-family="Arial" font-size="14.00" fill="#666666">[BASE TABLE]</text>
<polygon fill="none" stroke="#000000" points="437,-829.5 437,-859.5 755,-859.5 755,-829.5 437,-829.5"/>
<text text-anchor="start" x="444" y="-840.9" font-family="Arial" font-size="14.00" fill="#000000">id    </text>
<text text-anchor="start" x="489.094" y="-840.9" font-family="Arial" font-size="14.00" fill="#666666">[integer]</text>
<polygon fill="none" stroke="#000000" points="437,-799.5 437,-829.5 755,-829.5 755,-799.5 437,-799.5"/>
<text text-anchor="start" x="444" y="-810.9" font-family="Arial" font-size="14.00" fill="#000000">user_id    </text>
<text text-anchor="start" x="524.1024" y="-810.9" font-family="Arial" font-size="14.00" fill="#666666">[integer]</text>
<polygon fill="none" stroke="#000000" points="437,-769.5 437,-799.5 755,-799.5 755,-769.5 437,-769.5"/>
<text text-anchor="start" x="444" y="-780.9" font-family="Arial" font-size="14.00" fill="#000000">name    </text>
<text text-anchor="start" x="513.2132" y="-780.9" font-family="Arial" font-size="14.00" fill="#666666">[varchar(255)]</text>
<polygon fill="none" stroke="#000000" points="437,-739.5 437,-769.5 755,-769.5 755,-739.5 437,-739.5"/>
<text text-anchor="start" x="444" y="-750.9" font-family="Arial" font-size="14.00" fill="#000000">age    </text>
<text text-anchor="start" x="501.5526" y="-750.9" font-family="Arial" font-size="14.00" fill="#666666">[integer]</text>
<polygon fill="none" stroke="#000000" points="437,-709.5 437,-739.5 755,-739.5 755,-709.5 437,-709.5"/>
<text text-anchor="start" x="444" y="-720.9" font-family="Arial" font-size="14.00" fill="#000000">gender    </text>
<text text-anchor="start" x="521.7784" y="-720.9" font-family="Arial" font-size="14.00" fill="#666666">[varchar(255)]</text>
<polygon fill="none" stroke="#000000" points="437,-679.5 437,-709.5 755,-709.5 755,-679.5 437,-679.5"/>
<text text-anchor="start" x="444" y="-690.9" font-family="Arial" font-size="14.00" fill="#000000">height    </text>
<text text-anchor="start" x="516.3324" y="-690.9" font-family="Arial" font-size="14.00" fill="#666666">[integer]</text>
<polygon fill="none" stroke="#000000" points="437,-649.5 437,-679.5 755,-679.5 755,-649.5 437,-649.5"/>
<text text-anchor="start" x="444" y="-660.9" font-family="Arial" font-size="14.00" fill="#000000">location    </text>
<text text-anchor="start" x="526.439" y="-660.9" font-family="Arial" font-size="14.00" fill="#666666">[varchar(255)]</text>
<polygon fill="none" stroke="#000000" points="437,-619.5 437,-649.5 755,-649.5 755,-619.5 437,-619.5"/>
<text text-anchor="start" x="444" y="-630.9" font-family="Arial" font-size="14.00" fill="#000000">work    </text>
<text text-anchor="start" x="507.7546" y="-630.9" font-family="Arial" font-size="14.00" fill="#666666">[varchar(255)]</text>
<polygon fill="none" stroke="#000000" points="437,-589.5 437,-619.5 755,-619.5 755,-589.5 437,-589.5"/>
<text text-anchor="start" x="444" y="-600.9" font-family="Arial" font-size="14.00" fill="#000000">graduation    </text>
<text text-anchor="start" x="544.3408" y="-600.9" font-family="Arial" font-size="14.00" fill="#666666">[varchar(255)]</text>
<polygon fill="none" stroke="#000000" points="437,-559.5 437,-589.5 755,-589.5 755,-559.5 437,-559.5"/>
<text text-anchor="start" x="444" y="-570.9" font-family="Arial" font-size="14.00" fill="#000000">hobby    </text>
<text text-anchor="start" x="516.3352" y="-570.9" font-family="Arial" font-size="14.00" fill="#666666">[varchar(255)]</text>
<polygon fill="none" stroke="#000000" points="437,-529.5 437,-559.5 755,-559.5 755,-529.5 437,-529.5"/>
<text text-anchor="start" x="444" y="-540.9" font-family="Arial" font-size="14.00" fill="#000000">passion    </text>
<text text-anchor="start" x="526.4418" y="-540.9" font-family="Arial" font-size="14.00" fill="#666666">[varchar(255)]</text>
<polygon fill="none" stroke="#000000" points="437,-499.5 437,-529.5 755,-529.5 755,-499.5 437,-499.5"/>
<text text-anchor="start" x="444" y="-510.9" font-family="Arial" font-size="14.00" fill="#000000">tweet    </text>
<text text-anchor="start" x="511.6578" y="-510.9" font-family="Arial" font-size="14.00" fill="#666666">[varchar]</text>
<polygon fill="none" stroke="#000000" points="437,-469.5 437,-499.5 755,-499.5 755,-469.5 437,-469.5"/>
<text text-anchor="start" x="444" y="-480.9" font-family="Arial" font-size="14.00" fill="#000000">introduction    </text>
<text text-anchor="start" x="550.5554" y="-480.9" font-family="Arial" font-size="14.00" fill="#666666">[varchar]</text>
<polygon fill="none" stroke="#000000" points="437,-439.5 437,-469.5 755,-469.5 755,-439.5 437,-439.5"/>
<text text-anchor="start" x="444" y="-450.9" font-family="Arial" font-size="14.00" fill="#000000">created_date    </text>
<text text-anchor="start" x="559.9074" y="-450.9" font-family="Arial" font-size="14.00" fill="#666666">[timestamp without time zone]</text>
<polygon fill="none" stroke="#000000" points="437,-409.5 437,-439.5 755,-439.5 755,-409.5 437,-409.5"/>
<text text-anchor="start" x="443.5239" y="-420.9" font-family="Arial" font-size="14.00" fill="#000000">updated_date    </text>
<text text-anchor="start" x="563.3359" y="-420.9" font-family="Arial" font-size="14.00" fill="#666666">[timestamp without time zone]</text>
</g>
<!-- public.users_details&#45;&gt;public.users -->
<g id="edge2" class="edge">
<title>public.users_details:user_id&#45;&gt;public.users:id</title>
<path fill="none" stroke="#000000" d="M763.9654,-809.7324C803.9928,-764.5671 796.8654,-412.7207 807,-367 820.1244,-307.7917 789.3545,-237.5 850,-237.5"/>
<polygon fill="#000000" stroke="#000000" points="763.8292,-809.8048 752.8871,-810.5268 759.4146,-812.1524 755,-814.5 755,-814.5 755,-814.5 759.4146,-812.1524 757.1129,-818.4732 763.8292,-809.8048 763.8292,-809.8048"/>
<text text-anchor="start" x="762.3345" y="-824.5" font-family="Arial" font-size="10.00" fill="#000000">FOREIGN KEY (user_id) REFERENCES users(id)</text>
</g>
<!-- public.likes -->
<g id="node4" class="node">
<title>public.likes</title>
<polygon fill="#efefef" stroke="transparent" points="860,-709.5 860,-744.5 1157,-744.5 1157,-709.5 860,-709.5"/>
<polygon fill="none" stroke="#000000" points="860,-709.5 860,-744.5 1157,-744.5 1157,-709.5 860,-709.5"/>
<text text-anchor="start" x="900.7141" y="-722.3" font-family="Arial Bold" font-size="18.00" fill="#000000">public.likes</text>
<text text-anchor="start" x="988.7179" y="-722.3" font-family="Arial" font-size="14.00" fill="#000000">    </text>
<text text-anchor="start" x="1022.9227" y="-722.3" font-family="Arial" font-size="14.00" fill="#666666">[BASE TABLE]</text>
<polygon fill="none" stroke="#000000" points="860,-679.5 860,-709.5 1157,-709.5 1157,-679.5 860,-679.5"/>
<text text-anchor="start" x="867" y="-690.9" font-family="Arial" font-size="14.00" fill="#000000">user_id    </text>
<text text-anchor="start" x="947.1024" y="-690.9" font-family="Arial" font-size="14.00" fill="#666666">[integer]</text>
<polygon fill="none" stroke="#000000" points="860,-649.5 860,-679.5 1157,-679.5 1157,-649.5 860,-649.5"/>
<text text-anchor="start" x="867" y="-660.9" font-family="Arial" font-size="14.00" fill="#000000">liked_user_id    </text>
<text text-anchor="start" x="983.6634" y="-660.9" font-family="Arial" font-size="14.00" fill="#666666">[integer]</text>
<polygon fill="none" stroke="#000000" points="860,-619.5 860,-649.5 1157,-649.5 1157,-619.5 860,-619.5"/>
<text text-anchor="start" x="866.9278" y="-630.9" font-family="Arial" font-size="14.00" fill="#000000">liked_date    </text>
<text text-anchor="start" x="964.932" y="-630.9" font-family="Arial" font-size="14.00" fill="#666666">[timestamp without time zone]</text>
<polygon fill="none" stroke="#000000" points="860,-589.5 860,-619.5 1157,-619.5 1157,-589.5 860,-589.5"/>
<text text-anchor="start" x="867" y="-600.9" font-family="Arial" font-size="14.00" fill="#000000">status    </text>
<text text-anchor="start" x="938.5512" y="-600.9" font-family="Arial" font-size="14.00" fill="#666666">[integer]</text>
<polygon fill="none" stroke="#000000" points="860,-559.5 860,-589.5 1157,-589.5 1157,-559.5 860,-559.5"/>
<text text-anchor="start" x="867" y="-570.9" font-family="Arial" font-size="14.00" fill="#000000">message_body    </text>
<text text-anchor="start" x="996.1262" y="-570.9" font-family="Arial" font-size="14.00" fill="#666666">[varchar(255)]</text>
</g>
<!-- public.likes&#45;&gt;public.users -->
<g id="edge3" class="edge">
<title>public.likes:liked_user_id&#45;&gt;public.users:id</title>
<path fill="none" stroke="#000000" d="M1167.2053,-663.6526C1218.7782,-654.3679 1187.3539,-570.8807 1157,-517 1078.6968,-378.0055 928.3032,-469.9945 850,-331 829.6034,-294.7944 808.4444,-237.5 850,-237.5"/>
<polygon fill="#000000" stroke="#000000" points="1166.9657,-663.6724 1156.6276,-660.0154 1161.9829,-664.0862 1157,-664.5 1157,-664.5 1157,-664.5 1161.9829,-664.0862 1157.3724,-668.9846 1166.9657,-663.6724 1166.9657,-663.6724"/>
<text text-anchor="start" x="1032.777" y="-648.5" font-family="Arial" font-size="10.00" fill="#000000">FOREIGN KEY (liked_user_id) REFERENCES users(id)</text>
</g>
<!-- public.likes&#45;&gt;public.users -->
<g id="edge4" class="edge">
<title>public.likes:user_id&#45;&gt;public.users:id</title>
<path fill="none" stroke="#000000" d="M1167.3214,-693.7984C1232.1263,-684.391 1193.9057,-582.5107 1157,-517 1078.6968,-378.0055 928.3032,-469.9945 850,-331 829.6034,-294.7944 808.4444,-237.5 850,-237.5"/>
<polygon fill="#000000" stroke="#000000" points="1166.977,-693.8217 1156.6948,-690.0104 1161.9885,-694.1608 1157,-694.5 1157,-694.5 1157,-694.5 1161.9885,-694.1608 1157.3052,-698.9896 1166.977,-693.8217 1166.977,-693.8217"/>
<text text-anchor="start" x="1045.8345" y="-678.5" font-family="Arial" font-size="10.00" fill="#000000">FOREIGN KEY (user_id) REFERENCES users(id)</text>
</g>
<!-- public.messages -->
<g id="node5" class="node">
<title>public.messages</title>
<polygon fill="#efefef" stroke="transparent" points="1261,-724.5 1261,-759.5 1555,-759.5 1555,-724.5 1261,-724.5"/>
<polygon fill="none" stroke="#000000" points="1261,-724.5 1261,-759.5 1555,-759.5 1555,-724.5 1261,-724.5"/>
<text text-anchor="start" x="1277.2029" y="-737.3" font-family="Arial Bold" font-size="18.00" fill="#000000">public.messages</text>
<text text-anchor="start" x="1411.2291" y="-737.3" font-family="Arial" font-size="14.00" fill="#000000">    </text>
<text text-anchor="start" x="1445.4339" y="-737.3" font-family="Arial" font-size="14.00" fill="#666666">[BASE TABLE]</text>
<polygon fill="none" stroke="#000000" points="1261,-694.5 1261,-724.5 1555,-724.5 1555,-694.5 1261,-694.5"/>
<text text-anchor="start" x="1268" y="-705.9" font-family="Arial" font-size="14.00" fill="#000000">id    </text>
<text text-anchor="start" x="1313.094" y="-705.9" font-family="Arial" font-size="14.00" fill="#666666">[integer]</text>
<polygon fill="none" stroke="#000000" points="1261,-664.5 1261,-694.5 1555,-694.5 1555,-664.5 1261,-664.5"/>
<text text-anchor="start" x="1268" y="-675.9" font-family="Arial" font-size="14.00" fill="#000000">sender_user_id    </text>
<text text-anchor="start" x="1398.676" y="-675.9" font-family="Arial" font-size="14.00" fill="#666666">[integer]</text>
<polygon fill="none" stroke="#000000" points="1261,-634.5 1261,-664.5 1555,-664.5 1555,-634.5 1261,-634.5"/>
<text text-anchor="start" x="1268" y="-645.9" font-family="Arial" font-size="14.00" fill="#000000">receiver_user_id    </text>
<text text-anchor="start" x="1405.6606" y="-645.9" font-family="Arial" font-size="14.00" fill="#666666">[integer]</text>
<polygon fill="none" stroke="#000000" points="1261,-604.5 1261,-634.5 1555,-634.5 1555,-604.5 1261,-604.5"/>
<text text-anchor="start" x="1268" y="-615.9" font-family="Arial" font-size="14.00" fill="#000000">message_body    </text>
<text text-anchor="start" x="1397.1262" y="-615.9" font-family="Arial" font-size="14.00" fill="#666666">[varchar(255)]</text>
<polygon fill="none" stroke="#000000" points="1261,-574.5 1261,-604.5 1555,-604.5 1555,-574.5 1261,-574.5"/>
<text text-anchor="start" x="1268" y="-585.9" font-family="Arial" font-size="14.00" fill="#000000">status    </text>
<text text-anchor="start" x="1339.5512" y="-585.9" font-family="Arial" font-size="14.00" fill="#666666">[integer]</text>
<polygon fill="none" stroke="#000000" points="1261,-544.5 1261,-574.5 1555,-574.5 1555,-544.5 1261,-544.5"/>
<text text-anchor="start" x="1267.5891" y="-555.9" font-family="Arial" font-size="14.00" fill="#000000">sent_date    </text>
<text text-anchor="start" x="1363.2707" y="-555.9" font-family="Arial" font-size="14.00" fill="#666666">[timestamp without time zone]</text>
</g>
<!-- public.messages&#45;&gt;public.users -->
<g id="edge5" class="edge">
<title>public.messages:receiver_user_id&#45;&gt;public.users:id</title>
<path fill="none" stroke="#000000" d="M1250.8416,-647.6631C1174.253,-617.9412 1258.1927,-237.5 1168,-237.5"/>
<polygon fill="#000000" stroke="#000000" points="1251.1596,-647.7205 1260.1992,-653.9282 1256.0798,-648.6103 1261,-649.5 1261,-649.5 1261,-649.5 1256.0798,-648.6103 1261.8008,-645.0718 1251.1596,-647.7205 1251.1596,-647.7205"/>
<text text-anchor="start" x="1059.278" y="-633.5" font-family="Arial" font-size="10.00" fill="#000000">FOREIGN KEY (receiver_user_id) REFERENCES users(id)</text>
</g>
<!-- public.messages&#45;&gt;public.users -->
<g id="edge6" class="edge">
<title>public.messages:sender_user_id&#45;&gt;public.users:id</title>
<path fill="none" stroke="#000000" d="M1250.9152,-677.8105C1168.1417,-648.1357 1264.7461,-237.5 1168,-237.5"/>
<polygon fill="#000000" stroke="#000000" points="1251.1374,-677.8476 1260.2564,-683.9382 1256.0687,-678.6738 1261,-679.5 1261,-679.5 1261,-679.5 1256.0687,-678.6738 1261.7436,-675.0618 1251.1374,-677.8476 1251.1374,-677.8476"/>
<text text-anchor="start" x="995.2725" y="-689.5" font-family="Arial" font-size="10.00" fill="#000000">FOREIGN KEY (sender_user_id) REFERENCES users(id)</text>
</g>
<!-- public.boards -->
<g id="node6" class="node">
<title>public.boards</title>
<polygon fill="#efefef" stroke="transparent" points="1659,-709.5 1659,-744.5 1977,-744.5 1977,-709.5 1659,-709.5"/>
<polygon fill="none" stroke="#000000" points="1659,-709.5 1659,-744.5 1977,-744.5 1977,-709.5 1659,-709.5"/>
<text text-anchor="start" x="1700.7029" y="-722.3" font-family="Arial Bold" font-size="18.00" fill="#000000">public.boards</text>
<text text-anchor="start" x="1807.7291" y="-722.3" font-family="Arial" font-size="14.00" fill="#000000">    </text>
<text text-anchor="start" x="1841.9339" y="-722.3" font-family="Arial" font-size="14.00" fill="#666666">[BASE TABLE]</text>
<polygon fill="none" stroke="#000000" points="1659,-679.5 1659,-709.5 1977,-709.5 1977,-679.5 1659,-679.5"/>
<text text-anchor="start" x="1666" y="-690.9" font-family="Arial" font-size="14.00" fill="#000000">id    </text>
<text text-anchor="start" x="1711.094" y="-690.9" font-family="Arial" font-size="14.00" fill="#666666">[integer]</text>
<polygon fill="none" stroke="#000000" points="1659,-649.5 1659,-679.5 1977,-679.5 1977,-649.5 1659,-649.5"/>
<text text-anchor="start" x="1666" y="-660.9" font-family="Arial" font-size="14.00" fill="#000000">user_id    </text>
<text text-anchor="start" x="1746.1024" y="-660.9" font-family="Arial" font-size="14.00" fill="#666666">[integer]</text>
<polygon fill="none" stroke="#000000" points="1659,-619.5 1659,-649.5 1977,-649.5 1977,-619.5 1659,-619.5"/>
<text text-anchor="start" x="1666" y="-630.9" font-family="Arial" font-size="14.00" fill="#000000">body    </text>
<text text-anchor="start" x="1730.5526" y="-630.9" font-family="Arial" font-size="14.00" fill="#666666">[varchar(255)]</text>
<polygon fill="none" stroke="#000000" points="1659,-589.5 1659,-619.5 1977,-619.5 1977,-589.5 1659,-589.5"/>
<text text-anchor="start" x="1666" y="-600.9" font-family="Arial" font-size="14.00" fill="#000000">created_date    </text>
<text text-anchor="start" x="1781.9074" y="-600.9" font-family="Arial" font-size="14.00" fill="#666666">[timestamp without time zone]</text>
<polygon fill="none" stroke="#000000" points="1659,-559.5 1659,-589.5 1977,-589.5 1977,-559.5 1659,-559.5"/>
<text text-anchor="start" x="1665.5239" y="-570.9" font-family="Arial" font-size="14.00" fill="#000000">updated_date    </text>
<text text-anchor="start" x="1785.3359" y="-570.9" font-family="Arial" font-size="14.00" fill="#666666">[timestamp without time zone]</text>
</g>
<!-- public.boards&#45;&gt;public.users -->
<g id="edge7" class="edge">
<title>public.boards:user_id&#45;&gt;public.users:id</title>
<path fill="none" stroke="#000000" d="M1649.09,-662.3528C1598.1141,-638.0285 1649.237,-414.3399 1607,-367 1539.286,-291.105 1269.7116,-237.5 1168,-237.5"/>
<polygon fill="#000000" stroke="#000000" points="1649.2268,-662.3824 1658.0471,-668.898 1654.1134,-663.4412 1659,-664.5 1659,-664.5 1659,-664.5 1654.1134,-663.4412 1659.9529,-660.102 1649.2268,-662.3824 1649.2268,-662.3824"/>
<text text-anchor="start" x="1429.3345" y="-674.5" font-family="Arial" font-size="10.00" fill="#000000">FOREIGN KEY (user_id) REFERENCES users(id)</text>
</g>
</g>
</svg>
