<?xml version="1.0" encoding="UTF-8" standalone="no"?>
<!DOCTYPE svg PUBLIC "-//W3C//DTD SVG 1.1//EN"
 "http://www.w3.org/Graphics/SVG/1.1/DTD/svg11.dtd">
<!-- Generated by graphviz version 2.40.1 (20161225.0304)
 -->
<!-- Title: public.users Pages: 1 -->
<svg width="2054pt" height="952pt"
 viewBox="0.00 0.00 2053.50 952.00" xmlns="http://www.w3.org/2000/svg" xmlns:xlink="http://www.w3.org/1999/xlink">
<g id="graph0" class="graph" transform="scale(1 1) rotate(0) translate(4 948)">
<title>public.users</title>
<polygon fill="#ffffff" stroke="transparent" points="-4,4 -4,-948 2049.5,-948 2049.5,4 -4,4"/>
<!-- public.users -->
<g id="node1" class="node">
<title>public.users</title>
<polygon fill="#efefef" stroke="transparent" points="870,-255.5 870,-290.5 1158,-290.5 1158,-255.5 870,-255.5"/>
<polygon fill="none" stroke="#000000" points="870,-255.5 870,-290.5 1158,-290.5 1158,-255.5 870,-255.5"/>
<text text-anchor="start" x="902.2091" y="-268.3" font-family="Arial Bold" font-size="18.00" fill="#000000">public.users</text>
<text text-anchor="start" x="998.2229" y="-268.3" font-family="Arial" font-size="14.00" fill="#000000">    </text>
<text text-anchor="start" x="1032.4277" y="-268.3" font-family="Arial" font-size="14.00" fill="#666666">[BASE TABLE]</text>
<polygon fill="none" stroke="#000000" points="870,-225.5 870,-255.5 1158,-255.5 1158,-225.5 870,-225.5"/>
<text text-anchor="start" x="877" y="-236.9" font-family="Arial" font-size="14.00" fill="#000000">id </text>
<text text-anchor="start" x="891.7798" y="-236.9" font-family="Arial" font-size="14.00" fill="#666666">[integer]</text>
<polygon fill="none" stroke="#000000" points="870,-195.5 870,-225.5 1158,-225.5 1158,-195.5 870,-195.5"/>
<text text-anchor="start" x="877" y="-206.9" font-family="Arial" font-size="14.00" fill="#000000">user_name </text>
<text text-anchor="start" x="950.9074" y="-206.9" font-family="Arial" font-size="14.00" fill="#666666">[varchar(255)]</text>
<polygon fill="none" stroke="#000000" points="870,-165.5 870,-195.5 1158,-195.5 1158,-165.5 870,-165.5"/>
<text text-anchor="start" x="877" y="-176.9" font-family="Arial" font-size="14.00" fill="#000000">hashed_password </text>
<text text-anchor="start" x="994.4838" y="-176.9" font-family="Arial" font-size="14.00" fill="#666666">[varchar(255)]</text>
<polygon fill="none" stroke="#000000" points="870,-135.5 870,-165.5 1158,-165.5 1158,-135.5 870,-135.5"/>
<text text-anchor="start" x="877" y="-146.9" font-family="Arial" font-size="14.00" fill="#000000">status </text>
<text text-anchor="start" x="918.237" y="-146.9" font-family="Arial" font-size="14.00" fill="#666666">[integer]</text>
<polygon fill="none" stroke="#000000" points="870,-105.5 870,-135.5 1158,-135.5 1158,-105.5 870,-105.5"/>
<text text-anchor="start" x="877" y="-116.9" font-family="Arial" font-size="14.00" fill="#000000">email </text>
<text text-anchor="start" x="914.3296" y="-116.9" font-family="Arial" font-size="14.00" fill="#666666">[varchar(255)]</text>
<polygon fill="none" stroke="#000000" points="870,-75.5 870,-105.5 1158,-105.5 1158,-75.5 870,-75.5"/>
<text text-anchor="start" x="877" y="-86.9" font-family="Arial" font-size="14.00" fill="#000000">created_date </text>
<text text-anchor="start" x="962.5932" y="-86.9" font-family="Arial" font-size="14.00" fill="#666666">[timestamp without time zone]</text>
<polygon fill="none" stroke="#000000" points="870,-45.5 870,-75.5 1158,-75.5 1158,-45.5 870,-45.5"/>
<text text-anchor="start" x="876.681" y="-56.9" font-family="Arial" font-size="14.00" fill="#000000">updated_date </text>
<text text-anchor="start" x="966.1788" y="-56.9" font-family="Arial" font-size="14.00" fill="#666666">[timestamp without time zone]</text>
<polygon fill="none" stroke="#000000" stroke-width="3" points="868.5,-44.5 868.5,-292.5 1159.5,-292.5 1159.5,-44.5 868.5,-44.5"/>
</g>
<!-- public.users_details -->
<g id="node2" class="node">
<title>public.users_details</title>
<polygon fill="#efefef" stroke="transparent" points="43,-865.5 43,-900.5 361,-900.5 361,-865.5 43,-865.5"/>
<polygon fill="none" stroke="#000000" points="43,-865.5 43,-900.5 361,-900.5 361,-865.5 43,-865.5"/>
<text text-anchor="start" x="59.2014" y="-878.3" font-family="Arial Bold" font-size="18.00" fill="#000000">public.users_details</text>
<text text-anchor="start" x="217.2306" y="-878.3" font-family="Arial" font-size="14.00" fill="#000000">    </text>
<text text-anchor="start" x="251.4354" y="-878.3" font-family="Arial" font-size="14.00" fill="#666666">[BASE TABLE]</text>
<polygon fill="none" stroke="#000000" points="43,-835.5 43,-865.5 361,-865.5 361,-835.5 43,-835.5"/>
<text text-anchor="start" x="50" y="-846.9" font-family="Arial" font-size="14.00" fill="#000000">id    </text>
<text text-anchor="start" x="95.094" y="-846.9" font-family="Arial" font-size="14.00" fill="#666666">[integer]</text>
<polygon fill="none" stroke="#000000" points="43,-805.5 43,-835.5 361,-835.5 361,-805.5 43,-805.5"/>
<text text-anchor="start" x="50" y="-816.9" font-family="Arial" font-size="14.00" fill="#000000">user_id    </text>
<text text-anchor="start" x="130.1024" y="-816.9" font-family="Arial" font-size="14.00" fill="#666666">[integer]</text>
<polygon fill="none" stroke="#000000" points="43,-775.5 43,-805.5 361,-805.5 361,-775.5 43,-775.5"/>
<text text-anchor="start" x="50" y="-786.9" font-family="Arial" font-size="14.00" fill="#000000">name    </text>
<text text-anchor="start" x="119.2132" y="-786.9" font-family="Arial" font-size="14.00" fill="#666666">[varchar(255)]</text>
<polygon fill="none" stroke="#000000" points="43,-745.5 43,-775.5 361,-775.5 361,-745.5 43,-745.5"/>
<text text-anchor="start" x="50" y="-756.9" font-family="Arial" font-size="14.00" fill="#000000">age    </text>
<text text-anchor="start" x="107.5526" y="-756.9" font-family="Arial" font-size="14.00" fill="#666666">[integer]</text>
<polygon fill="none" stroke="#000000" points="43,-715.5 43,-745.5 361,-745.5 361,-715.5 43,-715.5"/>
<text text-anchor="start" x="50" y="-726.9" font-family="Arial" font-size="14.00" fill="#000000">gender    </text>
<text text-anchor="start" x="127.7784" y="-726.9" font-family="Arial" font-size="14.00" fill="#666666">[varchar(255)]</text>
<polygon fill="none" stroke="#000000" points="43,-685.5 43,-715.5 361,-715.5 361,-685.5 43,-685.5"/>
<text text-anchor="start" x="50" y="-696.9" font-family="Arial" font-size="14.00" fill="#000000">height    </text>
<text text-anchor="start" x="122.3324" y="-696.9" font-family="Arial" font-size="14.00" fill="#666666">[integer]</text>
<polygon fill="none" stroke="#000000" points="43,-655.5 43,-685.5 361,-685.5 361,-655.5 43,-655.5"/>
<text text-anchor="start" x="50" y="-666.9" font-family="Arial" font-size="14.00" fill="#000000">location    </text>
<text text-anchor="start" x="132.439" y="-666.9" font-family="Arial" font-size="14.00" fill="#666666">[varchar(255)]</text>
<polygon fill="none" stroke="#000000" points="43,-625.5 43,-655.5 361,-655.5 361,-625.5 43,-625.5"/>
<text text-anchor="start" x="50" y="-636.9" font-family="Arial" font-size="14.00" fill="#000000">work    </text>
<text text-anchor="start" x="113.7546" y="-636.9" font-family="Arial" font-size="14.00" fill="#666666">[varchar(255)]</text>
<polygon fill="none" stroke="#000000" points="43,-595.5 43,-625.5 361,-625.5 361,-595.5 43,-595.5"/>
<text text-anchor="start" x="50" y="-606.9" font-family="Arial" font-size="14.00" fill="#000000">graduation    </text>
<text text-anchor="start" x="150.3408" y="-606.9" font-family="Arial" font-size="14.00" fill="#666666">[varchar(255)]</text>
<polygon fill="none" stroke="#000000" points="43,-565.5 43,-595.5 361,-595.5 361,-565.5 43,-565.5"/>
<text text-anchor="start" x="50" y="-576.9" font-family="Arial" font-size="14.00" fill="#000000">hobby    </text>
<text text-anchor="start" x="122.3352" y="-576.9" font-family="Arial" font-size="14.00" fill="#666666">[varchar(255)]</text>
<polygon fill="none" stroke="#000000" points="43,-535.5 43,-565.5 361,-565.5 361,-535.5 43,-535.5"/>
<text text-anchor="start" x="50" y="-546.9" font-family="Arial" font-size="14.00" fill="#000000">passion    </text>
<text text-anchor="start" x="132.4418" y="-546.9" font-family="Arial" font-size="14.00" fill="#666666">[varchar(255)]</text>
<polygon fill="none" stroke="#000000" points="43,-505.5 43,-535.5 361,-535.5 361,-505.5 43,-505.5"/>
<text text-anchor="start" x="50" y="-516.9" font-family="Arial" font-size="14.00" fill="#000000">tweet    </text>
<text text-anchor="start" x="117.6578" y="-516.9" font-family="Arial" font-size="14.00" fill="#666666">[varchar]</text>
<polygon fill="none" stroke="#000000" points="43,-475.5 43,-505.5 361,-505.5 361,-475.5 43,-475.5"/>
<text text-anchor="start" x="50" y="-486.9" font-family="Arial" font-size="14.00" fill="#000000">introduction    </text>
<text text-anchor="start" x="156.5554" y="-486.9" font-family="Arial" font-size="14.00" fill="#666666">[varchar]</text>
<polygon fill="none" stroke="#000000" points="43,-445.5 43,-475.5 361,-475.5 361,-445.5 43,-445.5"/>
<text text-anchor="start" x="50" y="-456.9" font-family="Arial" font-size="14.00" fill="#000000">created_date    </text>
<text text-anchor="start" x="165.9074" y="-456.9" font-family="Arial" font-size="14.00" fill="#666666">[timestamp without time zone]</text>
<polygon fill="none" stroke="#000000" points="43,-415.5 43,-445.5 361,-445.5 361,-415.5 43,-415.5"/>
<text text-anchor="start" x="49.5239" y="-426.9" font-family="Arial" font-size="14.00" fill="#000000">updated_date    </text>
<text text-anchor="start" x="169.3359" y="-426.9" font-family="Arial" font-size="14.00" fill="#666666">[timestamp without time zone]</text>
</g>
<!-- public.users_details&#45;&gt;public.users -->
<g id="edge1" class="edge">
<title>public.users_details:user_id&#45;&gt;public.users:id</title>
<path fill="none" stroke="#000000" d="M371.2859,-819.001C452.9881,-793.3656 350.7407,-446.5965 413,-373 481.2912,-292.2732 764.2621,-240.5 870,-240.5"/>
<polygon fill="#000000" stroke="#000000" points="370.8955,-819.0578 360.351,-816.047 365.9477,-819.7789 361,-820.5 361,-820.5 361,-820.5 365.9477,-819.7789 361.649,-824.953 370.8955,-819.0578 370.8955,-819.0578"/>
<text text-anchor="start" x="368.3345" y="-830.5" font-family="Arial" font-size="10.00" fill="#000000">FOREIGN KEY (user_id) REFERENCES users(id)</text>
</g>
<!-- public.likes -->
<g id="node3" class="node">
<title>public.likes</title>
<polygon fill="#efefef" stroke="transparent" points="466,-715.5 466,-750.5 763,-750.5 763,-715.5 466,-715.5"/>
<polygon fill="none" stroke="#000000" points="466,-715.5 466,-750.5 763,-750.5 763,-715.5 466,-715.5"/>
<text text-anchor="start" x="506.7141" y="-728.3" font-family="Arial Bold" font-size="18.00" fill="#000000">public.likes</text>
<text text-anchor="start" x="594.7179" y="-728.3" font-family="Arial" font-size="14.00" fill="#000000">    </text>
<text text-anchor="start" x="628.9227" y="-728.3" font-family="Arial" font-size="14.00" fill="#666666">[BASE TABLE]</text>
<polygon fill="none" stroke="#000000" points="466,-685.5 466,-715.5 763,-715.5 763,-685.5 466,-685.5"/>
<text text-anchor="start" x="473" y="-696.9" font-family="Arial" font-size="14.00" fill="#000000">user_id    </text>
<text text-anchor="start" x="553.1024" y="-696.9" font-family="Arial" font-size="14.00" fill="#666666">[integer]</text>
<polygon fill="none" stroke="#000000" points="466,-655.5 466,-685.5 763,-685.5 763,-655.5 466,-655.5"/>
<text text-anchor="start" x="473" y="-666.9" font-family="Arial" font-size="14.00" fill="#000000">liked_user_id    </text>
<text text-anchor="start" x="589.6634" y="-666.9" font-family="Arial" font-size="14.00" fill="#666666">[integer]</text>
<polygon fill="none" stroke="#000000" points="466,-625.5 466,-655.5 763,-655.5 763,-625.5 466,-625.5"/>
<text text-anchor="start" x="472.9278" y="-636.9" font-family="Arial" font-size="14.00" fill="#000000">liked_date    </text>
<text text-anchor="start" x="570.932" y="-636.9" font-family="Arial" font-size="14.00" fill="#666666">[timestamp without time zone]</text>
<polygon fill="none" stroke="#000000" points="466,-595.5 466,-625.5 763,-625.5 763,-595.5 466,-595.5"/>
<text text-anchor="start" x="473" y="-606.9" font-family="Arial" font-size="14.00" fill="#000000">status    </text>
<text text-anchor="start" x="544.5512" y="-606.9" font-family="Arial" font-size="14.00" fill="#666666">[integer]</text>
<polygon fill="none" stroke="#000000" points="466,-565.5 466,-595.5 763,-595.5 763,-565.5 466,-565.5"/>
<text text-anchor="start" x="473" y="-576.9" font-family="Arial" font-size="14.00" fill="#000000">message_body    </text>
<text text-anchor="start" x="602.1262" y="-576.9" font-family="Arial" font-size="14.00" fill="#666666">[varchar(255)]</text>
</g>
<!-- public.likes&#45;&gt;public.users -->
<g id="edge2" class="edge">
<title>public.likes:liked_user_id&#45;&gt;public.users:id</title>
<path fill="none" stroke="#000000" d="M773.1299,-668.4746C826.5663,-645.5133 797.2693,-433.9151 815,-373 832.8195,-311.7799 806.2393,-240.5 870,-240.5"/>
<polygon fill="#000000" stroke="#000000" points="772.8059,-668.5393 762.1177,-666.0873 767.903,-669.5197 763,-670.5 763,-670.5 763,-670.5 767.903,-669.5197 763.8823,-674.9127 772.8059,-668.5393 772.8059,-668.5393"/>
<text text-anchor="start" x="770.277" y="-680.5" font-family="Arial" font-size="10.00" fill="#000000">FOREIGN KEY (liked_user_id) REFERENCES users(id)</text>
</g>
<!-- public.likes&#45;&gt;public.users -->
<g id="edge3" class="edge">
<title>public.likes:user_id&#45;&gt;public.users:id</title>
<path fill="none" stroke="#000000" d="M772.9894,-698.7162C832.7613,-675.8852 795.9361,-440.449 815,-373 832.3421,-311.643 806.2393,-240.5 870,-240.5"/>
<polygon fill="#000000" stroke="#000000" points="772.8443,-698.7421 762.2089,-696.0701 767.9221,-699.621 763,-700.5 763,-700.5 763,-700.5 767.9221,-699.621 763.7911,-704.9299 772.8443,-698.7421 772.8443,-698.7421"/>
<text text-anchor="start" x="770.3345" y="-710.5" font-family="Arial" font-size="10.00" fill="#000000">FOREIGN KEY (user_id) REFERENCES users(id)</text>
</g>
<!-- public.messages -->
<g id="node4" class="node">
<title>public.messages</title>
<polygon fill="#efefef" stroke="transparent" points="867,-730.5 867,-765.5 1161,-765.5 1161,-730.5 867,-730.5"/>
<polygon fill="none" stroke="#000000" points="867,-730.5 867,-765.5 1161,-765.5 1161,-730.5 867,-730.5"/>
<text text-anchor="start" x="883.2029" y="-743.3" font-family="Arial Bold" font-size="18.00" fill="#000000">public.messages</text>
<text text-anchor="start" x="1017.2291" y="-743.3" font-family="Arial" font-size="14.00" fill="#000000">    </text>
<text text-anchor="start" x="1051.4339" y="-743.3" font-family="Arial" font-size="14.00" fill="#666666">[BASE TABLE]</text>
<polygon fill="none" stroke="#000000" points="867,-700.5 867,-730.5 1161,-730.5 1161,-700.5 867,-700.5"/>
<text text-anchor="start" x="874" y="-711.9" font-family="Arial" font-size="14.00" fill="#000000">id    </text>
<text text-anchor="start" x="919.094" y="-711.9" font-family="Arial" font-size="14.00" fill="#666666">[integer]</text>
<polygon fill="none" stroke="#000000" points="867,-670.5 867,-700.5 1161,-700.5 1161,-670.5 867,-670.5"/>
<text text-anchor="start" x="874" y="-681.9" font-family="Arial" font-size="14.00" fill="#000000">sender_user_id    </text>
<text text-anchor="start" x="1004.676" y="-681.9" font-family="Arial" font-size="14.00" fill="#666666">[integer]</text>
<polygon fill="none" stroke="#000000" points="867,-640.5 867,-670.5 1161,-670.5 1161,-640.5 867,-640.5"/>
<text text-anchor="start" x="874" y="-651.9" font-family="Arial" font-size="14.00" fill="#000000">receiver_user_id    </text>
<text text-anchor="start" x="1011.6606" y="-651.9" font-family="Arial" font-size="14.00" fill="#666666">[integer]</text>
<polygon fill="none" stroke="#000000" points="867,-610.5 867,-640.5 1161,-640.5 1161,-610.5 867,-610.5"/>
<text text-anchor="start" x="874" y="-621.9" font-family="Arial" font-size="14.00" fill="#000000">message_body    </text>
<text text-anchor="start" x="1003.1262" y="-621.9" font-family="Arial" font-size="14.00" fill="#666666">[varchar(255)]</text>
<polygon fill="none" stroke="#000000" points="867,-580.5 867,-610.5 1161,-610.5 1161,-580.5 867,-580.5"/>
<text text-anchor="start" x="874" y="-591.9" font-family="Arial" font-size="14.00" fill="#000000">status    </text>
<text text-anchor="start" x="945.5512" y="-591.9" font-family="Arial" font-size="14.00" fill="#666666">[integer]</text>
<polygon fill="none" stroke="#000000" points="867,-550.5 867,-580.5 1161,-580.5 1161,-550.5 867,-550.5"/>
<text text-anchor="start" x="873.5891" y="-561.9" font-family="Arial" font-size="14.00" fill="#000000">sent_date    </text>
<text text-anchor="start" x="969.2707" y="-561.9" font-family="Arial" font-size="14.00" fill="#666666">[timestamp without time zone]</text>
</g>
<!-- public.messages&#45;&gt;public.users -->
<g id="edge4" class="edge">
<title>public.messages:receiver_user_id&#45;&gt;public.users:id</title>
<path fill="none" stroke="#000000" d="M1169.5385,-650.2529C1206.5238,-602.2129 1201.0502,-240.5 1158,-240.5"/>
<polygon fill="#000000" stroke="#000000" points="1169.5199,-650.2643 1158.6439,-651.6661 1165.2599,-652.8821 1161,-655.5 1161,-655.5 1161,-655.5 1165.2599,-652.8821 1163.3561,-659.3339 1169.5199,-650.2643 1169.5199,-650.2643"/>
<text text-anchor="start" x="1167.778" y="-665.5" font-family="Arial" font-size="10.00" fill="#000000">FOREIGN KEY (receiver_user_id) REFERENCES users(id)</text>
</g>
<!-- public.messages&#45;&gt;public.users -->
<g id="edge5" class="edge">
<title>public.messages:sender_user_id&#45;&gt;public.users:id</title>
<path fill="none" stroke="#000000" d="M1169.9088,-680.1924C1209.8659,-629.9853 1204.2586,-240.5 1158,-240.5"/>
<polygon fill="#000000" stroke="#000000" points="1169.5909,-680.3817 1158.6968,-681.6341 1165.2955,-682.9409 1161,-685.5 1161,-685.5 1161,-685.5 1165.2955,-682.9409 1163.3032,-689.3659 1169.5909,-680.3817 1169.5909,-680.3817"/>
<text text-anchor="start" x="1168.2725" y="-695.5" font-family="Arial" font-size="10.00" fill="#000000">FOREIGN KEY (sender_user_id) REFERENCES users(id)</text>
</g>
<!-- public.boards -->
<g id="node5" class="node">
<title>public.boards</title>
<polygon fill="#efefef" stroke="transparent" points="1265,-715.5 1265,-750.5 1583,-750.5 1583,-715.5 1265,-715.5"/>
<polygon fill="none" stroke="#000000" points="1265,-715.5 1265,-750.5 1583,-750.5 1583,-715.5 1265,-715.5"/>
<text text-anchor="start" x="1306.7029" y="-728.3" font-family="Arial Bold" font-size="18.00" fill="#000000">public.boards</text>
<text text-anchor="start" x="1413.7291" y="-728.3" font-family="Arial" font-size="14.00" fill="#000000">    </text>
<text text-anchor="start" x="1447.9339" y="-728.3" font-family="Arial" font-size="14.00" fill="#666666">[BASE TABLE]</text>
<polygon fill="none" stroke="#000000" points="1265,-685.5 1265,-715.5 1583,-715.5 1583,-685.5 1265,-685.5"/>
<text text-anchor="start" x="1272" y="-696.9" font-family="Arial" font-size="14.00" fill="#000000">id    </text>
<text text-anchor="start" x="1317.094" y="-696.9" font-family="Arial" font-size="14.00" fill="#666666">[integer]</text>
<polygon fill="none" stroke="#000000" points="1265,-655.5 1265,-685.5 1583,-685.5 1583,-655.5 1265,-655.5"/>
<text text-anchor="start" x="1272" y="-666.9" font-family="Arial" font-size="14.00" fill="#000000">user_id    </text>
<text text-anchor="start" x="1352.1024" y="-666.9" font-family="Arial" font-size="14.00" fill="#666666">[integer]</text>
<polygon fill="none" stroke="#000000" points="1265,-625.5 1265,-655.5 1583,-655.5 1583,-625.5 1265,-625.5"/>
<text text-anchor="start" x="1272" y="-636.9" font-family="Arial" font-size="14.00" fill="#000000">body    </text>
<text text-anchor="start" x="1336.5526" y="-636.9" font-family="Arial" font-size="14.00" fill="#666666">[varchar(255)]</text>
<polygon fill="none" stroke="#000000" points="1265,-595.5 1265,-625.5 1583,-625.5 1583,-595.5 1265,-595.5"/>
<text text-anchor="start" x="1272" y="-606.9" font-family="Arial" font-size="14.00" fill="#000000">created_date    </text>
<text text-anchor="start" x="1387.9074" y="-606.9" font-family="Arial" font-size="14.00" fill="#666666">[timestamp without time zone]</text>
<polygon fill="none" stroke="#000000" points="1265,-565.5 1265,-595.5 1583,-595.5 1583,-565.5 1265,-565.5"/>
<text text-anchor="start" x="1271.5239" y="-576.9" font-family="Arial" font-size="14.00" fill="#000000">updated_date    </text>
<text text-anchor="start" x="1391.3359" y="-576.9" font-family="Arial" font-size="14.00" fill="#666666">[timestamp without time zone]</text>
</g>
<!-- public.boards&#45;&gt;public.users -->
<g id="edge6" class="edge">
<title>public.boards:user_id&#45;&gt;public.users:id</title>
<path fill="none" stroke="#000000" d="M1254.8701,-668.4746C1201.4337,-645.5133 1230.7307,-433.9151 1213,-373 1195.1805,-311.7799 1221.7607,-240.5 1158,-240.5"/>
<polygon fill="#000000" stroke="#000000" points="1255.1941,-668.5393 1264.1177,-674.9127 1260.097,-669.5197 1265,-670.5 1265,-670.5 1265,-670.5 1260.097,-669.5197 1265.8823,-666.0873 1255.1941,-668.5393 1255.1941,-668.5393"/>
<text text-anchor="start" x="1094.5845" y="-654.5" font-family="Arial" font-size="10.00" fill="#000000">FOREIGN KEY (user_id) REFERENCES users(id)</text>
</g>
<!-- public.sessions -->
<g id="node6" class="node">
<title>public.sessions</title>
<polygon fill="#efefef" stroke="transparent" points="1688,-760.5 1688,-795.5 2003,-795.5 2003,-760.5 1688,-760.5"/>
<polygon fill="none" stroke="#000000" points="1688,-760.5 1688,-795.5 2003,-795.5 2003,-760.5 1688,-760.5"/>
<text text-anchor="start" x="1720.705" y="-773.3" font-family="Arial Bold" font-size="18.00" fill="#000000">public.sessions</text>
<text text-anchor="start" x="1842.727" y="-773.3" font-family="Arial" font-size="14.00" fill="#000000">    </text>
<text text-anchor="start" x="1876.9318" y="-773.3" font-family="Arial" font-size="14.00" fill="#666666">[BASE TABLE]</text>
<polygon fill="none" stroke="#000000" points="1688,-730.5 1688,-760.5 2003,-760.5 2003,-730.5 1688,-730.5"/>
<text text-anchor="start" x="1695" y="-741.9" font-family="Arial" font-size="14.00" fill="#000000">id    </text>
<text text-anchor="start" x="1740.094" y="-741.9" font-family="Arial" font-size="14.00" fill="#666666">[uuid]</text>
<polygon fill="none" stroke="#000000" points="1688,-700.5 1688,-730.5 2003,-730.5 2003,-700.5 1688,-700.5"/>
<text text-anchor="start" x="1695" y="-711.9" font-family="Arial" font-size="14.00" fill="#000000">user_name    </text>
<text text-anchor="start" x="1799.2216" y="-711.9" font-family="Arial" font-size="14.00" fill="#666666">[varchar(255)]</text>
<polygon fill="none" stroke="#000000" points="1688,-670.5 1688,-700.5 2003,-700.5 2003,-670.5 1688,-670.5"/>
<text text-anchor="start" x="1695" y="-681.9" font-family="Arial" font-size="14.00" fill="#000000">refresh_token    </text>
<text text-anchor="start" x="1814.7854" y="-681.9" font-family="Arial" font-size="14.00" fill="#666666">[varchar]</text>
<polygon fill="none" stroke="#000000" points="1688,-640.5 1688,-670.5 2003,-670.5 2003,-640.5 1688,-640.5"/>
<text text-anchor="start" x="1695" y="-651.9" font-family="Arial" font-size="14.00" fill="#000000">user_agent    </text>
<text text-anchor="start" x="1799.2342" y="-651.9" font-family="Arial" font-size="14.00" fill="#666666">[varchar]</text>
<polygon fill="none" stroke="#000000" points="1688,-610.5 1688,-640.5 2003,-640.5 2003,-610.5 1688,-610.5"/>
<text text-anchor="start" x="1695" y="-621.9" font-family="Arial" font-size="14.00" fill="#000000">client_ip    </text>
<text text-anchor="start" x="1780.5456" y="-621.9" font-family="Arial" font-size="14.00" fill="#666666">[varchar]</text>
<polygon fill="none" stroke="#000000" points="1688,-580.5 1688,-610.5 2003,-610.5 2003,-580.5 1688,-580.5"/>
<text text-anchor="start" x="1695" y="-591.9" font-family="Arial" font-size="14.00" fill="#000000">is_blocked    </text>
<text text-anchor="start" x="1795.331" y="-591.9" font-family="Arial" font-size="14.00" fill="#666666">[boolean]</text>
<polygon fill="none" stroke="#000000" points="1688,-550.5 1688,-580.5 2003,-580.5 2003,-550.5 1688,-550.5"/>
<text text-anchor="start" x="1695" y="-561.9" font-family="Arial" font-size="14.00" fill="#000000">expires_date    </text>
<text text-anchor="start" x="1809.3408" y="-561.9" font-family="Arial" font-size="14.00" fill="#666666">[timestamp without time zone]</text>
<polygon fill="none" stroke="#000000" points="1688,-520.5 1688,-550.5 2003,-550.5 2003,-520.5 1688,-520.5"/>
<text text-anchor="start" x="1694.9762" y="-531.9" font-family="Arial" font-size="14.00" fill="#000000">created_date    </text>
<text text-anchor="start" x="1810.8836" y="-531.9" font-family="Arial" font-size="14.00" fill="#666666">[timestamp without time zone]</text>
</g>
<!-- public.sessions&#45;&gt;public.users -->
<g id="edge7" class="edge">
<title>public.sessions:user_name&#45;&gt;public.users:user_name</title>
<path fill="none" stroke="#000000" d="M1678.1336,-713.6836C1617.6047,-689.4156 1682.1771,-429.2395 1635,-373 1563.0312,-287.2066 1269.9822,-210.5 1158,-210.5"/>
<polygon fill="#000000" stroke="#000000" points="1678.1653,-713.6893 1687.1852,-719.9256 1683.0826,-714.5947 1688,-715.5 1688,-715.5 1688,-715.5 1683.0826,-714.5947 1688.8148,-711.0744 1678.1653,-713.6893 1678.1653,-713.6893"/>
<text text-anchor="start" x="1694.6035" y="-725.5" font-family="Arial" font-size="10.00" fill="#000000">FOREIGN KEY (user_name) REFERENCES users(user_name)</text>
</g>
</g>
</svg>
