<?xml version="1.0" encoding="UTF-8" standalone="no"?>
<!DOCTYPE svg PUBLIC "-//W3C//DTD SVG 1.1//EN"
 "http://www.w3.org/Graphics/SVG/1.1/DTD/svg11.dtd">
<!-- Generated by graphviz version 2.40.1 (20161225.0304)
 -->
<!-- Title: public.likes Pages: 1 -->
<svg width="2028pt" height="946pt"
 viewBox="0.00 0.00 2027.50 946.00" xmlns="http://www.w3.org/2000/svg" xmlns:xlink="http://www.w3.org/1999/xlink">
<g id="graph0" class="graph" transform="scale(1 1) rotate(0) translate(4 942)">
<title>public.likes</title>
<polygon fill="#ffffff" stroke="transparent" points="-4,4 -4,-942 2023.5,-942 2023.5,4 -4,4"/>
<!-- public.likes -->
<g id="node1" class="node">
<title>public.likes</title>
<polygon fill="#efefef" stroke="transparent" points="46,-709.5 46,-744.5 312,-744.5 312,-709.5 46,-709.5"/>
<polygon fill="none" stroke="#000000" points="46,-709.5 46,-744.5 312,-744.5 312,-709.5 46,-709.5"/>
<text text-anchor="start" x="71.2141" y="-722.3" font-family="Arial Bold" font-size="18.00" fill="#000000">public.likes</text>
<text text-anchor="start" x="159.2179" y="-722.3" font-family="Arial" font-size="14.00" fill="#000000">    </text>
<text text-anchor="start" x="193.4227" y="-722.3" font-family="Arial" font-size="14.00" fill="#666666">[BASE TABLE]</text>
<polygon fill="none" stroke="#000000" points="46,-679.5 46,-709.5 312,-709.5 312,-679.5 46,-679.5"/>
<text text-anchor="start" x="53" y="-690.9" font-family="Arial" font-size="14.00" fill="#000000">user_id </text>
<text text-anchor="start" x="102.7882" y="-690.9" font-family="Arial" font-size="14.00" fill="#666666">[integer]</text>
<polygon fill="none" stroke="#000000" points="46,-649.5 46,-679.5 312,-679.5 312,-649.5 46,-649.5"/>
<text text-anchor="start" x="53" y="-660.9" font-family="Arial" font-size="14.00" fill="#000000">liked_user_id </text>
<text text-anchor="start" x="139.3492" y="-660.9" font-family="Arial" font-size="14.00" fill="#666666">[integer]</text>
<polygon fill="none" stroke="#000000" points="46,-619.5 46,-649.5 312,-649.5 312,-619.5 46,-619.5"/>
<text text-anchor="start" x="52.5849" y="-630.9" font-family="Arial" font-size="14.00" fill="#000000">liked_date </text>
<text text-anchor="start" x="120.2749" y="-630.9" font-family="Arial" font-size="14.00" fill="#666666">[timestamp without time zone]</text>
<polygon fill="none" stroke="#000000" points="46,-589.5 46,-619.5 312,-619.5 312,-589.5 46,-589.5"/>
<text text-anchor="start" x="53" y="-600.9" font-family="Arial" font-size="14.00" fill="#000000">status </text>
<text text-anchor="start" x="94.237" y="-600.9" font-family="Arial" font-size="14.00" fill="#666666">[integer]</text>
<polygon fill="none" stroke="#000000" points="46,-559.5 46,-589.5 312,-589.5 312,-559.5 46,-559.5"/>
<text text-anchor="start" x="53" y="-570.9" font-family="Arial" font-size="14.00" fill="#000000">message_body </text>
<text text-anchor="start" x="151.812" y="-570.9" font-family="Arial" font-size="14.00" fill="#666666">[varchar(255)]</text>
<polygon fill="none" stroke="#000000" stroke-width="3" points="44.5,-558.5 44.5,-746.5 313.5,-746.5 313.5,-558.5 44.5,-558.5"/>
</g>
<!-- public.users -->
<g id="node2" class="node">
<title>public.users</title>
<polygon fill="#efefef" stroke="transparent" points="829,-252.5 829,-287.5 1147,-287.5 1147,-252.5 829,-252.5"/>
<polygon fill="none" stroke="#000000" points="829,-252.5 829,-287.5 1147,-287.5 1147,-252.5 829,-252.5"/>
<text text-anchor="start" x="876.2091" y="-265.3" font-family="Arial Bold" font-size="18.00" fill="#000000">public.users</text>
<text text-anchor="start" x="972.2229" y="-265.3" font-family="Arial" font-size="14.00" fill="#000000">    </text>
<text text-anchor="start" x="1006.4277" y="-265.3" font-family="Arial" font-size="14.00" fill="#666666">[BASE TABLE]</text>
<polygon fill="none" stroke="#000000" points="829,-222.5 829,-252.5 1147,-252.5 1147,-222.5 829,-222.5"/>
<text text-anchor="start" x="836" y="-233.9" font-family="Arial" font-size="14.00" fill="#000000">id    </text>
<text text-anchor="start" x="881.094" y="-233.9" font-family="Arial" font-size="14.00" fill="#666666">[integer]</text>
<polygon fill="none" stroke="#000000" points="829,-192.5 829,-222.5 1147,-222.5 1147,-192.5 829,-192.5"/>
<text text-anchor="start" x="836" y="-203.9" font-family="Arial" font-size="14.00" fill="#000000">user_name    </text>
<text text-anchor="start" x="940.2216" y="-203.9" font-family="Arial" font-size="14.00" fill="#666666">[varchar(255)]</text>
<polygon fill="none" stroke="#000000" points="829,-162.5 829,-192.5 1147,-192.5 1147,-162.5 829,-162.5"/>
<text text-anchor="start" x="836" y="-173.9" font-family="Arial" font-size="14.00" fill="#000000">hashed_password    </text>
<text text-anchor="start" x="983.798" y="-173.9" font-family="Arial" font-size="14.00" fill="#666666">[varchar(255)]</text>
<polygon fill="none" stroke="#000000" points="829,-132.5 829,-162.5 1147,-162.5 1147,-132.5 829,-132.5"/>
<text text-anchor="start" x="836" y="-143.9" font-family="Arial" font-size="14.00" fill="#000000">status    </text>
<text text-anchor="start" x="907.5512" y="-143.9" font-family="Arial" font-size="14.00" fill="#666666">[integer]</text>
<polygon fill="none" stroke="#000000" points="829,-102.5 829,-132.5 1147,-132.5 1147,-102.5 829,-102.5"/>
<text text-anchor="start" x="836" y="-113.9" font-family="Arial" font-size="14.00" fill="#000000">email    </text>
<text text-anchor="start" x="903.6438" y="-113.9" font-family="Arial" font-size="14.00" fill="#666666">[varchar(255)]</text>
<polygon fill="none" stroke="#000000" points="829,-72.5 829,-102.5 1147,-102.5 1147,-72.5 829,-72.5"/>
<text text-anchor="start" x="836" y="-83.9" font-family="Arial" font-size="14.00" fill="#000000">created_date    </text>
<text text-anchor="start" x="951.9074" y="-83.9" font-family="Arial" font-size="14.00" fill="#666666">[timestamp without time zone]</text>
<polygon fill="none" stroke="#000000" points="829,-42.5 829,-72.5 1147,-72.5 1147,-42.5 829,-42.5"/>
<text text-anchor="start" x="835.5239" y="-53.9" font-family="Arial" font-size="14.00" fill="#000000">updated_date    </text>
<text text-anchor="start" x="955.3359" y="-53.9" font-family="Arial" font-size="14.00" fill="#666666">[timestamp without time zone]</text>
</g>
<!-- public.likes&#45;&gt;public.users -->
<g id="edge1" class="edge">
<title>public.likes:user_id&#45;&gt;public.users:id</title>
<path fill="none" stroke="#000000" d="M321.8252,-692.6073C379.4249,-668.3975 320.0883,-419.2152 367,-367 438.2586,-287.6853 722.3763,-237.5 829,-237.5"/>
<polygon fill="#000000" stroke="#000000" points="321.8195,-692.6083 311.1487,-690.0812 316.9097,-693.5541 312,-694.5 312,-694.5 312,-694.5 316.9097,-693.5541 312.8513,-698.9188 321.8195,-692.6083 321.8195,-692.6083"/>
<text text-anchor="start" x="319.3345" y="-704.5" font-family="Arial" font-size="10.00" fill="#000000">FOREIGN KEY (user_id) REFERENCES users(id)</text>
</g>
<!-- public.likes&#45;&gt;public.users -->
<g id="edge3" class="edge">
<title>public.likes:liked_user_id&#45;&gt;public.users:id</title>
<path fill="none" stroke="#000000" d="M322.0113,-664.092C437.6716,-654.1159 278.7087,-463.6644 367,-367 438.9075,-288.2732 722.3763,-237.5 829,-237.5"/>
<polygon fill="#000000" stroke="#000000" points="321.9917,-664.0927 311.8167,-660.0037 316.9959,-664.2964 312,-664.5 312,-664.5 312,-664.5 316.9959,-664.2964 312.1833,-668.9963 321.9917,-664.0927 321.9917,-664.0927"/>
<text text-anchor="start" x="319.277" y="-674.5" font-family="Arial" font-size="10.00" fill="#000000">FOREIGN KEY (liked_user_id) REFERENCES users(id)</text>
</g>
<!-- public.users_details -->
<g id="node3" class="node">
<title>public.users_details</title>
<polygon fill="#efefef" stroke="transparent" points="419,-859.5 419,-894.5 737,-894.5 737,-859.5 419,-859.5"/>
<polygon fill="none" stroke="#000000" points="419,-859.5 419,-894.5 737,-894.5 737,-859.5 419,-859.5"/>
<text text-anchor="start" x="435.2014" y="-872.3" font-family="Arial Bold" font-size="18.00" fill="#000000">public.users_details</text>
<text text-anchor="start" x="593.2306" y="-872.3" font-family="Arial" font-size="14.00" fill="#000000">    </text>
<text text-anchor="start" x="627.4354" y="-872.3" font-family="Arial" font-size="14.00" fill="#666666">[BASE TABLE]</text>
<polygon fill="none" stroke="#000000" points="419,-829.5 419,-859.5 737,-859.5 737,-829.5 419,-829.5"/>
<text text-anchor="start" x="426" y="-840.9" font-family="Arial" font-size="14.00" fill="#000000">id    </text>
<text text-anchor="start" x="471.094" y="-840.9" font-family="Arial" font-size="14.00" fill="#666666">[integer]</text>
<polygon fill="none" stroke="#000000" points="419,-799.5 419,-829.5 737,-829.5 737,-799.5 419,-799.5"/>
<text text-anchor="start" x="426" y="-810.9" font-family="Arial" font-size="14.00" fill="#000000">user_id    </text>
<text text-anchor="start" x="506.1024" y="-810.9" font-family="Arial" font-size="14.00" fill="#666666">[integer]</text>
<polygon fill="none" stroke="#000000" points="419,-769.5 419,-799.5 737,-799.5 737,-769.5 419,-769.5"/>
<text text-anchor="start" x="426" y="-780.9" font-family="Arial" font-size="14.00" fill="#000000">name    </text>
<text text-anchor="start" x="495.2132" y="-780.9" font-family="Arial" font-size="14.00" fill="#666666">[varchar(255)]</text>
<polygon fill="none" stroke="#000000" points="419,-739.5 419,-769.5 737,-769.5 737,-739.5 419,-739.5"/>
<text text-anchor="start" x="426" y="-750.9" font-family="Arial" font-size="14.00" fill="#000000">age    </text>
<text text-anchor="start" x="483.5526" y="-750.9" font-family="Arial" font-size="14.00" fill="#666666">[integer]</text>
<polygon fill="none" stroke="#000000" points="419,-709.5 419,-739.5 737,-739.5 737,-709.5 419,-709.5"/>
<text text-anchor="start" x="426" y="-720.9" font-family="Arial" font-size="14.00" fill="#000000">gender    </text>
<text text-anchor="start" x="503.7784" y="-720.9" font-family="Arial" font-size="14.00" fill="#666666">[varchar(255)]</text>
<polygon fill="none" stroke="#000000" points="419,-679.5 419,-709.5 737,-709.5 737,-679.5 419,-679.5"/>
<text text-anchor="start" x="426" y="-690.9" font-family="Arial" font-size="14.00" fill="#000000">height    </text>
<text text-anchor="start" x="498.3324" y="-690.9" font-family="Arial" font-size="14.00" fill="#666666">[integer]</text>
<polygon fill="none" stroke="#000000" points="419,-649.5 419,-679.5 737,-679.5 737,-649.5 419,-649.5"/>
<text text-anchor="start" x="426" y="-660.9" font-family="Arial" font-size="14.00" fill="#000000">location    </text>
<text text-anchor="start" x="508.439" y="-660.9" font-family="Arial" font-size="14.00" fill="#666666">[varchar(255)]</text>
<polygon fill="none" stroke="#000000" points="419,-619.5 419,-649.5 737,-649.5 737,-619.5 419,-619.5"/>
<text text-anchor="start" x="426" y="-630.9" font-family="Arial" font-size="14.00" fill="#000000">work    </text>
<text text-anchor="start" x="489.7546" y="-630.9" font-family="Arial" font-size="14.00" fill="#666666">[varchar(255)]</text>
<polygon fill="none" stroke="#000000" points="419,-589.5 419,-619.5 737,-619.5 737,-589.5 419,-589.5"/>
<text text-anchor="start" x="426" y="-600.9" font-family="Arial" font-size="14.00" fill="#000000">graduation    </text>
<text text-anchor="start" x="526.3408" y="-600.9" font-family="Arial" font-size="14.00" fill="#666666">[varchar(255)]</text>
<polygon fill="none" stroke="#000000" points="419,-559.5 419,-589.5 737,-589.5 737,-559.5 419,-559.5"/>
<text text-anchor="start" x="426" y="-570.9" font-family="Arial" font-size="14.00" fill="#000000">hobby    </text>
<text text-anchor="start" x="498.3352" y="-570.9" font-family="Arial" font-size="14.00" fill="#666666">[varchar(255)]</text>
<polygon fill="none" stroke="#000000" points="419,-529.5 419,-559.5 737,-559.5 737,-529.5 419,-529.5"/>
<text text-anchor="start" x="426" y="-540.9" font-family="Arial" font-size="14.00" fill="#000000">passion    </text>
<text text-anchor="start" x="508.4418" y="-540.9" font-family="Arial" font-size="14.00" fill="#666666">[varchar(255)]</text>
<polygon fill="none" stroke="#000000" points="419,-499.5 419,-529.5 737,-529.5 737,-499.5 419,-499.5"/>
<text text-anchor="start" x="426" y="-510.9" font-family="Arial" font-size="14.00" fill="#000000">tweet    </text>
<text text-anchor="start" x="493.6578" y="-510.9" font-family="Arial" font-size="14.00" fill="#666666">[varchar]</text>
<polygon fill="none" stroke="#000000" points="419,-469.5 419,-499.5 737,-499.5 737,-469.5 419,-469.5"/>
<text text-anchor="start" x="426" y="-480.9" font-family="Arial" font-size="14.00" fill="#000000">introduction    </text>
<text text-anchor="start" x="532.5554" y="-480.9" font-family="Arial" font-size="14.00" fill="#666666">[varchar]</text>
<polygon fill="none" stroke="#000000" points="419,-439.5 419,-469.5 737,-469.5 737,-439.5 419,-439.5"/>
<text text-anchor="start" x="426" y="-450.9" font-family="Arial" font-size="14.00" fill="#000000">created_date    </text>
<text text-anchor="start" x="541.9074" y="-450.9" font-family="Arial" font-size="14.00" fill="#666666">[timestamp without time zone]</text>
<polygon fill="none" stroke="#000000" points="419,-409.5 419,-439.5 737,-439.5 737,-409.5 419,-409.5"/>
<text text-anchor="start" x="425.5239" y="-420.9" font-family="Arial" font-size="14.00" fill="#000000">updated_date    </text>
<text text-anchor="start" x="545.3359" y="-420.9" font-family="Arial" font-size="14.00" fill="#666666">[timestamp without time zone]</text>
</g>
<!-- public.users_details&#45;&gt;public.users -->
<g id="edge2" class="edge">
<title>public.users_details:user_id&#45;&gt;public.users:id</title>
<path fill="none" stroke="#000000" d="M745.9714,-809.7337C786.0548,-764.5805 779.3462,-412.8246 789,-367 801.4179,-308.0552 768.7614,-237.5 829,-237.5"/>
<polygon fill="#000000" stroke="#000000" points="745.8311,-809.8082 734.8887,-810.526 741.4155,-812.1541 737,-814.5 737,-814.5 737,-814.5 741.4155,-812.1541 739.1113,-818.474 745.8311,-809.8082 745.8311,-809.8082"/>
<text text-anchor="start" x="744.3345" y="-824.5" font-family="Arial" font-size="10.00" fill="#000000">FOREIGN KEY (user_id) REFERENCES users(id)</text>
</g>
<!-- public.messages -->
<g id="node4" class="node">
<title>public.messages</title>
<polygon fill="#efefef" stroke="transparent" points="841,-724.5 841,-759.5 1135,-759.5 1135,-724.5 841,-724.5"/>
<polygon fill="none" stroke="#000000" points="841,-724.5 841,-759.5 1135,-759.5 1135,-724.5 841,-724.5"/>
<text text-anchor="start" x="857.2029" y="-737.3" font-family="Arial Bold" font-size="18.00" fill="#000000">public.messages</text>
<text text-anchor="start" x="991.2291" y="-737.3" font-family="Arial" font-size="14.00" fill="#000000">    </text>
<text text-anchor="start" x="1025.4339" y="-737.3" font-family="Arial" font-size="14.00" fill="#666666">[BASE TABLE]</text>
<polygon fill="none" stroke="#000000" points="841,-694.5 841,-724.5 1135,-724.5 1135,-694.5 841,-694.5"/>
<text text-anchor="start" x="848" y="-705.9" font-family="Arial" font-size="14.00" fill="#000000">id    </text>
<text text-anchor="start" x="893.094" y="-705.9" font-family="Arial" font-size="14.00" fill="#666666">[integer]</text>
<polygon fill="none" stroke="#000000" points="841,-664.5 841,-694.5 1135,-694.5 1135,-664.5 841,-664.5"/>
<text text-anchor="start" x="848" y="-675.9" font-family="Arial" font-size="14.00" fill="#000000">sender_user_id    </text>
<text text-anchor="start" x="978.676" y="-675.9" font-family="Arial" font-size="14.00" fill="#666666">[integer]</text>
<polygon fill="none" stroke="#000000" points="841,-634.5 841,-664.5 1135,-664.5 1135,-634.5 841,-634.5"/>
<text text-anchor="start" x="848" y="-645.9" font-family="Arial" font-size="14.00" fill="#000000">receiver_user_id    </text>
<text text-anchor="start" x="985.6606" y="-645.9" font-family="Arial" font-size="14.00" fill="#666666">[integer]</text>
<polygon fill="none" stroke="#000000" points="841,-604.5 841,-634.5 1135,-634.5 1135,-604.5 841,-604.5"/>
<text text-anchor="start" x="848" y="-615.9" font-family="Arial" font-size="14.00" fill="#000000">message_body    </text>
<text text-anchor="start" x="977.1262" y="-615.9" font-family="Arial" font-size="14.00" fill="#666666">[varchar(255)]</text>
<polygon fill="none" stroke="#000000" points="841,-574.5 841,-604.5 1135,-604.5 1135,-574.5 841,-574.5"/>
<text text-anchor="start" x="848" y="-585.9" font-family="Arial" font-size="14.00" fill="#000000">status    </text>
<text text-anchor="start" x="919.5512" y="-585.9" font-family="Arial" font-size="14.00" fill="#666666">[integer]</text>
<polygon fill="none" stroke="#000000" points="841,-544.5 841,-574.5 1135,-574.5 1135,-544.5 841,-544.5"/>
<text text-anchor="start" x="847.5891" y="-555.9" font-family="Arial" font-size="14.00" fill="#000000">sent_date    </text>
<text text-anchor="start" x="943.2707" y="-555.9" font-family="Arial" font-size="14.00" fill="#666666">[timestamp without time zone]</text>
</g>
<!-- public.messages&#45;&gt;public.users -->
<g id="edge4" class="edge">
<title>public.messages:receiver_user_id&#45;&gt;public.users:id</title>
<path fill="none" stroke="#000000" d="M1143.6695,-644.2908C1182.1361,-596.5981 1189.756,-237.5 1147,-237.5"/>
<polygon fill="#000000" stroke="#000000" points="1143.5717,-644.3495 1132.6823,-645.6427 1139.2858,-646.9248 1135,-649.5 1135,-649.5 1135,-649.5 1139.2858,-646.9248 1137.3177,-653.3573 1143.5717,-644.3495 1143.5717,-644.3495"/>
<text text-anchor="start" x="1141.778" y="-659.5" font-family="Arial" font-size="10.00" fill="#000000">FOREIGN KEY (receiver_user_id) REFERENCES users(id)</text>
</g>
<!-- public.messages&#45;&gt;public.users -->
<g id="edge5" class="edge">
<title>public.messages:sender_user_id&#45;&gt;public.users:id</title>
<path fill="none" stroke="#000000" d="M1143.7708,-674.5361C1185.3904,-625.9766 1193.0586,-237.5 1147,-237.5"/>
<polygon fill="#000000" stroke="#000000" points="1143.7029,-674.5745 1132.7835,-675.5837 1139.3514,-677.0373 1135,-679.5 1135,-679.5 1135,-679.5 1139.3514,-677.0373 1137.2165,-683.4163 1143.7029,-674.5745 1143.7029,-674.5745"/>
<text text-anchor="start" x="1142.2725" y="-689.5" font-family="Arial" font-size="10.00" fill="#000000">FOREIGN KEY (sender_user_id) REFERENCES users(id)</text>
</g>
<!-- public.boards -->
<g id="node5" class="node">
<title>public.boards</title>
<polygon fill="#efefef" stroke="transparent" points="1239,-709.5 1239,-744.5 1557,-744.5 1557,-709.5 1239,-709.5"/>
<polygon fill="none" stroke="#000000" points="1239,-709.5 1239,-744.5 1557,-744.5 1557,-709.5 1239,-709.5"/>
<text text-anchor="start" x="1280.7029" y="-722.3" font-family="Arial Bold" font-size="18.00" fill="#000000">public.boards</text>
<text text-anchor="start" x="1387.7291" y="-722.3" font-family="Arial" font-size="14.00" fill="#000000">    </text>
<text text-anchor="start" x="1421.9339" y="-722.3" font-family="Arial" font-size="14.00" fill="#666666">[BASE TABLE]</text>
<polygon fill="none" stroke="#000000" points="1239,-679.5 1239,-709.5 1557,-709.5 1557,-679.5 1239,-679.5"/>
<text text-anchor="start" x="1246" y="-690.9" font-family="Arial" font-size="14.00" fill="#000000">id    </text>
<text text-anchor="start" x="1291.094" y="-690.9" font-family="Arial" font-size="14.00" fill="#666666">[integer]</text>
<polygon fill="none" stroke="#000000" points="1239,-649.5 1239,-679.5 1557,-679.5 1557,-649.5 1239,-649.5"/>
<text text-anchor="start" x="1246" y="-660.9" font-family="Arial" font-size="14.00" fill="#000000">user_id    </text>
<text text-anchor="start" x="1326.1024" y="-660.9" font-family="Arial" font-size="14.00" fill="#666666">[integer]</text>
<polygon fill="none" stroke="#000000" points="1239,-619.5 1239,-649.5 1557,-649.5 1557,-619.5 1239,-619.5"/>
<text text-anchor="start" x="1246" y="-630.9" font-family="Arial" font-size="14.00" fill="#000000">body    </text>
<text text-anchor="start" x="1310.5526" y="-630.9" font-family="Arial" font-size="14.00" fill="#666666">[varchar(255)]</text>
<polygon fill="none" stroke="#000000" points="1239,-589.5 1239,-619.5 1557,-619.5 1557,-589.5 1239,-589.5"/>
<text text-anchor="start" x="1246" y="-600.9" font-family="Arial" font-size="14.00" fill="#000000">created_date    </text>
<text text-anchor="start" x="1361.9074" y="-600.9" font-family="Arial" font-size="14.00" fill="#666666">[timestamp without time zone]</text>
<polygon fill="none" stroke="#000000" points="1239,-559.5 1239,-589.5 1557,-589.5 1557,-559.5 1239,-559.5"/>
<text text-anchor="start" x="1245.5239" y="-570.9" font-family="Arial" font-size="14.00" fill="#000000">updated_date    </text>
<text text-anchor="start" x="1365.3359" y="-570.9" font-family="Arial" font-size="14.00" fill="#666666">[timestamp without time zone]</text>
</g>
<!-- public.boards&#45;&gt;public.users -->
<g id="edge6" class="edge">
<title>public.boards:user_id&#45;&gt;public.users:id</title>
<path fill="none" stroke="#000000" d="M1228.9964,-662.7796C1149.2395,-633.3966 1240.4643,-237.5 1147,-237.5"/>
<polygon fill="#000000" stroke="#000000" points="1229.1447,-662.805 1238.2372,-668.9349 1234.0723,-663.6525 1239,-664.5 1239,-664.5 1239,-664.5 1234.0723,-663.6525 1239.7628,-660.0651 1229.1447,-662.805 1229.1447,-662.805"/>
<text text-anchor="start" x="1068.5845" y="-648.5" font-family="Arial" font-size="10.00" fill="#000000">FOREIGN KEY (user_id) REFERENCES users(id)</text>
</g>
<!-- public.sessions -->
<g id="node6" class="node">
<title>public.sessions</title>
<polygon fill="#efefef" stroke="transparent" points="1662,-754.5 1662,-789.5 1977,-789.5 1977,-754.5 1662,-754.5"/>
<polygon fill="none" stroke="#000000" points="1662,-754.5 1662,-789.5 1977,-789.5 1977,-754.5 1662,-754.5"/>
<text text-anchor="start" x="1694.705" y="-767.3" font-family="Arial Bold" font-size="18.00" fill="#000000">public.sessions</text>
<text text-anchor="start" x="1816.727" y="-767.3" font-family="Arial" font-size="14.00" fill="#000000">    </text>
<text text-anchor="start" x="1850.9318" y="-767.3" font-family="Arial" font-size="14.00" fill="#666666">[BASE TABLE]</text>
<polygon fill="none" stroke="#000000" points="1662,-724.5 1662,-754.5 1977,-754.5 1977,-724.5 1662,-724.5"/>
<text text-anchor="start" x="1669" y="-735.9" font-family="Arial" font-size="14.00" fill="#000000">id    </text>
<text text-anchor="start" x="1714.094" y="-735.9" font-family="Arial" font-size="14.00" fill="#666666">[uuid]</text>
<polygon fill="none" stroke="#000000" points="1662,-694.5 1662,-724.5 1977,-724.5 1977,-694.5 1662,-694.5"/>
<text text-anchor="start" x="1669" y="-705.9" font-family="Arial" font-size="14.00" fill="#000000">user_name    </text>
<text text-anchor="start" x="1773.2216" y="-705.9" font-family="Arial" font-size="14.00" fill="#666666">[varchar(255)]</text>
<polygon fill="none" stroke="#000000" points="1662,-664.5 1662,-694.5 1977,-694.5 1977,-664.5 1662,-664.5"/>
<text text-anchor="start" x="1669" y="-675.9" font-family="Arial" font-size="14.00" fill="#000000">refresh_token    </text>
<text text-anchor="start" x="1788.7854" y="-675.9" font-family="Arial" font-size="14.00" fill="#666666">[varchar]</text>
<polygon fill="none" stroke="#000000" points="1662,-634.5 1662,-664.5 1977,-664.5 1977,-634.5 1662,-634.5"/>
<text text-anchor="start" x="1669" y="-645.9" font-family="Arial" font-size="14.00" fill="#000000">user_agent    </text>
<text text-anchor="start" x="1773.2342" y="-645.9" font-family="Arial" font-size="14.00" fill="#666666">[varchar]</text>
<polygon fill="none" stroke="#000000" points="1662,-604.5 1662,-634.5 1977,-634.5 1977,-604.5 1662,-604.5"/>
<text text-anchor="start" x="1669" y="-615.9" font-family="Arial" font-size="14.00" fill="#000000">client_ip    </text>
<text text-anchor="start" x="1754.5456" y="-615.9" font-family="Arial" font-size="14.00" fill="#666666">[varchar]</text>
<polygon fill="none" stroke="#000000" points="1662,-574.5 1662,-604.5 1977,-604.5 1977,-574.5 1662,-574.5"/>
<text text-anchor="start" x="1669" y="-585.9" font-family="Arial" font-size="14.00" fill="#000000">is_blocked    </text>
<text text-anchor="start" x="1769.331" y="-585.9" font-family="Arial" font-size="14.00" fill="#666666">[boolean]</text>
<polygon fill="none" stroke="#000000" points="1662,-544.5 1662,-574.5 1977,-574.5 1977,-544.5 1662,-544.5"/>
<text text-anchor="start" x="1669" y="-555.9" font-family="Arial" font-size="14.00" fill="#000000">expires_date    </text>
<text text-anchor="start" x="1783.3408" y="-555.9" font-family="Arial" font-size="14.00" fill="#666666">[timestamp without time zone]</text>
<polygon fill="none" stroke="#000000" points="1662,-514.5 1662,-544.5 1977,-544.5 1977,-514.5 1662,-514.5"/>
<text text-anchor="start" x="1668.9762" y="-525.9" font-family="Arial" font-size="14.00" fill="#000000">created_date    </text>
<text text-anchor="start" x="1784.8836" y="-525.9" font-family="Arial" font-size="14.00" fill="#666666">[timestamp without time zone]</text>
</g>
<!-- public.sessions&#45;&gt;public.users -->
<g id="edge7" class="edge">
<title>public.sessions:user_name&#45;&gt;public.users:user_name</title>
<path fill="none" stroke="#000000" d="M1652.1328,-707.6842C1591.5939,-683.4247 1656.0621,-423.3358 1609,-367 1539.3668,-283.6455 1255.6129,-207.5 1147,-207.5"/>
<polygon fill="#000000" stroke="#000000" points="1652.1651,-707.6901 1661.1855,-713.9257 1657.0826,-708.595 1662,-709.5 1662,-709.5 1662,-709.5 1657.0826,-708.595 1662.8145,-705.0743 1652.1651,-707.6901 1652.1651,-707.6901"/>
<text text-anchor="start" x="1668.6035" y="-719.5" font-family="Arial" font-size="10.00" fill="#000000">FOREIGN KEY (user_name) REFERENCES users(user_name)</text>
</g>
</g>
</svg>
