<?xml version="1.0" encoding="UTF-8" standalone="no"?>
<!DOCTYPE svg PUBLIC "-//W3C//DTD SVG 1.1//EN"
 "http://www.w3.org/Graphics/SVG/1.1/DTD/svg11.dtd">
<!-- Generated by graphviz version 2.40.1 (20161225.0304)
 -->
<!-- Title: public.boards Pages: 1 -->
<svg width="2030pt" height="946pt"
 viewBox="0.00 0.00 2029.50 946.00" xmlns="http://www.w3.org/2000/svg" xmlns:xlink="http://www.w3.org/1999/xlink">
<g id="graph0" class="graph" transform="scale(1 1) rotate(0) translate(4 942)">
<title>public.boards</title>
<polygon fill="#ffffff" stroke="transparent" points="-4,4 -4,-942 2025.5,-942 2025.5,4 -4,4"/>
<!-- public.boards -->
<g id="node1" class="node">
<title>public.boards</title>
<polygon fill="#efefef" stroke="transparent" points="46,-709.5 46,-744.5 334,-744.5 334,-709.5 46,-709.5"/>
<polygon fill="none" stroke="#000000" points="46,-709.5 46,-744.5 334,-744.5 334,-709.5 46,-709.5"/>
<text text-anchor="start" x="72.7029" y="-722.3" font-family="Arial Bold" font-size="18.00" fill="#000000">public.boards</text>
<text text-anchor="start" x="179.7291" y="-722.3" font-family="Arial" font-size="14.00" fill="#000000">    </text>
<text text-anchor="start" x="213.9339" y="-722.3" font-family="Arial" font-size="14.00" fill="#666666">[BASE TABLE]</text>
<polygon fill="none" stroke="#000000" points="46,-679.5 46,-709.5 334,-709.5 334,-679.5 46,-679.5"/>
<text text-anchor="start" x="53" y="-690.9" font-family="Arial" font-size="14.00" fill="#000000">id </text>
<text text-anchor="start" x="67.7798" y="-690.9" font-family="Arial" font-size="14.00" fill="#666666">[integer]</text>
<polygon fill="none" stroke="#000000" points="46,-649.5 46,-679.5 334,-679.5 334,-649.5 46,-649.5"/>
<text text-anchor="start" x="53" y="-660.9" font-family="Arial" font-size="14.00" fill="#000000">user_id </text>
<text text-anchor="start" x="102.7882" y="-660.9" font-family="Arial" font-size="14.00" fill="#666666">[integer]</text>
<polygon fill="none" stroke="#000000" points="46,-619.5 46,-649.5 334,-649.5 334,-619.5 46,-619.5"/>
<text text-anchor="start" x="53" y="-630.9" font-family="Arial" font-size="14.00" fill="#000000">body </text>
<text text-anchor="start" x="87.2384" y="-630.9" font-family="Arial" font-size="14.00" fill="#666666">[varchar(255)]</text>
<polygon fill="none" stroke="#000000" points="46,-589.5 46,-619.5 334,-619.5 334,-589.5 46,-589.5"/>
<text text-anchor="start" x="53" y="-600.9" font-family="Arial" font-size="14.00" fill="#000000">created_date </text>
<text text-anchor="start" x="138.5932" y="-600.9" font-family="Arial" font-size="14.00" fill="#666666">[timestamp without time zone]</text>
<polygon fill="none" stroke="#000000" points="46,-559.5 46,-589.5 334,-589.5 334,-559.5 46,-559.5"/>
<text text-anchor="start" x="52.681" y="-570.9" font-family="Arial" font-size="14.00" fill="#000000">updated_date </text>
<text text-anchor="start" x="142.1788" y="-570.9" font-family="Arial" font-size="14.00" fill="#666666">[timestamp without time zone]</text>
<polygon fill="none" stroke="#000000" stroke-width="3" points="44.5,-558.5 44.5,-746.5 335.5,-746.5 335.5,-558.5 44.5,-558.5"/>
</g>
<!-- public.users -->
<g id="node2" class="node">
<title>public.users</title>
<polygon fill="#efefef" stroke="transparent" points="854,-252.5 854,-287.5 1172,-287.5 1172,-252.5 854,-252.5"/>
<polygon fill="none" stroke="#000000" points="854,-252.5 854,-287.5 1172,-287.5 1172,-252.5 854,-252.5"/>
<text text-anchor="start" x="901.2091" y="-265.3" font-family="Arial Bold" font-size="18.00" fill="#000000">public.users</text>
<text text-anchor="start" x="997.2229" y="-265.3" font-family="Arial" font-size="14.00" fill="#000000">    </text>
<text text-anchor="start" x="1031.4277" y="-265.3" font-family="Arial" font-size="14.00" fill="#666666">[BASE TABLE]</text>
<polygon fill="none" stroke="#000000" points="854,-222.5 854,-252.5 1172,-252.5 1172,-222.5 854,-222.5"/>
<text text-anchor="start" x="861" y="-233.9" font-family="Arial" font-size="14.00" fill="#000000">id    </text>
<text text-anchor="start" x="906.094" y="-233.9" font-family="Arial" font-size="14.00" fill="#666666">[integer]</text>
<polygon fill="none" stroke="#000000" points="854,-192.5 854,-222.5 1172,-222.5 1172,-192.5 854,-192.5"/>
<text text-anchor="start" x="861" y="-203.9" font-family="Arial" font-size="14.00" fill="#000000">user_name    </text>
<text text-anchor="start" x="965.2216" y="-203.9" font-family="Arial" font-size="14.00" fill="#666666">[varchar(255)]</text>
<polygon fill="none" stroke="#000000" points="854,-162.5 854,-192.5 1172,-192.5 1172,-162.5 854,-162.5"/>
<text text-anchor="start" x="861" y="-173.9" font-family="Arial" font-size="14.00" fill="#000000">hashed_password    </text>
<text text-anchor="start" x="1008.798" y="-173.9" font-family="Arial" font-size="14.00" fill="#666666">[varchar(255)]</text>
<polygon fill="none" stroke="#000000" points="854,-132.5 854,-162.5 1172,-162.5 1172,-132.5 854,-132.5"/>
<text text-anchor="start" x="861" y="-143.9" font-family="Arial" font-size="14.00" fill="#000000">status    </text>
<text text-anchor="start" x="932.5512" y="-143.9" font-family="Arial" font-size="14.00" fill="#666666">[integer]</text>
<polygon fill="none" stroke="#000000" points="854,-102.5 854,-132.5 1172,-132.5 1172,-102.5 854,-102.5"/>
<text text-anchor="start" x="861" y="-113.9" font-family="Arial" font-size="14.00" fill="#000000">email    </text>
<text text-anchor="start" x="928.6438" y="-113.9" font-family="Arial" font-size="14.00" fill="#666666">[varchar(255)]</text>
<polygon fill="none" stroke="#000000" points="854,-72.5 854,-102.5 1172,-102.5 1172,-72.5 854,-72.5"/>
<text text-anchor="start" x="861" y="-83.9" font-family="Arial" font-size="14.00" fill="#000000">created_date    </text>
<text text-anchor="start" x="976.9074" y="-83.9" font-family="Arial" font-size="14.00" fill="#666666">[timestamp without time zone]</text>
<polygon fill="none" stroke="#000000" points="854,-42.5 854,-72.5 1172,-72.5 1172,-42.5 854,-42.5"/>
<text text-anchor="start" x="860.5239" y="-53.9" font-family="Arial" font-size="14.00" fill="#000000">updated_date    </text>
<text text-anchor="start" x="980.3359" y="-53.9" font-family="Arial" font-size="14.00" fill="#666666">[timestamp without time zone]</text>
</g>
<!-- public.boards&#45;&gt;public.users -->
<g id="edge1" class="edge">
<title>public.boards:user_id&#45;&gt;public.users:id</title>
<path fill="none" stroke="#000000" d="M344.0111,-664.0919C459.6674,-654.112 300.6276,-463.5903 389,-367 461.4069,-287.8598 746.7343,-237.5 854,-237.5"/>
<polygon fill="#000000" stroke="#000000" points="343.9917,-664.0926 333.8167,-660.0037 338.9959,-664.2963 334,-664.5 334,-664.5 334,-664.5 338.9959,-664.2963 334.1833,-668.9963 343.9917,-664.0926 343.9917,-664.0926"/>
<text text-anchor="start" x="222.8345" y="-648.5" font-family="Arial" font-size="10.00" fill="#000000">FOREIGN KEY (user_id) REFERENCES users(id)</text>
</g>
<!-- public.users_details -->
<g id="node3" class="node">
<title>public.users_details</title>
<polygon fill="#efefef" stroke="transparent" points="441,-859.5 441,-894.5 759,-894.5 759,-859.5 441,-859.5"/>
<polygon fill="none" stroke="#000000" points="441,-859.5 441,-894.5 759,-894.5 759,-859.5 441,-859.5"/>
<text text-anchor="start" x="457.2014" y="-872.3" font-family="Arial Bold" font-size="18.00" fill="#000000">public.users_details</text>
<text text-anchor="start" x="615.2306" y="-872.3" font-family="Arial" font-size="14.00" fill="#000000">    </text>
<text text-anchor="start" x="649.4354" y="-872.3" font-family="Arial" font-size="14.00" fill="#666666">[BASE TABLE]</text>
<polygon fill="none" stroke="#000000" points="441,-829.5 441,-859.5 759,-859.5 759,-829.5 441,-829.5"/>
<text text-anchor="start" x="448" y="-840.9" font-family="Arial" font-size="14.00" fill="#000000">id    </text>
<text text-anchor="start" x="493.094" y="-840.9" font-family="Arial" font-size="14.00" fill="#666666">[integer]</text>
<polygon fill="none" stroke="#000000" points="441,-799.5 441,-829.5 759,-829.5 759,-799.5 441,-799.5"/>
<text text-anchor="start" x="448" y="-810.9" font-family="Arial" font-size="14.00" fill="#000000">user_id    </text>
<text text-anchor="start" x="528.1024" y="-810.9" font-family="Arial" font-size="14.00" fill="#666666">[integer]</text>
<polygon fill="none" stroke="#000000" points="441,-769.5 441,-799.5 759,-799.5 759,-769.5 441,-769.5"/>
<text text-anchor="start" x="448" y="-780.9" font-family="Arial" font-size="14.00" fill="#000000">name    </text>
<text text-anchor="start" x="517.2132" y="-780.9" font-family="Arial" font-size="14.00" fill="#666666">[varchar(255)]</text>
<polygon fill="none" stroke="#000000" points="441,-739.5 441,-769.5 759,-769.5 759,-739.5 441,-739.5"/>
<text text-anchor="start" x="448" y="-750.9" font-family="Arial" font-size="14.00" fill="#000000">age    </text>
<text text-anchor="start" x="505.5526" y="-750.9" font-family="Arial" font-size="14.00" fill="#666666">[integer]</text>
<polygon fill="none" stroke="#000000" points="441,-709.5 441,-739.5 759,-739.5 759,-709.5 441,-709.5"/>
<text text-anchor="start" x="448" y="-720.9" font-family="Arial" font-size="14.00" fill="#000000">gender    </text>
<text text-anchor="start" x="525.7784" y="-720.9" font-family="Arial" font-size="14.00" fill="#666666">[varchar(255)]</text>
<polygon fill="none" stroke="#000000" points="441,-679.5 441,-709.5 759,-709.5 759,-679.5 441,-679.5"/>
<text text-anchor="start" x="448" y="-690.9" font-family="Arial" font-size="14.00" fill="#000000">height    </text>
<text text-anchor="start" x="520.3324" y="-690.9" font-family="Arial" font-size="14.00" fill="#666666">[integer]</text>
<polygon fill="none" stroke="#000000" points="441,-649.5 441,-679.5 759,-679.5 759,-649.5 441,-649.5"/>
<text text-anchor="start" x="448" y="-660.9" font-family="Arial" font-size="14.00" fill="#000000">location    </text>
<text text-anchor="start" x="530.439" y="-660.9" font-family="Arial" font-size="14.00" fill="#666666">[varchar(255)]</text>
<polygon fill="none" stroke="#000000" points="441,-619.5 441,-649.5 759,-649.5 759,-619.5 441,-619.5"/>
<text text-anchor="start" x="448" y="-630.9" font-family="Arial" font-size="14.00" fill="#000000">work    </text>
<text text-anchor="start" x="511.7546" y="-630.9" font-family="Arial" font-size="14.00" fill="#666666">[varchar(255)]</text>
<polygon fill="none" stroke="#000000" points="441,-589.5 441,-619.5 759,-619.5 759,-589.5 441,-589.5"/>
<text text-anchor="start" x="448" y="-600.9" font-family="Arial" font-size="14.00" fill="#000000">graduation    </text>
<text text-anchor="start" x="548.3408" y="-600.9" font-family="Arial" font-size="14.00" fill="#666666">[varchar(255)]</text>
<polygon fill="none" stroke="#000000" points="441,-559.5 441,-589.5 759,-589.5 759,-559.5 441,-559.5"/>
<text text-anchor="start" x="448" y="-570.9" font-family="Arial" font-size="14.00" fill="#000000">hobby    </text>
<text text-anchor="start" x="520.3352" y="-570.9" font-family="Arial" font-size="14.00" fill="#666666">[varchar(255)]</text>
<polygon fill="none" stroke="#000000" points="441,-529.5 441,-559.5 759,-559.5 759,-529.5 441,-529.5"/>
<text text-anchor="start" x="448" y="-540.9" font-family="Arial" font-size="14.00" fill="#000000">passion    </text>
<text text-anchor="start" x="530.4418" y="-540.9" font-family="Arial" font-size="14.00" fill="#666666">[varchar(255)]</text>
<polygon fill="none" stroke="#000000" points="441,-499.5 441,-529.5 759,-529.5 759,-499.5 441,-499.5"/>
<text text-anchor="start" x="448" y="-510.9" font-family="Arial" font-size="14.00" fill="#000000">tweet    </text>
<text text-anchor="start" x="515.6578" y="-510.9" font-family="Arial" font-size="14.00" fill="#666666">[varchar]</text>
<polygon fill="none" stroke="#000000" points="441,-469.5 441,-499.5 759,-499.5 759,-469.5 441,-469.5"/>
<text text-anchor="start" x="448" y="-480.9" font-family="Arial" font-size="14.00" fill="#000000">introduction    </text>
<text text-anchor="start" x="554.5554" y="-480.9" font-family="Arial" font-size="14.00" fill="#666666">[varchar]</text>
<polygon fill="none" stroke="#000000" points="441,-439.5 441,-469.5 759,-469.5 759,-439.5 441,-439.5"/>
<text text-anchor="start" x="448" y="-450.9" font-family="Arial" font-size="14.00" fill="#000000">created_date    </text>
<text text-anchor="start" x="563.9074" y="-450.9" font-family="Arial" font-size="14.00" fill="#666666">[timestamp without time zone]</text>
<polygon fill="none" stroke="#000000" points="441,-409.5 441,-439.5 759,-439.5 759,-409.5 441,-409.5"/>
<text text-anchor="start" x="447.5239" y="-420.9" font-family="Arial" font-size="14.00" fill="#000000">updated_date    </text>
<text text-anchor="start" x="567.3359" y="-420.9" font-family="Arial" font-size="14.00" fill="#666666">[timestamp without time zone]</text>
</g>
<!-- public.users_details&#45;&gt;public.users -->
<g id="edge2" class="edge">
<title>public.users_details:user_id&#45;&gt;public.users:id</title>
<path fill="none" stroke="#000000" d="M767.9654,-809.7324C807.9928,-764.5671 800.8654,-412.7207 811,-367 824.1244,-307.7917 793.3545,-237.5 854,-237.5"/>
<polygon fill="#000000" stroke="#000000" points="767.8292,-809.8048 756.8871,-810.5268 763.4146,-812.1524 759,-814.5 759,-814.5 759,-814.5 763.4146,-812.1524 761.1129,-818.4732 767.8292,-809.8048 767.8292,-809.8048"/>
<text text-anchor="start" x="766.3345" y="-824.5" font-family="Arial" font-size="10.00" fill="#000000">FOREIGN KEY (user_id) REFERENCES users(id)</text>
</g>
<!-- public.likes -->
<g id="node4" class="node">
<title>public.likes</title>
<polygon fill="#efefef" stroke="transparent" points="864,-709.5 864,-744.5 1161,-744.5 1161,-709.5 864,-709.5"/>
<polygon fill="none" stroke="#000000" points="864,-709.5 864,-744.5 1161,-744.5 1161,-709.5 864,-709.5"/>
<text text-anchor="start" x="904.7141" y="-722.3" font-family="Arial Bold" font-size="18.00" fill="#000000">public.likes</text>
<text text-anchor="start" x="992.7179" y="-722.3" font-family="Arial" font-size="14.00" fill="#000000">    </text>
<text text-anchor="start" x="1026.9227" y="-722.3" font-family="Arial" font-size="14.00" fill="#666666">[BASE TABLE]</text>
<polygon fill="none" stroke="#000000" points="864,-679.5 864,-709.5 1161,-709.5 1161,-679.5 864,-679.5"/>
<text text-anchor="start" x="871" y="-690.9" font-family="Arial" font-size="14.00" fill="#000000">user_id    </text>
<text text-anchor="start" x="951.1024" y="-690.9" font-family="Arial" font-size="14.00" fill="#666666">[integer]</text>
<polygon fill="none" stroke="#000000" points="864,-649.5 864,-679.5 1161,-679.5 1161,-649.5 864,-649.5"/>
<text text-anchor="start" x="871" y="-660.9" font-family="Arial" font-size="14.00" fill="#000000">liked_user_id    </text>
<text text-anchor="start" x="987.6634" y="-660.9" font-family="Arial" font-size="14.00" fill="#666666">[integer]</text>
<polygon fill="none" stroke="#000000" points="864,-619.5 864,-649.5 1161,-649.5 1161,-619.5 864,-619.5"/>
<text text-anchor="start" x="870.9278" y="-630.9" font-family="Arial" font-size="14.00" fill="#000000">liked_date    </text>
<text text-anchor="start" x="968.932" y="-630.9" font-family="Arial" font-size="14.00" fill="#666666">[timestamp without time zone]</text>
<polygon fill="none" stroke="#000000" points="864,-589.5 864,-619.5 1161,-619.5 1161,-589.5 864,-589.5"/>
<text text-anchor="start" x="871" y="-600.9" font-family="Arial" font-size="14.00" fill="#000000">status    </text>
<text text-anchor="start" x="942.5512" y="-600.9" font-family="Arial" font-size="14.00" fill="#666666">[integer]</text>
<polygon fill="none" stroke="#000000" points="864,-559.5 864,-589.5 1161,-589.5 1161,-559.5 864,-559.5"/>
<text text-anchor="start" x="871" y="-570.9" font-family="Arial" font-size="14.00" fill="#000000">message_body    </text>
<text text-anchor="start" x="1000.1262" y="-570.9" font-family="Arial" font-size="14.00" fill="#666666">[varchar(255)]</text>
</g>
<!-- public.likes&#45;&gt;public.users -->
<g id="edge3" class="edge">
<title>public.likes:liked_user_id&#45;&gt;public.users:id</title>
<path fill="none" stroke="#000000" d="M1171.2053,-663.6526C1222.7782,-654.3679 1191.3539,-570.8807 1161,-517 1082.6968,-378.0055 932.3032,-469.9945 854,-331 833.6034,-294.7944 812.4444,-237.5 854,-237.5"/>
<polygon fill="#000000" stroke="#000000" points="1170.9657,-663.6724 1160.6276,-660.0154 1165.9829,-664.0862 1161,-664.5 1161,-664.5 1161,-664.5 1165.9829,-664.0862 1161.3724,-668.9846 1170.9657,-663.6724 1170.9657,-663.6724"/>
<text text-anchor="start" x="1036.777" y="-648.5" font-family="Arial" font-size="10.00" fill="#000000">FOREIGN KEY (liked_user_id) REFERENCES users(id)</text>
</g>
<!-- public.likes&#45;&gt;public.users -->
<g id="edge4" class="edge">
<title>public.likes:user_id&#45;&gt;public.users:id</title>
<path fill="none" stroke="#000000" d="M1171.3214,-693.7984C1236.1263,-684.391 1197.9057,-582.5107 1161,-517 1082.6968,-378.0055 932.3032,-469.9945 854,-331 833.6034,-294.7944 812.4444,-237.5 854,-237.5"/>
<polygon fill="#000000" stroke="#000000" points="1170.977,-693.8217 1160.6948,-690.0104 1165.9885,-694.1608 1161,-694.5 1161,-694.5 1161,-694.5 1165.9885,-694.1608 1161.3052,-698.9896 1170.977,-693.8217 1170.977,-693.8217"/>
<text text-anchor="start" x="1049.8345" y="-678.5" font-family="Arial" font-size="10.00" fill="#000000">FOREIGN KEY (user_id) REFERENCES users(id)</text>
</g>
<!-- public.messages -->
<g id="node5" class="node">
<title>public.messages</title>
<polygon fill="#efefef" stroke="transparent" points="1265,-724.5 1265,-759.5 1559,-759.5 1559,-724.5 1265,-724.5"/>
<polygon fill="none" stroke="#000000" points="1265,-724.5 1265,-759.5 1559,-759.5 1559,-724.5 1265,-724.5"/>
<text text-anchor="start" x="1281.2029" y="-737.3" font-family="Arial Bold" font-size="18.00" fill="#000000">public.messages</text>
<text text-anchor="start" x="1415.2291" y="-737.3" font-family="Arial" font-size="14.00" fill="#000000">    </text>
<text text-anchor="start" x="1449.4339" y="-737.3" font-family="Arial" font-size="14.00" fill="#666666">[BASE TABLE]</text>
<polygon fill="none" stroke="#000000" points="1265,-694.5 1265,-724.5 1559,-724.5 1559,-694.5 1265,-694.5"/>
<text text-anchor="start" x="1272" y="-705.9" font-family="Arial" font-size="14.00" fill="#000000">id    </text>
<text text-anchor="start" x="1317.094" y="-705.9" font-family="Arial" font-size="14.00" fill="#666666">[integer]</text>
<polygon fill="none" stroke="#000000" points="1265,-664.5 1265,-694.5 1559,-694.5 1559,-664.5 1265,-664.5"/>
<text text-anchor="start" x="1272" y="-675.9" font-family="Arial" font-size="14.00" fill="#000000">sender_user_id    </text>
<text text-anchor="start" x="1402.676" y="-675.9" font-family="Arial" font-size="14.00" fill="#666666">[integer]</text>
<polygon fill="none" stroke="#000000" points="1265,-634.5 1265,-664.5 1559,-664.5 1559,-634.5 1265,-634.5"/>
<text text-anchor="start" x="1272" y="-645.9" font-family="Arial" font-size="14.00" fill="#000000">receiver_user_id    </text>
<text text-anchor="start" x="1409.6606" y="-645.9" font-family="Arial" font-size="14.00" fill="#666666">[integer]</text>
<polygon fill="none" stroke="#000000" points="1265,-604.5 1265,-634.5 1559,-634.5 1559,-604.5 1265,-604.5"/>
<text text-anchor="start" x="1272" y="-615.9" font-family="Arial" font-size="14.00" fill="#000000">message_body    </text>
<text text-anchor="start" x="1401.1262" y="-615.9" font-family="Arial" font-size="14.00" fill="#666666">[varchar(255)]</text>
<polygon fill="none" stroke="#000000" points="1265,-574.5 1265,-604.5 1559,-604.5 1559,-574.5 1265,-574.5"/>
<text text-anchor="start" x="1272" y="-585.9" font-family="Arial" font-size="14.00" fill="#000000">status    </text>
<text text-anchor="start" x="1343.5512" y="-585.9" font-family="Arial" font-size="14.00" fill="#666666">[integer]</text>
<polygon fill="none" stroke="#000000" points="1265,-544.5 1265,-574.5 1559,-574.5 1559,-544.5 1265,-544.5"/>
<text text-anchor="start" x="1271.5891" y="-555.9" font-family="Arial" font-size="14.00" fill="#000000">sent_date    </text>
<text text-anchor="start" x="1367.2707" y="-555.9" font-family="Arial" font-size="14.00" fill="#666666">[timestamp without time zone]</text>
</g>
<!-- public.messages&#45;&gt;public.users -->
<g id="edge5" class="edge">
<title>public.messages:receiver_user_id&#45;&gt;public.users:id</title>
<path fill="none" stroke="#000000" d="M1254.8416,-647.6631C1178.253,-617.9412 1262.1927,-237.5 1172,-237.5"/>
<polygon fill="#000000" stroke="#000000" points="1255.1596,-647.7205 1264.1992,-653.9282 1260.0798,-648.6103 1265,-649.5 1265,-649.5 1265,-649.5 1260.0798,-648.6103 1265.8008,-645.0718 1255.1596,-647.7205 1255.1596,-647.7205"/>
<text text-anchor="start" x="1063.278" y="-633.5" font-family="Arial" font-size="10.00" fill="#000000">FOREIGN KEY (receiver_user_id) REFERENCES users(id)</text>
</g>
<!-- public.messages&#45;&gt;public.users -->
<g id="edge6" class="edge">
<title>public.messages:sender_user_id&#45;&gt;public.users:id</title>
<path fill="none" stroke="#000000" d="M1254.9152,-677.8105C1172.1417,-648.1357 1268.7461,-237.5 1172,-237.5"/>
<polygon fill="#000000" stroke="#000000" points="1255.1374,-677.8476 1264.2564,-683.9382 1260.0687,-678.6738 1265,-679.5 1265,-679.5 1265,-679.5 1260.0687,-678.6738 1265.7436,-675.0618 1255.1374,-677.8476 1255.1374,-677.8476"/>
<text text-anchor="start" x="999.2725" y="-689.5" font-family="Arial" font-size="10.00" fill="#000000">FOREIGN KEY (sender_user_id) REFERENCES users(id)</text>
</g>
<!-- public.sessions -->
<g id="node6" class="node">
<title>public.sessions</title>
<polygon fill="#efefef" stroke="transparent" points="1664,-754.5 1664,-789.5 1979,-789.5 1979,-754.5 1664,-754.5"/>
<polygon fill="none" stroke="#000000" points="1664,-754.5 1664,-789.5 1979,-789.5 1979,-754.5 1664,-754.5"/>
<text text-anchor="start" x="1696.705" y="-767.3" font-family="Arial Bold" font-size="18.00" fill="#000000">public.sessions</text>
<text text-anchor="start" x="1818.727" y="-767.3" font-family="Arial" font-size="14.00" fill="#000000">    </text>
<text text-anchor="start" x="1852.9318" y="-767.3" font-family="Arial" font-size="14.00" fill="#666666">[BASE TABLE]</text>
<polygon fill="none" stroke="#000000" points="1664,-724.5 1664,-754.5 1979,-754.5 1979,-724.5 1664,-724.5"/>
<text text-anchor="start" x="1671" y="-735.9" font-family="Arial" font-size="14.00" fill="#000000">id    </text>
<text text-anchor="start" x="1716.094" y="-735.9" font-family="Arial" font-size="14.00" fill="#666666">[uuid]</text>
<polygon fill="none" stroke="#000000" points="1664,-694.5 1664,-724.5 1979,-724.5 1979,-694.5 1664,-694.5"/>
<text text-anchor="start" x="1671" y="-705.9" font-family="Arial" font-size="14.00" fill="#000000">user_name    </text>
<text text-anchor="start" x="1775.2216" y="-705.9" font-family="Arial" font-size="14.00" fill="#666666">[varchar(255)]</text>
<polygon fill="none" stroke="#000000" points="1664,-664.5 1664,-694.5 1979,-694.5 1979,-664.5 1664,-664.5"/>
<text text-anchor="start" x="1671" y="-675.9" font-family="Arial" font-size="14.00" fill="#000000">refresh_token    </text>
<text text-anchor="start" x="1790.7854" y="-675.9" font-family="Arial" font-size="14.00" fill="#666666">[varchar]</text>
<polygon fill="none" stroke="#000000" points="1664,-634.5 1664,-664.5 1979,-664.5 1979,-634.5 1664,-634.5"/>
<text text-anchor="start" x="1671" y="-645.9" font-family="Arial" font-size="14.00" fill="#000000">user_agent    </text>
<text text-anchor="start" x="1775.2342" y="-645.9" font-family="Arial" font-size="14.00" fill="#666666">[varchar]</text>
<polygon fill="none" stroke="#000000" points="1664,-604.5 1664,-634.5 1979,-634.5 1979,-604.5 1664,-604.5"/>
<text text-anchor="start" x="1671" y="-615.9" font-family="Arial" font-size="14.00" fill="#000000">client_ip    </text>
<text text-anchor="start" x="1756.5456" y="-615.9" font-family="Arial" font-size="14.00" fill="#666666">[varchar]</text>
<polygon fill="none" stroke="#000000" points="1664,-574.5 1664,-604.5 1979,-604.5 1979,-574.5 1664,-574.5"/>
<text text-anchor="start" x="1671" y="-585.9" font-family="Arial" font-size="14.00" fill="#000000">is_blocked    </text>
<text text-anchor="start" x="1771.331" y="-585.9" font-family="Arial" font-size="14.00" fill="#666666">[boolean]</text>
<polygon fill="none" stroke="#000000" points="1664,-544.5 1664,-574.5 1979,-574.5 1979,-544.5 1664,-544.5"/>
<text text-anchor="start" x="1671" y="-555.9" font-family="Arial" font-size="14.00" fill="#000000">expires_date    </text>
<text text-anchor="start" x="1785.3408" y="-555.9" font-family="Arial" font-size="14.00" fill="#666666">[timestamp without time zone]</text>
<polygon fill="none" stroke="#000000" points="1664,-514.5 1664,-544.5 1979,-544.5 1979,-514.5 1664,-514.5"/>
<text text-anchor="start" x="1670.9762" y="-525.9" font-family="Arial" font-size="14.00" fill="#000000">created_date    </text>
<text text-anchor="start" x="1786.8836" y="-525.9" font-family="Arial" font-size="14.00" fill="#666666">[timestamp without time zone]</text>
</g>
<!-- public.sessions&#45;&gt;public.users -->
<g id="edge7" class="edge">
<title>public.sessions:user_name&#45;&gt;public.users:user_name</title>
<path fill="none" stroke="#000000" d="M1654.1298,-707.6867C1593.5513,-683.4599 1657.6079,-423.7121 1611,-367 1545.0978,-286.8109 1275.795,-207.5 1172,-207.5"/>
<polygon fill="#000000" stroke="#000000" points="1654.1646,-707.693 1663.1869,-713.9259 1659.0823,-708.5965 1664,-709.5 1664,-709.5 1664,-709.5 1659.0823,-708.5965 1664.8131,-705.0741 1654.1646,-707.693 1654.1646,-707.693"/>
<text text-anchor="start" x="1374.6035" y="-719.5" font-family="Arial" font-size="10.00" fill="#000000">FOREIGN KEY (user_name) REFERENCES users(user_name)</text>
</g>
</g>
</svg>
