<?xml version="1.0" encoding="UTF-8" standalone="no"?>
<!DOCTYPE svg PUBLIC "-//W3C//DTD SVG 1.1//EN"
 "http://www.w3.org/Graphics/SVG/1.1/DTD/svg11.dtd">
<!-- Generated by graphviz version 2.40.1 (20161225.0304)
 -->
<!-- Title: sample Pages: 1 -->
<svg width="689pt" height="548pt"
 viewBox="0.00 0.00 689.00 548.00" xmlns="http://www.w3.org/2000/svg" xmlns:xlink="http://www.w3.org/1999/xlink">
<g id="graph0" class="graph" transform="scale(1 1) rotate(0) translate(4 544)">
<title>sample</title>
<polygon fill="#ffffff" stroke="transparent" points="-4,4 -4,-544 685,-544 685,4 -4,4"/>
<!-- cards -->
<g id="node1" class="node">
<title>cards</title>
<polygon fill="#efefef" stroke="transparent" points="43,-451 43,-497 441,-497 441,-451 43,-451"/>
<polygon fill="none" stroke="#000000" points="43,-451 43,-497 441,-497 441,-451 43,-451"/>
<text text-anchor="start" x="156.2137" y="-474.8" font-family="Arial Bold" font-size="18.00" fill="#000000">cards</text>
<text text-anchor="start" x="200.2183" y="-474.8" font-family="Arial" font-size="14.00" fill="#000000">    </text>
<text text-anchor="start" x="234.4231" y="-474.8" font-family="Arial" font-size="14.00" fill="#666666">[BASE TABLE]</text>
<text text-anchor="start" x="181.4661" y="-460.4" font-family="Arial" font-size="14.00" fill="#333333">デモ用のサンプル</text>
<polygon fill="none" stroke="#000000" points="43,-421 43,-451 441,-451 441,-421 43,-421"/>
<text text-anchor="start" x="50" y="-432.4" font-family="Arial" font-size="14.00" fill="#000000">id    </text>
<text text-anchor="start" x="95.094" y="-432.4" font-family="Arial" font-size="14.00" fill="#666666">[int(11) unsigned]</text>
<text text-anchor="start" x="203.2342" y="-432.4" font-family="Arial" font-size="14.00" fill="#000000"> 識別子</text>
<polygon fill="none" stroke="#000000" points="43,-391 43,-421 441,-421 441,-391 43,-391"/>
<text text-anchor="start" x="49.5007" y="-402.4" font-family="Arial" font-size="14.00" fill="#000000">user_id    </text>
<text text-anchor="start" x="129.6031" y="-402.4" font-family="Arial" font-size="14.00" fill="#666666">[int(11) unsigned]</text>
<text text-anchor="start" x="237.7433" y="-402.4" font-family="Arial" font-size="14.00" fill="#000000"> カードユーザーの識別子</text>
<polygon fill="none" stroke="#000000" points="43,-361 43,-391 441,-391 441,-361 43,-361"/>
<text text-anchor="start" x="50" y="-372.4" font-family="Arial" font-size="14.00" fill="#000000">created_at    </text>
<text text-anchor="start" x="150.3422" y="-372.4" font-family="Arial" font-size="14.00" fill="#666666">[datetime(6)]</text>
<text text-anchor="start" x="228.906" y="-372.4" font-family="Arial" font-size="14.00" fill="#000000"> レコード作成日時</text>
<polygon fill="none" stroke="#000000" points="43,-331 43,-361 441,-361 441,-331 43,-331"/>
<text text-anchor="start" x="50" y="-342.4" font-family="Arial" font-size="14.00" fill="#000000">modified_at    </text>
<text text-anchor="start" x="156.5554" y="-342.4" font-family="Arial" font-size="14.00" fill="#666666">[datetime(6)]</text>
<text text-anchor="start" x="235.1192" y="-342.4" font-family="Arial" font-size="14.00" fill="#000000"> レコード修正日時</text>
</g>
<!-- users -->
<g id="node2" class="node">
<title>users</title>
<polygon fill="#efefef" stroke="transparent" points="76,-163 76,-209 408,-209 408,-163 76,-163"/>
<polygon fill="none" stroke="#000000" points="76,-163 76,-209 408,-209 408,-163 76,-163"/>
<text text-anchor="start" x="156.2137" y="-186.8" font-family="Arial Bold" font-size="18.00" fill="#000000">users</text>
<text text-anchor="start" x="200.2183" y="-186.8" font-family="Arial" font-size="14.00" fill="#000000">    </text>
<text text-anchor="start" x="234.4231" y="-186.8" font-family="Arial" font-size="14.00" fill="#666666">[BASE TABLE]</text>
<text text-anchor="start" x="148.5458" y="-172.4" font-family="Arial" font-size="14.00" fill="#333333">デモ用のサンプルテーブル</text>
<polygon fill="none" stroke="#000000" points="76,-133 76,-163 408,-163 408,-133 76,-133"/>
<text text-anchor="start" x="83" y="-144.4" font-family="Arial" font-size="14.00" fill="#000000">id    </text>
<text text-anchor="start" x="128.094" y="-144.4" font-family="Arial" font-size="14.00" fill="#666666">[int(11) unsigned]</text>
<text text-anchor="start" x="236.2342" y="-144.4" font-family="Arial" font-size="14.00" fill="#000000"> 識別子</text>
<polygon fill="none" stroke="#000000" points="76,-103 76,-133 408,-133 408,-103 76,-103"/>
<text text-anchor="start" x="83" y="-114.4" font-family="Arial" font-size="14.00" fill="#000000">name    </text>
<text text-anchor="start" x="152.2132" y="-114.4" font-family="Arial" font-size="14.00" fill="#666666">[varchar(12)]</text>
<text text-anchor="start" x="231.5498" y="-114.4" font-family="Arial" font-size="14.00" fill="#000000"> 名前</text>
<polygon fill="none" stroke="#000000" points="76,-73 76,-103 408,-103 408,-73 76,-73"/>
<text text-anchor="start" x="83" y="-84.4" font-family="Arial" font-size="14.00" fill="#000000">created_at    </text>
<text text-anchor="start" x="183.3422" y="-84.4" font-family="Arial" font-size="14.00" fill="#666666">[datetime(6)]</text>
<text text-anchor="start" x="261.906" y="-84.4" font-family="Arial" font-size="14.00" fill="#000000"> レコード作成日時</text>
<polygon fill="none" stroke="#000000" points="76,-43 76,-73 408,-73 408,-43 76,-43"/>
<text text-anchor="start" x="82.6835" y="-54.4" font-family="Arial" font-size="14.00" fill="#000000">modified_at    </text>
<text text-anchor="start" x="189.2389" y="-54.4" font-family="Arial" font-size="14.00" fill="#666666">[datetime(6)]</text>
<text text-anchor="start" x="267.8027" y="-54.4" font-family="Arial" font-size="14.00" fill="#000000"> レコード修正日時</text>
</g>
<!-- cards&#45;&gt;users -->
<g id="edge1" class="edge">
<title>cards:user_id&#45;&gt;users:id</title>
<path fill="none" stroke="#000000" d="M451.0922,-405.305C554.5271,-390.6154 520.1012,-148 408,-148"/>
<polygon fill="#000000" stroke="#000000" points="450.9764,-405.3128 440.6908,-401.5106 445.9882,-405.6564 441,-406 441,-406 441,-406 445.9882,-405.6564 441.3092,-410.4894 450.9764,-405.3128 450.9764,-405.3128"/>
<text text-anchor="start" x="447.945" y="-416" font-family="Arial" font-size="10.00" fill="#000000">FOREIGN KEY (user_id) REFERENCES users (id)</text>
</g>
</g>
</svg>
