<?xml version="1.0" encoding="UTF-8" standalone="no"?>
<!DOCTYPE svg PUBLIC "-//W3C//DTD SVG 1.1//EN"
 "http://www.w3.org/Graphics/SVG/1.1/DTD/svg11.dtd">
<!-- Generated by graphviz version 2.40.1 (20161225.0304)
 -->
<!-- Title: sample Pages: 1 -->
<svg width="2054pt" height="946pt"
 viewBox="0.00 0.00 2053.50 946.00" xmlns="http://www.w3.org/2000/svg" xmlns:xlink="http://www.w3.org/1999/xlink">
<g id="graph0" class="graph" transform="scale(1 1) rotate(0) translate(4 942)">
<title>sample</title>
<polygon fill="#ffffff" stroke="transparent" points="-4,4 -4,-942 2049.5,-942 2049.5,4 -4,4"/>
<!-- public.users -->
<g id="node1" class="node">
<title>public.users</title>
<polygon fill="#efefef" stroke="transparent" points="875.5,-252.5 875.5,-287.5 1193.5,-287.5 1193.5,-252.5 875.5,-252.5"/>
<polygon fill="none" stroke="#000000" points="875.5,-252.5 875.5,-287.5 1193.5,-287.5 1193.5,-252.5 875.5,-252.5"/>
<text text-anchor="start" x="922.7091" y="-265.3" font-family="Arial Bold" font-size="18.00" fill="#000000">public.users</text>
<text text-anchor="start" x="1018.7229" y="-265.3" font-family="Arial" font-size="14.00" fill="#000000">    </text>
<text text-anchor="start" x="1052.9277" y="-265.3" font-family="Arial" font-size="14.00" fill="#666666">[BASE TABLE]</text>
<polygon fill="none" stroke="#000000" points="875.5,-222.5 875.5,-252.5 1193.5,-252.5 1193.5,-222.5 875.5,-222.5"/>
<text text-anchor="start" x="882.5" y="-233.9" font-family="Arial" font-size="14.00" fill="#000000">id    </text>
<text text-anchor="start" x="927.594" y="-233.9" font-family="Arial" font-size="14.00" fill="#666666">[integer]</text>
<polygon fill="none" stroke="#000000" points="875.5,-192.5 875.5,-222.5 1193.5,-222.5 1193.5,-192.5 875.5,-192.5"/>
<text text-anchor="start" x="882.5" y="-203.9" font-family="Arial" font-size="14.00" fill="#000000">user_name    </text>
<text text-anchor="start" x="986.7216" y="-203.9" font-family="Arial" font-size="14.00" fill="#666666">[varchar(255)]</text>
<polygon fill="none" stroke="#000000" points="875.5,-162.5 875.5,-192.5 1193.5,-192.5 1193.5,-162.5 875.5,-162.5"/>
<text text-anchor="start" x="882.5" y="-173.9" font-family="Arial" font-size="14.00" fill="#000000">hashed_password    </text>
<text text-anchor="start" x="1030.298" y="-173.9" font-family="Arial" font-size="14.00" fill="#666666">[varchar(255)]</text>
<polygon fill="none" stroke="#000000" points="875.5,-132.5 875.5,-162.5 1193.5,-162.5 1193.5,-132.5 875.5,-132.5"/>
<text text-anchor="start" x="882.5" y="-143.9" font-family="Arial" font-size="14.00" fill="#000000">status    </text>
<text text-anchor="start" x="954.0512" y="-143.9" font-family="Arial" font-size="14.00" fill="#666666">[integer]</text>
<polygon fill="none" stroke="#000000" points="875.5,-102.5 875.5,-132.5 1193.5,-132.5 1193.5,-102.5 875.5,-102.5"/>
<text text-anchor="start" x="882.5" y="-113.9" font-family="Arial" font-size="14.00" fill="#000000">email    </text>
<text text-anchor="start" x="950.1438" y="-113.9" font-family="Arial" font-size="14.00" fill="#666666">[varchar(255)]</text>
<polygon fill="none" stroke="#000000" points="875.5,-72.5 875.5,-102.5 1193.5,-102.5 1193.5,-72.5 875.5,-72.5"/>
<text text-anchor="start" x="882.5" y="-83.9" font-family="Arial" font-size="14.00" fill="#000000">created_date    </text>
<text text-anchor="start" x="998.4074" y="-83.9" font-family="Arial" font-size="14.00" fill="#666666">[timestamp without time zone]</text>
<polygon fill="none" stroke="#000000" points="875.5,-42.5 875.5,-72.5 1193.5,-72.5 1193.5,-42.5 875.5,-42.5"/>
<text text-anchor="start" x="882.0239" y="-53.9" font-family="Arial" font-size="14.00" fill="#000000">updated_date    </text>
<text text-anchor="start" x="1001.8359" y="-53.9" font-family="Arial" font-size="14.00" fill="#666666">[timestamp without time zone]</text>
</g>
<!-- public.sessions -->
<g id="node2" class="node">
<title>public.sessions</title>
<polygon fill="#efefef" stroke="transparent" points="43.5,-754.5 43.5,-789.5 358.5,-789.5 358.5,-754.5 43.5,-754.5"/>
<polygon fill="none" stroke="#000000" points="43.5,-754.5 43.5,-789.5 358.5,-789.5 358.5,-754.5 43.5,-754.5"/>
<text text-anchor="start" x="76.205" y="-767.3" font-family="Arial Bold" font-size="18.00" fill="#000000">public.sessions</text>
<text text-anchor="start" x="198.227" y="-767.3" font-family="Arial" font-size="14.00" fill="#000000">    </text>
<text text-anchor="start" x="232.4318" y="-767.3" font-family="Arial" font-size="14.00" fill="#666666">[BASE TABLE]</text>
<polygon fill="none" stroke="#000000" points="43.5,-724.5 43.5,-754.5 358.5,-754.5 358.5,-724.5 43.5,-724.5"/>
<text text-anchor="start" x="50.5" y="-735.9" font-family="Arial" font-size="14.00" fill="#000000">id    </text>
<text text-anchor="start" x="95.594" y="-735.9" font-family="Arial" font-size="14.00" fill="#666666">[uuid]</text>
<polygon fill="none" stroke="#000000" points="43.5,-694.5 43.5,-724.5 358.5,-724.5 358.5,-694.5 43.5,-694.5"/>
<text text-anchor="start" x="50.5" y="-705.9" font-family="Arial" font-size="14.00" fill="#000000">user_name    </text>
<text text-anchor="start" x="154.7216" y="-705.9" font-family="Arial" font-size="14.00" fill="#666666">[varchar(255)]</text>
<polygon fill="none" stroke="#000000" points="43.5,-664.5 43.5,-694.5 358.5,-694.5 358.5,-664.5 43.5,-664.5"/>
<text text-anchor="start" x="50.5" y="-675.9" font-family="Arial" font-size="14.00" fill="#000000">refresh_token    </text>
<text text-anchor="start" x="170.2854" y="-675.9" font-family="Arial" font-size="14.00" fill="#666666">[varchar]</text>
<polygon fill="none" stroke="#000000" points="43.5,-634.5 43.5,-664.5 358.5,-664.5 358.5,-634.5 43.5,-634.5"/>
<text text-anchor="start" x="50.5" y="-645.9" font-family="Arial" font-size="14.00" fill="#000000">user_agent    </text>
<text text-anchor="start" x="154.7342" y="-645.9" font-family="Arial" font-size="14.00" fill="#666666">[varchar]</text>
<polygon fill="none" stroke="#000000" points="43.5,-604.5 43.5,-634.5 358.5,-634.5 358.5,-604.5 43.5,-604.5"/>
<text text-anchor="start" x="50.5" y="-615.9" font-family="Arial" font-size="14.00" fill="#000000">client_ip    </text>
<text text-anchor="start" x="136.0456" y="-615.9" font-family="Arial" font-size="14.00" fill="#666666">[varchar]</text>
<polygon fill="none" stroke="#000000" points="43.5,-574.5 43.5,-604.5 358.5,-604.5 358.5,-574.5 43.5,-574.5"/>
<text text-anchor="start" x="50.5" y="-585.9" font-family="Arial" font-size="14.00" fill="#000000">is_blocked    </text>
<text text-anchor="start" x="150.831" y="-585.9" font-family="Arial" font-size="14.00" fill="#666666">[boolean]</text>
<polygon fill="none" stroke="#000000" points="43.5,-544.5 43.5,-574.5 358.5,-574.5 358.5,-544.5 43.5,-544.5"/>
<text text-anchor="start" x="50.5" y="-555.9" font-family="Arial" font-size="14.00" fill="#000000">expires_date    </text>
<text text-anchor="start" x="164.8408" y="-555.9" font-family="Arial" font-size="14.00" fill="#666666">[timestamp without time zone]</text>
<polygon fill="none" stroke="#000000" points="43.5,-514.5 43.5,-544.5 358.5,-544.5 358.5,-514.5 43.5,-514.5"/>
<text text-anchor="start" x="50.4762" y="-525.9" font-family="Arial" font-size="14.00" fill="#000000">created_date    </text>
<text text-anchor="start" x="166.3836" y="-525.9" font-family="Arial" font-size="14.00" fill="#666666">[timestamp without time zone]</text>
</g>
<!-- public.sessions&#45;&gt;public.users -->
<g id="edge1" class="edge">
<title>public.sessions:user_name&#45;&gt;public.users:user_name</title>
<path fill="none" stroke="#000000" d="M368.3568,-707.6842C428.7882,-683.4243 363.4827,-423.3314 410.5,-367 480.5012,-283.1316 766.2568,-207.5 875.5,-207.5"/>
<polygon fill="#000000" stroke="#000000" points="368.3345,-707.6882 357.6847,-705.0745 363.4173,-708.5941 358.5,-709.5 358.5,-709.5 358.5,-709.5 363.4173,-708.5941 359.3153,-713.9255 368.3345,-707.6882 368.3345,-707.6882"/>
<text text-anchor="start" x="217.1035" y="-693.5" font-family="Arial" font-size="10.00" fill="#000000">FOREIGN KEY (user_name) REFERENCES users(user_name)</text>
</g>
<!-- public.users_details -->
<g id="node3" class="node">
<title>public.users_details</title>
<polygon fill="#efefef" stroke="transparent" points="462.5,-859.5 462.5,-894.5 780.5,-894.5 780.5,-859.5 462.5,-859.5"/>
<polygon fill="none" stroke="#000000" points="462.5,-859.5 462.5,-894.5 780.5,-894.5 780.5,-859.5 462.5,-859.5"/>
<text text-anchor="start" x="478.7014" y="-872.3" font-family="Arial Bold" font-size="18.00" fill="#000000">public.users_details</text>
<text text-anchor="start" x="636.7306" y="-872.3" font-family="Arial" font-size="14.00" fill="#000000">    </text>
<text text-anchor="start" x="670.9354" y="-872.3" font-family="Arial" font-size="14.00" fill="#666666">[BASE TABLE]</text>
<polygon fill="none" stroke="#000000" points="462.5,-829.5 462.5,-859.5 780.5,-859.5 780.5,-829.5 462.5,-829.5"/>
<text text-anchor="start" x="469.5" y="-840.9" font-family="Arial" font-size="14.00" fill="#000000">id    </text>
<text text-anchor="start" x="514.594" y="-840.9" font-family="Arial" font-size="14.00" fill="#666666">[integer]</text>
<polygon fill="none" stroke="#000000" points="462.5,-799.5 462.5,-829.5 780.5,-829.5 780.5,-799.5 462.5,-799.5"/>
<text text-anchor="start" x="469.5" y="-810.9" font-family="Arial" font-size="14.00" fill="#000000">user_id    </text>
<text text-anchor="start" x="549.6024" y="-810.9" font-family="Arial" font-size="14.00" fill="#666666">[integer]</text>
<polygon fill="none" stroke="#000000" points="462.5,-769.5 462.5,-799.5 780.5,-799.5 780.5,-769.5 462.5,-769.5"/>
<text text-anchor="start" x="469.5" y="-780.9" font-family="Arial" font-size="14.00" fill="#000000">name    </text>
<text text-anchor="start" x="538.7132" y="-780.9" font-family="Arial" font-size="14.00" fill="#666666">[varchar(255)]</text>
<polygon fill="none" stroke="#000000" points="462.5,-739.5 462.5,-769.5 780.5,-769.5 780.5,-739.5 462.5,-739.5"/>
<text text-anchor="start" x="469.5" y="-750.9" font-family="Arial" font-size="14.00" fill="#000000">age    </text>
<text text-anchor="start" x="527.0526" y="-750.9" font-family="Arial" font-size="14.00" fill="#666666">[integer]</text>
<polygon fill="none" stroke="#000000" points="462.5,-709.5 462.5,-739.5 780.5,-739.5 780.5,-709.5 462.5,-709.5"/>
<text text-anchor="start" x="469.5" y="-720.9" font-family="Arial" font-size="14.00" fill="#000000">gender    </text>
<text text-anchor="start" x="547.2784" y="-720.9" font-family="Arial" font-size="14.00" fill="#666666">[varchar(255)]</text>
<polygon fill="none" stroke="#000000" points="462.5,-679.5 462.5,-709.5 780.5,-709.5 780.5,-679.5 462.5,-679.5"/>
<text text-anchor="start" x="469.5" y="-690.9" font-family="Arial" font-size="14.00" fill="#000000">height    </text>
<text text-anchor="start" x="541.8324" y="-690.9" font-family="Arial" font-size="14.00" fill="#666666">[integer]</text>
<polygon fill="none" stroke="#000000" points="462.5,-649.5 462.5,-679.5 780.5,-679.5 780.5,-649.5 462.5,-649.5"/>
<text text-anchor="start" x="469.5" y="-660.9" font-family="Arial" font-size="14.00" fill="#000000">location    </text>
<text text-anchor="start" x="551.939" y="-660.9" font-family="Arial" font-size="14.00" fill="#666666">[varchar(255)]</text>
<polygon fill="none" stroke="#000000" points="462.5,-619.5 462.5,-649.5 780.5,-649.5 780.5,-619.5 462.5,-619.5"/>
<text text-anchor="start" x="469.5" y="-630.9" font-family="Arial" font-size="14.00" fill="#000000">work    </text>
<text text-anchor="start" x="533.2546" y="-630.9" font-family="Arial" font-size="14.00" fill="#666666">[varchar(255)]</text>
<polygon fill="none" stroke="#000000" points="462.5,-589.5 462.5,-619.5 780.5,-619.5 780.5,-589.5 462.5,-589.5"/>
<text text-anchor="start" x="469.5" y="-600.9" font-family="Arial" font-size="14.00" fill="#000000">graduation    </text>
<text text-anchor="start" x="569.8408" y="-600.9" font-family="Arial" font-size="14.00" fill="#666666">[varchar(255)]</text>
<polygon fill="none" stroke="#000000" points="462.5,-559.5 462.5,-589.5 780.5,-589.5 780.5,-559.5 462.5,-559.5"/>
<text text-anchor="start" x="469.5" y="-570.9" font-family="Arial" font-size="14.00" fill="#000000">hobby    </text>
<text text-anchor="start" x="541.8352" y="-570.9" font-family="Arial" font-size="14.00" fill="#666666">[varchar(255)]</text>
<polygon fill="none" stroke="#000000" points="462.5,-529.5 462.5,-559.5 780.5,-559.5 780.5,-529.5 462.5,-529.5"/>
<text text-anchor="start" x="469.5" y="-540.9" font-family="Arial" font-size="14.00" fill="#000000">passion    </text>
<text text-anchor="start" x="551.9418" y="-540.9" font-family="Arial" font-size="14.00" fill="#666666">[varchar(255)]</text>
<polygon fill="none" stroke="#000000" points="462.5,-499.5 462.5,-529.5 780.5,-529.5 780.5,-499.5 462.5,-499.5"/>
<text text-anchor="start" x="469.5" y="-510.9" font-family="Arial" font-size="14.00" fill="#000000">tweet    </text>
<text text-anchor="start" x="537.1578" y="-510.9" font-family="Arial" font-size="14.00" fill="#666666">[varchar]</text>
<polygon fill="none" stroke="#000000" points="462.5,-469.5 462.5,-499.5 780.5,-499.5 780.5,-469.5 462.5,-469.5"/>
<text text-anchor="start" x="469.5" y="-480.9" font-family="Arial" font-size="14.00" fill="#000000">introduction    </text>
<text text-anchor="start" x="576.0554" y="-480.9" font-family="Arial" font-size="14.00" fill="#666666">[varchar]</text>
<polygon fill="none" stroke="#000000" points="462.5,-439.5 462.5,-469.5 780.5,-469.5 780.5,-439.5 462.5,-439.5"/>
<text text-anchor="start" x="469.5" y="-450.9" font-family="Arial" font-size="14.00" fill="#000000">created_date    </text>
<text text-anchor="start" x="585.4074" y="-450.9" font-family="Arial" font-size="14.00" fill="#666666">[timestamp without time zone]</text>
<polygon fill="none" stroke="#000000" points="462.5,-409.5 462.5,-439.5 780.5,-439.5 780.5,-409.5 462.5,-409.5"/>
<text text-anchor="start" x="469.0239" y="-420.9" font-family="Arial" font-size="14.00" fill="#000000">updated_date    </text>
<text text-anchor="start" x="588.8359" y="-420.9" font-family="Arial" font-size="14.00" fill="#666666">[timestamp without time zone]</text>
</g>
<!-- public.users_details&#45;&gt;public.users -->
<g id="edge2" class="edge">
<title>public.users_details:user_id&#45;&gt;public.users:id</title>
<path fill="none" stroke="#000000" d="M789.4654,-809.7324C829.4928,-764.5671 822.3654,-412.7207 832.5,-367 845.6244,-307.7917 814.8545,-237.5 875.5,-237.5"/>
<polygon fill="#000000" stroke="#000000" points="789.3292,-809.8048 778.3871,-810.5268 784.9146,-812.1524 780.5,-814.5 780.5,-814.5 780.5,-814.5 784.9146,-812.1524 782.6129,-818.4732 789.3292,-809.8048 789.3292,-809.8048"/>
<text text-anchor="start" x="787.8345" y="-824.5" font-family="Arial" font-size="10.00" fill="#000000">FOREIGN KEY (user_id) REFERENCES users(id)</text>
</g>
<!-- public.likes -->
<g id="node4" class="node">
<title>public.likes</title>
<polygon fill="#efefef" stroke="transparent" points="885.5,-709.5 885.5,-744.5 1182.5,-744.5 1182.5,-709.5 885.5,-709.5"/>
<polygon fill="none" stroke="#000000" points="885.5,-709.5 885.5,-744.5 1182.5,-744.5 1182.5,-709.5 885.5,-709.5"/>
<text text-anchor="start" x="926.2141" y="-722.3" font-family="Arial Bold" font-size="18.00" fill="#000000">public.likes</text>
<text text-anchor="start" x="1014.2179" y="-722.3" font-family="Arial" font-size="14.00" fill="#000000">    </text>
<text text-anchor="start" x="1048.4227" y="-722.3" font-family="Arial" font-size="14.00" fill="#666666">[BASE TABLE]</text>
<polygon fill="none" stroke="#000000" points="885.5,-679.5 885.5,-709.5 1182.5,-709.5 1182.5,-679.5 885.5,-679.5"/>
<text text-anchor="start" x="892.5" y="-690.9" font-family="Arial" font-size="14.00" fill="#000000">user_id    </text>
<text text-anchor="start" x="972.6024" y="-690.9" font-family="Arial" font-size="14.00" fill="#666666">[integer]</text>
<polygon fill="none" stroke="#000000" points="885.5,-649.5 885.5,-679.5 1182.5,-679.5 1182.5,-649.5 885.5,-649.5"/>
<text text-anchor="start" x="892.5" y="-660.9" font-family="Arial" font-size="14.00" fill="#000000">liked_user_id    </text>
<text text-anchor="start" x="1009.1634" y="-660.9" font-family="Arial" font-size="14.00" fill="#666666">[integer]</text>
<polygon fill="none" stroke="#000000" points="885.5,-619.5 885.5,-649.5 1182.5,-649.5 1182.5,-619.5 885.5,-619.5"/>
<text text-anchor="start" x="892.4278" y="-630.9" font-family="Arial" font-size="14.00" fill="#000000">liked_date    </text>
<text text-anchor="start" x="990.432" y="-630.9" font-family="Arial" font-size="14.00" fill="#666666">[timestamp without time zone]</text>
<polygon fill="none" stroke="#000000" points="885.5,-589.5 885.5,-619.5 1182.5,-619.5 1182.5,-589.5 885.5,-589.5"/>
<text text-anchor="start" x="892.5" y="-600.9" font-family="Arial" font-size="14.00" fill="#000000">status    </text>
<text text-anchor="start" x="964.0512" y="-600.9" font-family="Arial" font-size="14.00" fill="#666666">[integer]</text>
<polygon fill="none" stroke="#000000" points="885.5,-559.5 885.5,-589.5 1182.5,-589.5 1182.5,-559.5 885.5,-559.5"/>
<text text-anchor="start" x="892.5" y="-570.9" font-family="Arial" font-size="14.00" fill="#000000">message_body    </text>
<text text-anchor="start" x="1021.6262" y="-570.9" font-family="Arial" font-size="14.00" fill="#666666">[varchar(255)]</text>
</g>
<!-- public.likes&#45;&gt;public.users -->
<g id="edge3" class="edge">
<title>public.likes:liked_user_id&#45;&gt;public.users:id</title>
<path fill="none" stroke="#000000" d="M1192.7053,-663.6526C1244.2782,-654.3679 1212.8539,-570.8807 1182.5,-517 1104.1968,-378.0055 953.8032,-469.9945 875.5,-331 855.1034,-294.7944 833.9444,-237.5 875.5,-237.5"/>
<polygon fill="#000000" stroke="#000000" points="1192.4657,-663.6724 1182.1276,-660.0154 1187.4829,-664.0862 1182.5,-664.5 1182.5,-664.5 1182.5,-664.5 1187.4829,-664.0862 1182.8724,-668.9846 1192.4657,-663.6724 1192.4657,-663.6724"/>
<text text-anchor="start" x="1058.277" y="-648.5" font-family="Arial" font-size="10.00" fill="#000000">FOREIGN KEY (liked_user_id) REFERENCES users(id)</text>
</g>
<!-- public.likes&#45;&gt;public.users -->
<g id="edge4" class="edge">
<title>public.likes:user_id&#45;&gt;public.users:id</title>
<path fill="none" stroke="#000000" d="M1192.8214,-693.7984C1257.6263,-684.391 1219.4057,-582.5107 1182.5,-517 1104.1968,-378.0055 953.8032,-469.9945 875.5,-331 855.1034,-294.7944 833.9444,-237.5 875.5,-237.5"/>
<polygon fill="#000000" stroke="#000000" points="1192.477,-693.8217 1182.1948,-690.0104 1187.4885,-694.1608 1182.5,-694.5 1182.5,-694.5 1182.5,-694.5 1187.4885,-694.1608 1182.8052,-698.9896 1192.477,-693.8217 1192.477,-693.8217"/>
<text text-anchor="start" x="1071.3345" y="-678.5" font-family="Arial" font-size="10.00" fill="#000000">FOREIGN KEY (user_id) REFERENCES users(id)</text>
</g>
<!-- public.messages -->
<g id="node5" class="node">
<title>public.messages</title>
<polygon fill="#efefef" stroke="transparent" points="1286.5,-724.5 1286.5,-759.5 1580.5,-759.5 1580.5,-724.5 1286.5,-724.5"/>
<polygon fill="none" stroke="#000000" points="1286.5,-724.5 1286.5,-759.5 1580.5,-759.5 1580.5,-724.5 1286.5,-724.5"/>
<text text-anchor="start" x="1302.7029" y="-737.3" font-family="Arial Bold" font-size="18.00" fill="#000000">public.messages</text>
<text text-anchor="start" x="1436.7291" y="-737.3" font-family="Arial" font-size="14.00" fill="#000000">    </text>
<text text-anchor="start" x="1470.9339" y="-737.3" font-family="Arial" font-size="14.00" fill="#666666">[BASE TABLE]</text>
<polygon fill="none" stroke="#000000" points="1286.5,-694.5 1286.5,-724.5 1580.5,-724.5 1580.5,-694.5 1286.5,-694.5"/>
<text text-anchor="start" x="1293.5" y="-705.9" font-family="Arial" font-size="14.00" fill="#000000">id    </text>
<text text-anchor="start" x="1338.594" y="-705.9" font-family="Arial" font-size="14.00" fill="#666666">[integer]</text>
<polygon fill="none" stroke="#000000" points="1286.5,-664.5 1286.5,-694.5 1580.5,-694.5 1580.5,-664.5 1286.5,-664.5"/>
<text text-anchor="start" x="1293.5" y="-675.9" font-family="Arial" font-size="14.00" fill="#000000">sender_user_id    </text>
<text text-anchor="start" x="1424.176" y="-675.9" font-family="Arial" font-size="14.00" fill="#666666">[integer]</text>
<polygon fill="none" stroke="#000000" points="1286.5,-634.5 1286.5,-664.5 1580.5,-664.5 1580.5,-634.5 1286.5,-634.5"/>
<text text-anchor="start" x="1293.5" y="-645.9" font-family="Arial" font-size="14.00" fill="#000000">receiver_user_id    </text>
<text text-anchor="start" x="1431.1606" y="-645.9" font-family="Arial" font-size="14.00" fill="#666666">[integer]</text>
<polygon fill="none" stroke="#000000" points="1286.5,-604.5 1286.5,-634.5 1580.5,-634.5 1580.5,-604.5 1286.5,-604.5"/>
<text text-anchor="start" x="1293.5" y="-615.9" font-family="Arial" font-size="14.00" fill="#000000">message_body    </text>
<text text-anchor="start" x="1422.6262" y="-615.9" font-family="Arial" font-size="14.00" fill="#666666">[varchar(255)]</text>
<polygon fill="none" stroke="#000000" points="1286.5,-574.5 1286.5,-604.5 1580.5,-604.5 1580.5,-574.5 1286.5,-574.5"/>
<text text-anchor="start" x="1293.5" y="-585.9" font-family="Arial" font-size="14.00" fill="#000000">status    </text>
<text text-anchor="start" x="1365.0512" y="-585.9" font-family="Arial" font-size="14.00" fill="#666666">[integer]</text>
<polygon fill="none" stroke="#000000" points="1286.5,-544.5 1286.5,-574.5 1580.5,-574.5 1580.5,-544.5 1286.5,-544.5"/>
<text text-anchor="start" x="1293.0891" y="-555.9" font-family="Arial" font-size="14.00" fill="#000000">sent_date    </text>
<text text-anchor="start" x="1388.7707" y="-555.9" font-family="Arial" font-size="14.00" fill="#666666">[timestamp without time zone]</text>
</g>
<!-- public.messages&#45;&gt;public.users -->
<g id="edge5" class="edge">
<title>public.messages:receiver_user_id&#45;&gt;public.users:id</title>
<path fill="none" stroke="#000000" d="M1276.3416,-647.6631C1199.753,-617.9412 1283.6927,-237.5 1193.5,-237.5"/>
<polygon fill="#000000" stroke="#000000" points="1276.6596,-647.7205 1285.6992,-653.9282 1281.5798,-648.6103 1286.5,-649.5 1286.5,-649.5 1286.5,-649.5 1281.5798,-648.6103 1287.3008,-645.0718 1276.6596,-647.7205 1276.6596,-647.7205"/>
<text text-anchor="start" x="1084.778" y="-633.5" font-family="Arial" font-size="10.00" fill="#000000">FOREIGN KEY (receiver_user_id) REFERENCES users(id)</text>
</g>
<!-- public.messages&#45;&gt;public.users -->
<g id="edge6" class="edge">
<title>public.messages:sender_user_id&#45;&gt;public.users:id</title>
<path fill="none" stroke="#000000" d="M1276.4152,-677.8105C1193.6417,-648.1357 1290.2461,-237.5 1193.5,-237.5"/>
<polygon fill="#000000" stroke="#000000" points="1276.6374,-677.8476 1285.7564,-683.9382 1281.5687,-678.6738 1286.5,-679.5 1286.5,-679.5 1286.5,-679.5 1281.5687,-678.6738 1287.2436,-675.0618 1276.6374,-677.8476 1276.6374,-677.8476"/>
<text text-anchor="start" x="1020.7725" y="-689.5" font-family="Arial" font-size="10.00" fill="#000000">FOREIGN KEY (sender_user_id) REFERENCES users(id)</text>
</g>
<!-- public.boards -->
<g id="node6" class="node">
<title>public.boards</title>
<polygon fill="#efefef" stroke="transparent" points="1684.5,-709.5 1684.5,-744.5 2002.5,-744.5 2002.5,-709.5 1684.5,-709.5"/>
<polygon fill="none" stroke="#000000" points="1684.5,-709.5 1684.5,-744.5 2002.5,-744.5 2002.5,-709.5 1684.5,-709.5"/>
<text text-anchor="start" x="1726.2029" y="-722.3" font-family="Arial Bold" font-size="18.00" fill="#000000">public.boards</text>
<text text-anchor="start" x="1833.2291" y="-722.3" font-family="Arial" font-size="14.00" fill="#000000">    </text>
<text text-anchor="start" x="1867.4339" y="-722.3" font-family="Arial" font-size="14.00" fill="#666666">[BASE TABLE]</text>
<polygon fill="none" stroke="#000000" points="1684.5,-679.5 1684.5,-709.5 2002.5,-709.5 2002.5,-679.5 1684.5,-679.5"/>
<text text-anchor="start" x="1691.5" y="-690.9" font-family="Arial" font-size="14.00" fill="#000000">id    </text>
<text text-anchor="start" x="1736.594" y="-690.9" font-family="Arial" font-size="14.00" fill="#666666">[integer]</text>
<polygon fill="none" stroke="#000000" points="1684.5,-649.5 1684.5,-679.5 2002.5,-679.5 2002.5,-649.5 1684.5,-649.5"/>
<text text-anchor="start" x="1691.5" y="-660.9" font-family="Arial" font-size="14.00" fill="#000000">user_id    </text>
<text text-anchor="start" x="1771.6024" y="-660.9" font-family="Arial" font-size="14.00" fill="#666666">[integer]</text>
<polygon fill="none" stroke="#000000" points="1684.5,-619.5 1684.5,-649.5 2002.5,-649.5 2002.5,-619.5 1684.5,-619.5"/>
<text text-anchor="start" x="1691.5" y="-630.9" font-family="Arial" font-size="14.00" fill="#000000">body    </text>
<text text-anchor="start" x="1756.0526" y="-630.9" font-family="Arial" font-size="14.00" fill="#666666">[varchar(255)]</text>
<polygon fill="none" stroke="#000000" points="1684.5,-589.5 1684.5,-619.5 2002.5,-619.5 2002.5,-589.5 1684.5,-589.5"/>
<text text-anchor="start" x="1691.5" y="-600.9" font-family="Arial" font-size="14.00" fill="#000000">created_date    </text>
<text text-anchor="start" x="1807.4074" y="-600.9" font-family="Arial" font-size="14.00" fill="#666666">[timestamp without time zone]</text>
<polygon fill="none" stroke="#000000" points="1684.5,-559.5 1684.5,-589.5 2002.5,-589.5 2002.5,-559.5 1684.5,-559.5"/>
<text text-anchor="start" x="1691.0239" y="-570.9" font-family="Arial" font-size="14.00" fill="#000000">updated_date    </text>
<text text-anchor="start" x="1810.8359" y="-570.9" font-family="Arial" font-size="14.00" fill="#666666">[timestamp without time zone]</text>
</g>
<!-- public.boards&#45;&gt;public.users -->
<g id="edge7" class="edge">
<title>public.boards:user_id&#45;&gt;public.users:id</title>
<path fill="none" stroke="#000000" d="M1674.59,-662.3528C1623.6141,-638.0285 1674.737,-414.3399 1632.5,-367 1564.786,-291.105 1295.2116,-237.5 1193.5,-237.5"/>
<polygon fill="#000000" stroke="#000000" points="1674.7268,-662.3824 1683.5471,-668.898 1679.6134,-663.4412 1684.5,-664.5 1684.5,-664.5 1684.5,-664.5 1679.6134,-663.4412 1685.4529,-660.102 1674.7268,-662.3824 1674.7268,-662.3824"/>
<text text-anchor="start" x="1454.8345" y="-674.5" font-family="Arial" font-size="10.00" fill="#000000">FOREIGN KEY (user_id) REFERENCES users(id)</text>
</g>
</g>
</svg>
