<?xml version="1.0" encoding="UTF-8" standalone="no"?>
<!DOCTYPE svg PUBLIC "-//W3C//DTD SVG 1.1//EN"
 "http://www.w3.org/Graphics/SVG/1.1/DTD/svg11.dtd">
<!-- Generated by graphviz version 2.40.1 (20161225.0304)
 -->
<!-- Title: users Pages: 1 -->
<svg width="689pt" height="554pt"
 viewBox="0.00 0.00 689.00 554.00" xmlns="http://www.w3.org/2000/svg" xmlns:xlink="http://www.w3.org/1999/xlink">
<g id="graph0" class="graph" transform="scale(1 1) rotate(0) translate(4 550)">
<title>users</title>
<polygon fill="#ffffff" stroke="transparent" points="-4,4 -4,-550 685,-550 685,4 -4,4"/>
<!-- users -->
<g id="node1" class="node">
<title>users</title>
<polygon fill="#efefef" stroke="transparent" points="91,-166 91,-212 393,-212 393,-166 91,-166"/>
<polygon fill="none" stroke="#000000" points="91,-166 91,-212 393,-212 393,-166 91,-166"/>
<text text-anchor="start" x="156.2137" y="-189.8" font-family="Arial Bold" font-size="18.00" fill="#000000">users</text>
<text text-anchor="start" x="200.2183" y="-189.8" font-family="Arial" font-size="14.00" fill="#000000">    </text>
<text text-anchor="start" x="234.4231" y="-189.8" font-family="Arial" font-size="14.00" fill="#666666">[BASE TABLE]</text>
<text text-anchor="start" x="148.5458" y="-175.4" font-family="Arial" font-size="14.00" fill="#333333">デモ用のサンプルテーブル</text>
<polygon fill="none" stroke="#000000" points="91,-136 91,-166 393,-166 393,-136 91,-136"/>
<text text-anchor="start" x="98" y="-147.4" font-family="Arial" font-size="14.00" fill="#000000">id </text>
<text text-anchor="start" x="112.7798" y="-147.4" font-family="Arial" font-size="14.00" fill="#666666">[int(11) unsigned]</text>
<text text-anchor="start" x="220.92" y="-147.4" font-family="Arial" font-size="14.00" fill="#000000"> 識別子</text>
<polygon fill="none" stroke="#000000" points="91,-106 91,-136 393,-136 393,-106 91,-106"/>
<text text-anchor="start" x="98" y="-117.4" font-family="Arial" font-size="14.00" fill="#000000">name </text>
<text text-anchor="start" x="136.899" y="-117.4" font-family="Arial" font-size="14.00" fill="#666666">[varchar(12)]</text>
<text text-anchor="start" x="216.2356" y="-117.4" font-family="Arial" font-size="14.00" fill="#000000"> 名前</text>
<polygon fill="none" stroke="#000000" points="91,-76 91,-106 393,-106 393,-76 91,-76"/>
<text text-anchor="start" x="98" y="-87.4" font-family="Arial" font-size="14.00" fill="#000000">created_at </text>
<text text-anchor="start" x="168.028" y="-87.4" font-family="Arial" font-size="14.00" fill="#666666">[datetime(6)]</text>
<text text-anchor="start" x="246.5918" y="-87.4" font-family="Arial" font-size="14.00" fill="#000000"> レコード作成日時2</text>
<polygon fill="none" stroke="#000000" points="91,-46 91,-76 393,-76 393,-46 91,-46"/>
<text text-anchor="start" x="97.8406" y="-57.4" font-family="Arial" font-size="14.00" fill="#000000">modified_at </text>
<text text-anchor="start" x="174.0818" y="-57.4" font-family="Arial" font-size="14.00" fill="#666666">[datetime(6)]</text>
<text text-anchor="start" x="252.6456" y="-57.4" font-family="Arial" font-size="14.00" fill="#000000"> レコード修正日時</text>
<polygon fill="none" stroke="#000000" stroke-width="3" points="89.5,-44.5 89.5,-213.5 394.5,-213.5 394.5,-44.5 89.5,-44.5"/>
</g>
<!-- cards -->
<g id="node2" class="node">
<title>cards</title>
<polygon fill="#efefef" stroke="transparent" points="43,-457 43,-503 441,-503 441,-457 43,-457"/>
<polygon fill="none" stroke="#000000" points="43,-457 43,-503 441,-503 441,-457 43,-457"/>
<text text-anchor="start" x="156.2137" y="-480.8" font-family="Arial Bold" font-size="18.00" fill="#000000">cards</text>
<text text-anchor="start" x="200.2183" y="-480.8" font-family="Arial" font-size="14.00" fill="#000000">    </text>
<text text-anchor="start" x="234.4231" y="-480.8" font-family="Arial" font-size="14.00" fill="#666666">[BASE TABLE]</text>
<text text-anchor="start" x="181.4661" y="-466.4" font-family="Arial" font-size="14.00" fill="#333333">デモ用のサンプル</text>
<polygon fill="none" stroke="#000000" points="43,-427 43,-457 441,-457 441,-427 43,-427"/>
<text text-anchor="start" x="50" y="-438.4" font-family="Arial" font-size="14.00" fill="#000000">id    </text>
<text text-anchor="start" x="95.094" y="-438.4" font-family="Arial" font-size="14.00" fill="#666666">[int(11) unsigned]</text>
<text text-anchor="start" x="203.2342" y="-438.4" font-family="Arial" font-size="14.00" fill="#000000"> 識別子</text>
<polygon fill="none" stroke="#000000" points="43,-397 43,-427 441,-427 441,-397 43,-397"/>
<text text-anchor="start" x="49.5007" y="-408.4" font-family="Arial" font-size="14.00" fill="#000000">user_id    </text>
<text text-anchor="start" x="129.6031" y="-408.4" font-family="Arial" font-size="14.00" fill="#666666">[int(11) unsigned]</text>
<text text-anchor="start" x="237.7433" y="-408.4" font-family="Arial" font-size="14.00" fill="#000000"> カードユーザーの識別子</text>
<polygon fill="none" stroke="#000000" points="43,-367 43,-397 441,-397 441,-367 43,-367"/>
<text text-anchor="start" x="50" y="-378.4" font-family="Arial" font-size="14.00" fill="#000000">created_at    </text>
<text text-anchor="start" x="150.3422" y="-378.4" font-family="Arial" font-size="14.00" fill="#666666">[datetime(6)]</text>
<text text-anchor="start" x="228.906" y="-378.4" font-family="Arial" font-size="14.00" fill="#000000"> レコード作成日時</text>
<polygon fill="none" stroke="#000000" points="43,-337 43,-367 441,-367 441,-337 43,-337"/>
<text text-anchor="start" x="50" y="-348.4" font-family="Arial" font-size="14.00" fill="#000000">modified_at    </text>
<text text-anchor="start" x="156.5554" y="-348.4" font-family="Arial" font-size="14.00" fill="#666666">[datetime(6)]</text>
<text text-anchor="start" x="235.1192" y="-348.4" font-family="Arial" font-size="14.00" fill="#000000"> レコード修正日時</text>
</g>
<!-- cards&#45;&gt;users -->
<g id="edge1" class="edge">
<title>cards:user_id&#45;&gt;users:id</title>
<path fill="none" stroke="#000000" d="M451.2582,-411.2969C555.975,-396.4365 507.3748,-151 393,-151"/>
<polygon fill="#000000" stroke="#000000" points="450.9766,-411.3161 440.6922,-407.5105 445.9883,-411.658 441,-412 441,-412 441,-412 445.9883,-411.658 441.3078,-416.4895 450.9766,-411.3161 450.9766,-411.3161"/>
<text text-anchor="start" x="447.945" y="-422" font-family="Arial" font-size="10.00" fill="#000000">FOREIGN KEY (user_id) REFERENCES users (id)</text>
</g>
</g>
</svg>
